<?xml version="1.0" encoding="UTF-8" standalone="no" ?>
<!DOCTYPE svg PUBLIC "-//W3C//DTD SVG 1.1//EN" "http://www.w3.org/Graphics/SVG/1.1/DTD/svg11.dtd">
<svg xmlns="http://www.w3.org/2000/svg" xmlns:xlink="http://www.w3.org/1999/xlink" version="1.1" width="578" height="380" viewBox="0 0 578 380" xml:space="preserve">
<desc>Created with Fabric.js 3.6.6</desc>
<defs>
</defs>
<g transform="matrix(1.01 0 0 1.01 287.96 278.58)"  >
<g style=""   >
		<g transform="matrix(1 0 0 1 -58.12 -190.61)"  >
<path style="stroke: rgb(35,31,32); stroke-width: 0.5; stroke-dasharray: none; stroke-linecap: butt; stroke-dashoffset: 0; stroke-linejoin: miter; stroke-miterlimit: 10; fill: rgb(180,195,181); fill-rule: nonzero; opacity: 1;"  transform=" translate(-232.04, -100.28)" d="M 219.43 116 a 36 36 0 0 0 4.43 -1.21 a 32.18 32.18 0 0 0 10.61 -5.63 a 29 29 0 0 0 9.25 -15.21 a 30.61 30.61 0 0 0 0.87 -9.4 a 31.65 31.65 0 0 0 -7.93 3.28 a 33 33 0 0 0 -9.08 7.93 a 35.62 35.62 0 0 0 -5.2 9.13 a 42 42 0 0 0 -2.62 9.36 Z" stroke-linecap="round" />
</g>
		<g transform="matrix(1 0 0 1 -81.88 -189.16)"  >
<path style="stroke: rgb(35,31,32); stroke-width: 0.5; stroke-dasharray: none; stroke-linecap: butt; stroke-dashoffset: 0; stroke-linejoin: miter; stroke-miterlimit: 10; fill: rgb(180,195,181); fill-rule: nonzero; opacity: 1;"  transform=" translate(-208.28, -101.72)" d="M 217 115.81 a 27.93 27.93 0 0 1 -14 -12.71 a 29.94 29.94 0 0 1 -3.07 -9.63 a 36.18 36.18 0 0 1 -0.49 -5.85 A 31.07 31.07 0 0 1 205 90.49 a 26.59 26.59 0 0 1 6.63 5.82 a 25.35 25.35 0 0 1 5.45 17.34 Z" stroke-linecap="round" />
</g>
		<g transform="matrix(1 0 0 1 -71.94 -164.76)"  >
<path style="stroke: rgb(35,31,32); stroke-width: 0.5; stroke-dasharray: none; stroke-linecap: butt; stroke-dashoffset: 0; stroke-linejoin: miter; stroke-miterlimit: 10; fill: rgb(35,31,32); fill-rule: nonzero; opacity: 1;"  transform=" translate(-218.22, -126.13)" d="M 217.18 116.56 a 1 1 0 0 1 0.37 -0.33 a 0.94 0.94 0 0 1 0.31 -0.09 a 1.08 1.08 0 0 1 0.53 0 a 1 1 0 0 1 0.49 0.33 a 1.1 1.1 0 0 1 0.24 0.57 a 1.44 1.44 0 0 1 -0.06 0.58 a 5.12 5.12 0 0 1 -0.26 0.67 s -0.06 0.14 -0.29 0.77 a 8.89 8.89 0 0 0 -0.44 1.92 a 14.94 14.94 0 0 0 -0.2 2 a 21.48 21.48 0 0 0 0.25 5 a 23.6 23.6 0 0 0 1.84 5.49 c 0.26 0.62 0.5 1.13 0.68 1.48 a 0.74 0.74 0 0 1 0.1 0.3 a 0.75 0.75 0 0 1 -0.13 0.43 a 0.91 0.91 0 0 1 -0.37 0.3 a 1.33 1.33 0 0 1 -0.52 0.15 a 0.88 0.88 0 0 1 -0.42 0 a 0.78 0.78 0 0 1 -0.28 -0.22 a 7.83 7.83 0 0 1 -1 -1.44 a 16.42 16.42 0 0 1 -0.68 -1.65 c -0.64 -1.9 -1 -2.85 -1 -3.19 a 22 22 0 0 1 -0.59 -3.76 a 20.82 20.82 0 0 1 0.08 -3.86 a 20.47 20.47 0 0 1 0.77 -3.84 c 0.1 -0.33 0.2 -0.61 0.27 -0.81 A 1.79 1.79 0 0 1 217.18 116.56 Z" stroke-linecap="round" />
</g>
		<g transform="matrix(1 0 0 1 -79.58 -185.97)"  >
<path style="stroke: rgb(35,31,32); stroke-width: 0.5; stroke-dasharray: none; stroke-linecap: butt; stroke-dashoffset: 0; stroke-linejoin: miter; stroke-miterlimit: 10; fill: none; fill-rule: nonzero; opacity: 1;"  transform=" translate(-210.58, -104.91)" d="M 216.8 115.55 a 38.29 38.29 0 0 0 -12.44 -21.27" stroke-linecap="round" />
</g>
		<g transform="matrix(1 0 0 1 -62.2 -186.26)"  >
<path style="stroke: rgb(35,31,32); stroke-width: 0.5; stroke-dasharray: none; stroke-linecap: butt; stroke-dashoffset: 0; stroke-linejoin: miter; stroke-miterlimit: 10; fill: none; fill-rule: nonzero; opacity: 1;"  transform=" translate(-227.96, -104.62)" d="M 219.63 115.73 c 0.94 -1.9 2 -3.87 3.22 -5.87 A 75.36 75.36 0 0 1 236.29 93.5" stroke-linecap="round" />
</g>
		<g transform="matrix(1 0 0 1 4.24 -126.79)"  >
<path style="stroke: rgb(35,31,32); stroke-width: 1; stroke-dasharray: none; stroke-linecap: butt; stroke-dashoffset: 0; stroke-linejoin: miter; stroke-miterlimit: 10; fill: rgb(35,31,32); fill-rule: nonzero; opacity: 1;"  transform=" translate(-294.39, -164.1)" d="M 502.75 234.1 c -2.72 -4.9 -5.82 -11.27 -9.71 -19.83 L 429.59 87.8 l -1.3 -2 a 8.35 8.35 0 0 0 -0.86 -0.64 a 11.54 11.54 0 0 0 -6.24 -1.87 l -23.28 -0.41 a 7.17 7.17 0 0 1 -1 0.45 l -0.18 0.17 a 2.3 2.3 0 0 0 -0.15 1.05 l 0 10.43 l 0.05 0.31 a 1.39 1.39 0 0 0 0 0.32 a 1.76 1.76 0 0 0 0.94 1 a 2 2 0 0 0 1 0.2 h 20.48 L 487.26 233.4 H 101.33 L 169.62 97 l 6.4 -0.09 c 0.39 0.06 11.14 0.07 11.83 0.06 c 2.92 0 3.08 0.11 3.15 -0.52 c 0.13 -1.25 0.51 -2.92 0.72 -6.19 c 0.22 -3.47 0.15 -2.94 0.21 -4.57 c 0 -1 0.79 -2.24 -3.73 -2.32 c 0 0 -2 -0.17 -11.54 -0.32 l -9.83 -0.16 a 12 12 0 0 0 -1.71 0 a 9 9 0 0 0 -2.67 0.5 a 5.93 5.93 0 0 0 -2.89 2.94 L 85 235.18 L 84.32 237 a 7 7 0 0 0 -0.31 1.35 a 6.73 6.73 0 0 0 2.11 5.6 a 6.13 6.13 0 0 0 3.4 1.39 l 409.71 0 h 1.61 a 3.45 3.45 0 0 0 1.24 -0.23 a 4.45 4.45 0 0 0 2.36 -2.54 C 505.8 239.6 503 234.52 502.75 234.1 Z" stroke-linecap="round" />
</g>
		<g transform="matrix(1 0 0 1 -108.43 -122.72)"  >
<line style="stroke: rgb(35,31,32); stroke-width: 0.75; stroke-dasharray: none; stroke-linecap: butt; stroke-dashoffset: 0; stroke-linejoin: miter; stroke-miterlimit: 10; fill: none; fill-rule: nonzero; opacity: 0.75;"  x1="-21.00500000000001" y1="59.94500000000001" x2="21.00500000000001" y2="-59.94500000000001" />
</g>
		<g transform="matrix(1 0 0 1 -62.52 -122.72)"  >
<line style="stroke: rgb(35,31,32); stroke-width: 0.75; stroke-dasharray: none; stroke-linecap: butt; stroke-dashoffset: 0; stroke-linejoin: miter; stroke-miterlimit: 10; fill: none; fill-rule: nonzero; opacity: 0.75;"  x1="-13.100000000000009" y1="59.94500000000001" x2="13.100000000000009" y2="-59.94500000000001" />
</g>
		<g transform="matrix(1 0 0 1 -18.07 -122.39)"  >
<line style="stroke: rgb(35,31,32); stroke-width: 0.75; stroke-dasharray: none; stroke-linecap: butt; stroke-dashoffset: 0; stroke-linejoin: miter; stroke-miterlimit: 10; fill: none; fill-rule: nonzero; opacity: 0.75;"  x1="-5.994999999999976" y1="60.275000000000006" x2="5.994999999999976" y2="-60.275000000000006" />
</g>
		<g transform="matrix(1 0 0 1 120.58 -122.72)"  >
<line style="stroke: rgb(35,31,32); stroke-width: 0.75; stroke-dasharray: none; stroke-linecap: butt; stroke-dashoffset: 0; stroke-linejoin: miter; stroke-miterlimit: 10; fill: none; fill-rule: nonzero; opacity: 0.75;"  x1="21.004999999999995" y1="59.94500000000001" x2="-21.004999999999995" y2="-59.94500000000001" />
</g>
		<g transform="matrix(1 0 0 1 71.76 -122.72)"  >
<line style="stroke: rgb(35,31,32); stroke-width: 0.75; stroke-dasharray: none; stroke-linecap: butt; stroke-dashoffset: 0; stroke-linejoin: miter; stroke-miterlimit: 10; fill: none; fill-rule: nonzero; opacity: 0.75;"  x1="12.444999999999993" y1="59.94500000000001" x2="-12.444999999999993" y2="-59.94500000000001" />
</g>
		<g transform="matrix(1 0 0 1 24.93 -122.39)"  >
<line style="stroke: rgb(35,31,32); stroke-width: 0.75; stroke-dasharray: none; stroke-linecap: butt; stroke-dashoffset: 0; stroke-linejoin: miter; stroke-miterlimit: 10; fill: none; fill-rule: nonzero; opacity: 0.75;"  x1="5.994999999999976" y1="60.275000000000006" x2="-5.994999999999976" y2="-60.275000000000006" />
</g>
		<g transform="matrix(1 0 0 1 5.63 -94.61)"  >
<line style="stroke: rgb(35,31,32); stroke-width: 0.75; stroke-dasharray: none; stroke-linecap: butt; stroke-dashoffset: 0; stroke-linejoin: miter; stroke-miterlimit: 10; fill: none; fill-rule: nonzero; opacity: 1;"  x1="-161.825" y1="-1.6299999999999955" x2="161.825" y2="1.6299999999999955" />
</g>
		<g transform="matrix(1 0 0 1 3.94 -120.76)"  >
<line style="stroke: rgb(35,31,32); stroke-width: 0.75; stroke-dasharray: none; stroke-linecap: butt; stroke-dashoffset: 0; stroke-linejoin: miter; stroke-miterlimit: 10; fill: none; fill-rule: nonzero; opacity: 1;"  x1="-148.825" y1="-1.4950000000000045" x2="148.825" y2="1.4950000000000045" />
</g>
		<g transform="matrix(1 0 0 1 5.17 -145.6)"  >
<line style="stroke: rgb(35,31,32); stroke-width: 0.75; stroke-dasharray: none; stroke-linecap: butt; stroke-dashoffset: 0; stroke-linejoin: miter; stroke-miterlimit: 10; fill: none; fill-rule: nonzero; opacity: 1;"  x1="-138.38" y1="-1.394999999999996" x2="138.38" y2="1.394999999999996" />
</g>
		<g transform="matrix(1 0 0 1 5.23 -166.7)"  >
<line style="stroke: rgb(35,31,32); stroke-width: 0.75; stroke-dasharray: none; stroke-linecap: butt; stroke-dashoffset: 0; stroke-linejoin: miter; stroke-miterlimit: 10; fill: none; fill-rule: nonzero; opacity: 1;"  x1="-127.81499999999998" y1="-1.2849999999999966" x2="127.81499999999998" y2="1.2849999999999966" />
</g>
		<g transform="matrix(1 0 0 1 5.46 -245.53)"  >
<path style="stroke: rgb(35,31,32); stroke-width: 1; stroke-dasharray: none; stroke-linecap: butt; stroke-dashoffset: 0; stroke-linejoin: miter; stroke-miterlimit: 10; fill: rgb(0,104,56); fill-rule: nonzero; opacity: 1;"  transform=" translate(-295.61, -45.35)" d="M 292.48 32.25 a 33.82 33.82 0 0 0 -2.16 2.87 a 37.07 37.07 0 0 0 -3.8 7.36 a 30.9 30.9 0 0 0 -1.75 5.2 a 25.21 25.21 0 0 0 -0.47 8.52 c 0.4 3.14 1.33 5.2 2.81 8.47 a 48.48 48.48 0 0 0 6.19 9.23 a 2.77 2.77 0 0 0 0.87 0.76 a 3.2 3.2 0 0 0 2.75 0.24 a 3 3 0 0 0 1.34 -1.35 c 1.88 -3.38 3.13 -3.31 5.49 -8.23 A 28.36 28.36 0 0 0 307 55 a 26.7 26.7 0 0 0 -0.82 -9.12 a 29.15 29.15 0 0 0 -2 -5.19 a 35.41 35.41 0 0 0 -3.68 -6.14 a 7.91 7.91 0 0 1 -1.4 -2.51 a 11.45 11.45 0 0 1 -0.35 -1.4 a 19.67 19.67 0 0 1 -0.35 -2.51 c -0.13 -1.6 -0.31 -2.94 -0.47 -4.15 c -0.5 -3.81 -0.89 -4 -0.82 -5.32 a 10 10 0 0 0 -0.23 -2 a 1.24 1.24 0 0 0 -0.35 -0.82 a 1 1 0 0 0 -1.29 0 a 1.06 1.06 0 0 0 -0.17 0.76 a 17.29 17.29 0 0 1 -0.35 2 s -0.3 1.68 -0.88 5 c -0.42 2.4 -0.62 3.56 -0.82 4.67 c -0.14 0.84 -0.32 1.89 -0.46 2.69 Z" stroke-linecap="round" />
</g>
		<g transform="matrix(1 0 0 1 -14.68 -214.04)"  >
<path style="stroke: rgb(35,31,32); stroke-width: 1; stroke-dasharray: none; stroke-linecap: butt; stroke-dashoffset: 0; stroke-linejoin: miter; stroke-miterlimit: 10; fill: rgb(0,104,56); fill-rule: nonzero; opacity: 1;"  transform=" translate(-275.47, -76.84)" d="M 264.9 67.6 a 34.89 34.89 0 0 0 -0.23 3.58 a 37.54 37.54 0 0 0 0.88 8.24 a 30.87 30.87 0 0 0 1.4 5.3 a 25.3 25.3 0 0 0 4.3 7.38 c 2.06 2.4 4 3.61 7 5.53 a 48.35 48.35 0 0 0 10.25 4.3 a 3.07 3.07 0 0 0 1.15 0.16 a 3.16 3.16 0 0 0 2.42 -1.32 a 3 3 0 0 0 0.38 -1.86 c -0.29 -3.86 0.79 -4.49 0.06 -9.9 a 28.32 28.32 0 0 0 -3 -10.43 a 26.36 26.36 0 0 0 -5.7 -7.16 a 28.43 28.43 0 0 0 -4.51 -3.25 a 36.08 36.08 0 0 0 -6.45 -3.1 a 7.88 7.88 0 0 1 -2.55 -1.33 a 12.78 12.78 0 0 1 -1.07 -1 a 20.09 20.09 0 0 1 -1.67 -1.91 c -1 -1.26 -1.87 -2.28 -2.67 -3.21 c -2.51 -2.9 -3 -2.88 -3.61 -4 A 9.89 9.89 0 0 0 260 52.09 a 1.22 1.22 0 0 0 -0.74 -0.49 a 1 1 0 0 0 -1.08 0.7 c -0.05 0.27 0.12 0.48 0.28 0.73 a 15.82 15.82 0 0 1 0.79 1.85 s 0.69 1.57 2 4.68 c 1 2.23 1.44 3.32 1.88 4.35 c 0.34 0.79 0.77 1.76 1.09 2.51 Z" stroke-linecap="round" />
</g>
		<g transform="matrix(1 0 0 1 -14.68 -179.13)"  >
<path style="stroke: rgb(35,31,32); stroke-width: 1; stroke-dasharray: none; stroke-linecap: butt; stroke-dashoffset: 0; stroke-linejoin: miter; stroke-miterlimit: 10; fill: rgb(0,104,56); fill-rule: nonzero; opacity: 1;"  transform=" translate(-275.47, -111.75)" d="M 264.9 102.52 a 34.69 34.69 0 0 0 -0.23 3.58 a 37.36 37.36 0 0 0 0.88 8.23 a 31 31 0 0 0 1.4 5.31 a 25.3 25.3 0 0 0 4.3 7.38 c 2.06 2.4 4 3.61 7 5.53 a 49 49 0 0 0 10.25 4.3 a 2.92 2.92 0 0 0 1.15 0.15 a 3.18 3.18 0 0 0 2.42 -1.31 a 3 3 0 0 0 0.38 -1.86 c -0.29 -3.86 0.79 -4.5 0.06 -9.9 a 28.37 28.37 0 0 0 -3 -10.44 a 26.52 26.52 0 0 0 -5.7 -7.16 a 29.79 29.79 0 0 0 -4.51 -3.25 a 36.78 36.78 0 0 0 -6.45 -3.1 a 8 8 0 0 1 -2.55 -1.32 a 12.84 12.84 0 0 1 -1.07 -1 a 20.42 20.42 0 0 1 -1.67 -1.9 c -1 -1.26 -1.87 -2.28 -2.67 -3.21 c -2.51 -2.9 -3 -2.88 -3.61 -4 A 10.3 10.3 0 0 0 260 87 a 1.27 1.27 0 0 0 -0.74 -0.49 a 1 1 0 0 0 -1.08 0.71 c -0.05 0.26 0.12 0.48 0.28 0.73 a 14.49 14.49 0 0 1 0.79 1.85 s 0.69 1.57 2 4.68 c 1 2.23 1.44 3.32 1.88 4.35 c 0.34 0.78 0.77 1.75 1.09 2.5 Z" stroke-linecap="round" />
</g>
		<g transform="matrix(1 0 0 1 -14.7 -143.6)"  >
<path style="stroke: rgb(35,31,32); stroke-width: 1; stroke-dasharray: none; stroke-linecap: butt; stroke-dashoffset: 0; stroke-linejoin: miter; stroke-miterlimit: 10; fill: rgb(0,104,56); fill-rule: nonzero; opacity: 1;"  transform=" translate(-275.45, -147.28)" d="M 264.9 138.06 a 34.66 34.66 0 0 0 -0.23 3.57 a 37.39 37.39 0 0 0 0.88 8.24 a 31 31 0 0 0 1.4 5.31 a 25.46 25.46 0 0 0 4.3 7.38 c 2.06 2.39 4 3.61 7 5.53 a 49 49 0 0 0 10.25 4.3 a 2.92 2.92 0 0 0 1.15 0.15 a 3.18 3.18 0 0 0 2.42 -1.31 a 3 3 0 0 0 0.38 -1.87 c -0.29 -3.86 0.79 -4.49 0.06 -9.89 a 28.37 28.37 0 0 0 -3 -10.44 a 26.52 26.52 0 0 0 -5.7 -7.16 a 29.1 29.1 0 0 0 -4.51 -3.25 a 36.78 36.78 0 0 0 -6.45 -3.1 a 8 8 0 0 1 -2.55 -1.32 a 12.84 12.84 0 0 1 -1.07 -1 a 18.88 18.88 0 0 1 -1.67 -1.91 c -1 -1.26 -1.87 -2.28 -2.67 -3.2 c -2.51 -2.9 -3 -2.88 -3.61 -4 a 10.3 10.3 0 0 0 -1.32 -1.58 a 1.22 1.22 0 0 0 -0.74 -0.49 a 1 1 0 0 0 -1.08 0.71 c -0.05 0.26 0.12 0.48 0.28 0.73 a 14.49 14.49 0 0 1 0.79 1.85 s 0.69 1.57 2 4.68 c 1 2.23 1.44 3.31 1.88 4.35 c 0.34 0.78 0.77 1.75 1.09 2.5 Z" stroke-linecap="round" />
</g>
		<g transform="matrix(1 0 0 1 25.37 -214.02)"  >
<path style="stroke: rgb(35,31,32); stroke-width: 1; stroke-dasharray: none; stroke-linecap: butt; stroke-dashoffset: 0; stroke-linejoin: miter; stroke-miterlimit: 10; fill: rgb(0,104,56); fill-rule: nonzero; opacity: 1;"  transform=" translate(-315.53, -76.87)" d="M 320.47 63.9 a 34.73 34.73 0 0 0 -3.36 1.23 a 37.49 37.49 0 0 0 -7.19 4.13 a 30.47 30.47 0 0 0 -4.29 3.41 a 25.12 25.12 0 0 0 -5 6.91 c -1.37 2.85 -1.71 5.09 -2.25 8.64 a 48.84 48.84 0 0 0 0.2 11.11 a 3 3 0 0 0 0.32 1.11 a 3.17 3.17 0 0 0 2.18 1.69 a 3 3 0 0 0 1.86 -0.4 c 3.41 -1.83 4.43 -1.09 9.08 -3.94 a 28.28 28.28 0 0 0 8.36 -6.91 a 26.24 26.24 0 0 0 4.26 -8.09 a 29.88 29.88 0 0 0 1.15 -5.45 a 35.74 35.74 0 0 0 0.24 -7.15 a 8.1 8.1 0 0 1 0.18 -2.87 a 12.21 12.21 0 0 1 0.47 -1.37 a 20.77 20.77 0 0 1 1.07 -2.3 c 0.76 -1.41 1.33 -2.63 1.86 -3.73 c 1.64 -3.47 1.44 -3.88 2.2 -4.91 a 10.05 10.05 0 0 0 0.91 -1.85 a 1.2 1.2 0 0 0 0.15 -0.87 a 1 1 0 0 0 -1.08 -0.7 c -0.26 0.06 -0.39 0.3 -0.56 0.54 a 15.9 15.9 0 0 1 -1.37 1.48 l -3.46 3.74 l -3.23 3.48 l -1.85 2 Z" stroke-linecap="round" />
</g>
		<g transform="matrix(1 0 0 1 25.63 -179.13)"  >
<path style="stroke: rgb(35,31,32); stroke-width: 1; stroke-dasharray: none; stroke-linecap: butt; stroke-dashoffset: 0; stroke-linejoin: miter; stroke-miterlimit: 10; fill: rgb(0,104,56); fill-rule: nonzero; opacity: 1;"  transform=" translate(-315.78, -111.76)" d="M 320.73 98.79 a 35.29 35.29 0 0 0 -3.37 1.24 a 36.88 36.88 0 0 0 -7.18 4.12 a 31.32 31.32 0 0 0 -4.3 3.41 a 25.12 25.12 0 0 0 -5 6.91 c -1.37 2.85 -1.7 5.09 -2.24 8.64 a 49.1 49.1 0 0 0 0.19 11.11 a 3 3 0 0 0 0.32 1.11 a 3.21 3.21 0 0 0 2.18 1.69 a 3 3 0 0 0 1.86 -0.4 c 3.41 -1.82 4.43 -1.09 9.08 -3.94 a 28.16 28.16 0 0 0 8.36 -6.91 a 26.24 26.24 0 0 0 4.26 -8.09 a 28.88 28.88 0 0 0 1.15 -5.45 a 35.74 35.74 0 0 0 0.24 -7.15 a 8.18 8.18 0 0 1 0.19 -2.87 a 11 11 0 0 1 0.47 -1.37 A 20.89 20.89 0 0 1 328 98.55 c 0.76 -1.41 1.34 -2.63 1.86 -3.74 c 1.65 -3.47 1.44 -3.88 2.2 -4.91 a 9.87 9.87 0 0 0 0.91 -1.84 a 1.19 1.19 0 0 0 0.15 -0.88 a 1 1 0 0 0 -1.08 -0.7 c -0.26 0.06 -0.39 0.3 -0.55 0.54 a 17.52 17.52 0 0 1 -1.38 1.48 l -3.46 3.75 l -3.22 3.48 l -1.85 2 Z" stroke-linecap="round" />
</g>
		<g transform="matrix(1 0 0 1 25.63 -143.6)"  >
<path style="stroke: rgb(35,31,32); stroke-width: 1; stroke-dasharray: none; stroke-linecap: butt; stroke-dashoffset: 0; stroke-linejoin: miter; stroke-miterlimit: 10; fill: rgb(0,104,56); fill-rule: nonzero; opacity: 1;"  transform=" translate(-315.78, -147.28)" d="M 320.73 134.33 a 34.74 34.74 0 0 0 -3.37 1.23 a 37.34 37.34 0 0 0 -7.18 4.13 a 30.58 30.58 0 0 0 -4.3 3.41 a 25.12 25.12 0 0 0 -5 6.91 c -1.37 2.85 -1.7 5.09 -2.24 8.64 a 49.1 49.1 0 0 0 0.19 11.11 a 3 3 0 0 0 0.32 1.11 a 3.21 3.21 0 0 0 2.18 1.69 a 3 3 0 0 0 1.86 -0.4 c 3.41 -1.83 4.43 -1.09 9.08 -3.94 a 28.16 28.16 0 0 0 8.36 -6.91 a 26.24 26.24 0 0 0 4.26 -8.09 a 29 29 0 0 0 1.15 -5.45 a 35.74 35.74 0 0 0 0.24 -7.15 a 8.18 8.18 0 0 1 0.19 -2.87 a 10.48 10.48 0 0 1 0.47 -1.37 a 21.37 21.37 0 0 1 1.06 -2.3 c 0.76 -1.41 1.34 -2.62 1.86 -3.73 c 1.65 -3.47 1.44 -3.88 2.2 -4.91 a 9.72 9.72 0 0 0 0.91 -1.85 a 1.16 1.16 0 0 0 0.15 -0.87 A 1 1 0 0 0 332 122 c -0.26 0.06 -0.39 0.3 -0.55 0.54 a 17.52 17.52 0 0 1 -1.38 1.48 l -3.46 3.74 l -3.22 3.49 l -1.85 2 Z" stroke-linecap="round" />
</g>
		<g transform="matrix(1 0 0 1 5.47 -97.58)"  >
<path style="stroke: rgb(35,31,32); stroke-width: 1; stroke-dasharray: none; stroke-linecap: butt; stroke-dashoffset: 0; stroke-linejoin: miter; stroke-miterlimit: 10; fill: rgb(0,104,56); fill-rule: nonzero; opacity: 1;"  transform=" translate(-295.63, -193.31)" d="M 288.37 206.05 a 5.76 5.76 0 0 0 0.15 1.12 a 6.3 6.3 0 0 0 2 3.22 a 6.74 6.74 0 0 0 1.69 1.07 a 8.22 8.22 0 0 0 6.23 0.31 a 7.34 7.34 0 0 0 1.89 -1.07 a 6.65 6.65 0 0 0 2.55 -4.39 a 5 5 0 0 0 0 -0.87 V 180.73 a 4.9 4.9 0 0 0 -0.05 -0.77 c -0.31 -1.93 -1.88 -3.19 -2.81 -3.93 a 6.75 6.75 0 0 0 -1.79 -1.17 a 7 7 0 0 0 -5.1 0 a 7.53 7.53 0 0 0 -4.75 5.21 v 25.93 Z" stroke-linecap="round" />
</g>
		<g transform="matrix(1 0 0 1 -137.46 9.24)"  >
<path style="stroke: none; stroke-width: 1; stroke-dasharray: none; stroke-linecap: butt; stroke-dashoffset: 0; stroke-linejoin: miter; stroke-miterlimit: 4; fill: rgb(35,31,32); fill-rule: nonzero; opacity: 1;"  transform=" translate(-152.7, -300.12)" d="M 101.67 255.24 h 30.4 l 20.13 28.47 h 1 l 20.13 -28.47 h 30.4 V 345 h -30 V 298.07 H 173 l -19.75 26 h -1 l -19.75 -26 h -0.77 V 345 h -30 Z" stroke-linecap="round" />
</g>
		<g transform="matrix(1 0 0 1 -30.87 9.24)"  >
<path style="stroke: none; stroke-width: 1; stroke-dasharray: none; stroke-linecap: butt; stroke-dashoffset: 0; stroke-linejoin: miter; stroke-miterlimit: 4; fill: rgb(35,31,32); fill-rule: nonzero; opacity: 1;"  transform=" translate(-259.29, -300.13)" d="M 275.45 335.91 H 243.13 l -2.44 9.1 H 209.53 l 26.16 -89.77 h 47.2 L 309.05 345 H 277.89 Z m -6.41 -24 l -8.72 -33 h -2.06 l -8.72 33 Z" stroke-linecap="round" />
</g>
		<g transform="matrix(1 0 0 1 71.68 9.24)"  >
<path style="stroke: none; stroke-width: 1; stroke-dasharray: none; stroke-linecap: butt; stroke-dashoffset: 0; stroke-linejoin: miter; stroke-miterlimit: 4; fill: rgb(35,31,32); fill-rule: nonzero; opacity: 1;"  transform=" translate(-361.83, -300.12)" d="M 407.54 283.71 c 0 15.77 -14.49 28.21 -30.52 28.21 H 346.11 V 345 h -30 V 255.24 h 62.2 C 396.51 255.24 407.54 265.75 407.54 283.71 Z m -30 -0.26 c 0 -3.08 -2 -4.49 -4.87 -4.49 H 346.11 v 9.24 h 26.55 A 4.62 4.62 0 0 0 377.53 283.45 Z" stroke-linecap="round" />
</g>
		<g transform="matrix(1 0 0 1 164 9.26)"  >
<path style="stroke: none; stroke-width: 1; stroke-dasharray: none; stroke-linecap: butt; stroke-dashoffset: 0; stroke-linejoin: miter; stroke-miterlimit: 4; fill: rgb(35,31,32); fill-rule: nonzero; opacity: 1;"  transform=" translate(-454.15, -300.15)" d="M 413.7 321.29 h 46.81 c 4 0 5.9 -1.8 5.9 -4.75 s -1.92 -4.62 -6 -4.62 H 439.09 c -15 0 -27.19 -10.26 -27.19 -28.34 c 0 -20.78 14.24 -28.34 28.6 -28.34 h 53.1 V 279 H 447.81 c -3.46 0 -5.9 1.29 -5.9 4.49 s 2.44 4.75 5.9 4.75 h 20 c 17.19 0 28.6 10.13 28.6 28.21 c 0 17.06 -12.82 28.6 -29.5 28.6 H 413.31 Z" stroke-linecap="round" />
</g>
		<g transform="matrix(1 0 0 1 -176.43 78.87)"  >
<path style="stroke: none; stroke-width: 1; stroke-dasharray: none; stroke-linecap: butt; stroke-dashoffset: 0; stroke-linejoin: miter; stroke-miterlimit: 4; fill: rgb(35,31,32); fill-rule: nonzero; opacity: 1;"  transform=" translate(-113.73, -369.76)" d="M 120.42 377.38 h -2.51 l -4.33 -11.72 h -0.06 l -3.84 11.72 h -2.61 l -4.94 -15.24 h 2.8 l 3.48 11.72 h 0.06 l 3.94 -11.72 h 2.67 l 4 11.72 h 0.07 l 3.45 -11.72 h 2.73 Z" stroke-linecap="round" />
</g>
		<g transform="matrix(1 0 0 1 -152.38 78.87)"  >
<path style="stroke: none; stroke-width: 1; stroke-dasharray: none; stroke-linecap: butt; stroke-dashoffset: 0; stroke-linejoin: miter; stroke-miterlimit: 4; fill: rgb(35,31,32); fill-rule: nonzero; opacity: 1;"  transform=" translate(-137.78, -369.76)" d="M 144.54 377.38 H 142 l -4.33 -11.72 h -0.06 l -3.85 11.72 h -2.6 l -5 -15.24 H 129 l 3.49 11.72 h 0.06 l 3.94 -11.72 h 2.67 l 4 11.72 h 0.07 l 3.45 -11.72 h 2.73 Z" stroke-linecap="round" />
</g>
		<g transform="matrix(1 0 0 1 -128.2 78.87)"  >
<path style="stroke: none; stroke-width: 1; stroke-dasharray: none; stroke-linecap: butt; stroke-dashoffset: 0; stroke-linejoin: miter; stroke-miterlimit: 4; fill: rgb(35,31,32); fill-rule: nonzero; opacity: 1;"  transform=" translate(-161.96, -369.76)" d="M 168.65 377.38 h -2.5 l -4.33 -11.72 h -0.07 l -3.84 11.72 h -2.6 l -4.95 -15.24 h 2.8 l 3.48 11.72 h 0.07 l 3.94 -11.72 h 2.66 l 4 11.72 h 0.06 l 3.45 -11.72 h 2.74 Z" stroke-linecap="round" />
</g>
		<g transform="matrix(1 0 0 1 -113.4 84.73)"  >
<path style="stroke: none; stroke-width: 1; stroke-dasharray: none; stroke-linecap: butt; stroke-dashoffset: 0; stroke-linejoin: miter; stroke-miterlimit: 4; fill: rgb(35,31,32); fill-rule: nonzero; opacity: 1;"  transform=" translate(-176.75, -375.62)" d="M 176.76 373.67 a 1.87 1.87 0 0 1 1.38 0.56 a 1.9 1.9 0 0 1 0.57 1.39 a 1.83 1.83 0 0 1 -0.6 1.38 a 2 2 0 0 1 -1.35 0.57 a 1.91 1.91 0 0 1 -1.35 -0.57 a 1.81 1.81 0 0 1 -0.61 -1.38 a 1.9 1.9 0 0 1 0.57 -1.39 A 1.88 1.88 0 0 1 176.76 373.67 Z" stroke-linecap="round" />
</g>
		<g transform="matrix(1 0 0 1 -95.08 78.65)"  >
<path style="stroke: none; stroke-width: 1; stroke-dasharray: none; stroke-linecap: butt; stroke-dashoffset: 0; stroke-linejoin: miter; stroke-miterlimit: 4; fill: rgb(35,31,32); fill-rule: nonzero; opacity: 1;"  transform=" translate(-195.07, -369.54)" d="M 183.69 365.76 c 0 -0.7 0 -1.35 -0.07 -2 s -0.06 -1.16 -0.06 -1.66 H 186 c 0 0.42 0 0.83 0 1.24 s 0 0.84 0 1.27 h 0.07 a 4 4 0 0 1 0.73 -1.07 a 5.14 5.14 0 0 1 1.12 -0.93 a 6 6 0 0 1 1.47 -0.65 a 5.78 5.78 0 0 1 1.75 -0.25 a 6.1 6.1 0 0 1 2.07 0.31 a 5.28 5.28 0 0 1 1.38 0.75 a 3.8 3.8 0 0 1 0.87 0.94 c 0.2 0.34 0.37 0.64 0.5 0.9 a 7.09 7.09 0 0 1 1.95 -2.13 a 5 5 0 0 1 2.87 -0.77 a 7.51 7.51 0 0 1 2.73 0.44 a 4.39 4.39 0 0 1 1.79 1.27 a 5 5 0 0 1 1 2 a 11.38 11.38 0 0 1 0.29 2.65 v 9.25 h -2.54 v -9.12 a 7.1 7.1 0 0 0 -0.16 -1.53 a 3.41 3.41 0 0 0 -0.59 -1.33 a 3.06 3.06 0 0 0 -1.14 -0.95 a 4.16 4.16 0 0 0 -1.82 -0.35 a 3.78 3.78 0 0 0 -1.53 0.32 a 3.87 3.87 0 0 0 -1.25 0.91 a 4.37 4.37 0 0 0 -0.85 1.42 a 5.38 5.38 0 0 0 -0.31 1.84 v 8.79 h -2.53 v -8.63 a 6.94 6.94 0 0 0 -0.69 -3.6 a 2.46 2.46 0 0 0 -2.24 -1 a 5 5 0 0 0 -2.14 0.42 a 3.79 3.79 0 0 0 -1.46 1.2 a 5.49 5.49 0 0 0 -0.85 1.86 a 9.71 9.71 0 0 0 -0.27 2.37 v 7.43 h -2.54 Z" stroke-linecap="round" />
</g>
		<g transform="matrix(1 0 0 1 -77.23 74.97)"  >
<path style="stroke: none; stroke-width: 1; stroke-dasharray: none; stroke-linecap: butt; stroke-dashoffset: 0; stroke-linejoin: miter; stroke-miterlimit: 4; fill: rgb(35,31,32); fill-rule: nonzero; opacity: 1;"  transform=" translate(-212.93, -365.85)" d="M 211.06 356.19 a 1.78 1.78 0 0 1 0.54 -1.3 a 1.74 1.74 0 0 1 1.31 -0.56 a 1.76 1.76 0 0 1 1.32 0.56 a 1.87 1.87 0 1 1 -3.17 1.3 Z m 0.59 5.95 h 2.53 v 15.24 h -2.53 Z" stroke-linecap="round" />
</g>
		<g transform="matrix(1 0 0 1 -65.02 78.92)"  >
<path style="stroke: none; stroke-width: 1; stroke-dasharray: none; stroke-linecap: butt; stroke-dashoffset: 0; stroke-linejoin: miter; stroke-miterlimit: 4; fill: rgb(35,31,32); fill-rule: nonzero; opacity: 1;"  transform=" translate(-225.14, -369.81)" d="M 230.07 366 a 5.17 5.17 0 0 0 -1.76 -1.41 a 4.79 4.79 0 0 0 -2.08 -0.44 a 5.32 5.32 0 0 0 -2.25 0.44 a 4.28 4.28 0 0 0 -1.61 1.22 a 5.56 5.56 0 0 0 -1 1.8 a 7.18 7.18 0 0 0 -0.33 2.2 a 6.4 6.4 0 0 0 0.38 2.2 a 5.74 5.74 0 0 0 1 1.8 a 4.62 4.62 0 0 0 1.61 1.22 a 4.85 4.85 0 0 0 2.12 0.44 a 4.49 4.49 0 0 0 3.87 -1.89 l 1.89 1.79 a 6.61 6.61 0 0 1 -2.61 1.86 a 8.92 8.92 0 0 1 -6.38 0 a 7 7 0 0 1 -2.49 -1.66 a 7.7 7.7 0 0 1 -1.59 -2.54 a 9.3 9.3 0 0 1 0 -6.41 a 7.59 7.59 0 0 1 1.61 -2.54 a 7.35 7.35 0 0 1 2.49 -1.68 a 8.31 8.31 0 0 1 3.21 -0.6 a 8.82 8.82 0 0 1 3.2 0.59 a 7 7 0 0 1 2.65 1.82 Z" stroke-linecap="round" />
</g>
		<g transform="matrix(1 0 0 1 -51.08 78.61)"  >
<path style="stroke: none; stroke-width: 1; stroke-dasharray: none; stroke-linecap: butt; stroke-dashoffset: 0; stroke-linejoin: miter; stroke-miterlimit: 4; fill: rgb(35,31,32); fill-rule: nonzero; opacity: 1;"  transform=" translate(-239.08, -369.5)" d="M 234.92 365.76 c 0 -0.7 0 -1.35 -0.07 -2 s -0.06 -1.16 -0.06 -1.66 h 2.4 c 0 0.42 0 0.83 0 1.24 s 0 0.84 0 1.27 h 0.06 a 4.29 4.29 0 0 1 0.74 -1.07 a 4.91 4.91 0 0 1 1.12 -0.93 a 6.1 6.1 0 0 1 3.22 -0.9 a 3 3 0 0 1 0.52 0 a 1.89 1.89 0 0 1 0.52 0.13 l -0.16 2.57 a 4.73 4.73 0 0 0 -1.37 -0.2 a 3.88 3.88 0 0 0 -3.4 1.51 a 7.2 7.2 0 0 0 -1.06 4.15 v 7.43 h -2.53 Z" stroke-linecap="round" />
</g>
		<g transform="matrix(1 0 0 1 -37.11 78.87)"  >
<path style="stroke: none; stroke-width: 1; stroke-dasharray: none; stroke-linecap: butt; stroke-dashoffset: 0; stroke-linejoin: miter; stroke-miterlimit: 4; fill: rgb(35,31,32); fill-rule: nonzero; opacity: 1;"  transform=" translate(-253.04, -369.76)" d="M 244.91 369.76 a 8.2 8.2 0 0 1 0.62 -3.26 a 7.7 7.7 0 0 1 1.69 -2.52 a 7.5 7.5 0 0 1 2.57 -1.64 a 9.27 9.27 0 0 1 6.51 0 a 7.6 7.6 0 0 1 2.57 1.64 a 7.7 7.7 0 0 1 1.69 2.52 a 8.38 8.38 0 0 1 0.62 3.26 a 8.29 8.29 0 0 1 -0.62 3.25 a 7.41 7.41 0 0 1 -4.26 4.17 a 9.27 9.27 0 0 1 -6.51 0 a 7.5 7.5 0 0 1 -2.57 -1.64 a 7.64 7.64 0 0 1 -1.69 -2.53 A 8.12 8.12 0 0 1 244.91 369.76 Z m 2.73 0 A 6.49 6.49 0 0 0 248 372 a 5.14 5.14 0 0 0 2.79 3 a 5.38 5.38 0 0 0 2.23 0.44 a 5.32 5.32 0 0 0 2.23 -0.44 a 5.12 5.12 0 0 0 2.8 -3 a 6.73 6.73 0 0 0 0 -4.46 a 5.12 5.12 0 0 0 -2.8 -3 a 5.32 5.32 0 0 0 -2.23 -0.44 a 5.38 5.38 0 0 0 -2.23 0.44 a 5.14 5.14 0 0 0 -2.79 3 A 6.44 6.44 0 0 0 247.64 369.76 Z" stroke-linecap="round" />
</g>
		<g transform="matrix(1 0 0 1 -18.49 78.67)"  >
<path style="stroke: none; stroke-width: 1; stroke-dasharray: none; stroke-linecap: butt; stroke-dashoffset: 0; stroke-linejoin: miter; stroke-miterlimit: 4; fill: rgb(35,31,32); fill-rule: nonzero; opacity: 1;"  transform=" translate(-271.66, -369.55)" d="M 265.12 365.76 c 0 -0.7 0 -1.35 -0.07 -2 s -0.06 -1.16 -0.06 -1.66 h 2.41 c 0 0.42 0 0.83 0 1.24 s 0 0.84 0 1.27 h 0.07 a 4 4 0 0 1 0.73 -1.07 a 5.14 5.14 0 0 1 1.12 -0.93 a 6 6 0 0 1 1.47 -0.65 a 5.78 5.78 0 0 1 1.75 -0.25 a 6.59 6.59 0 0 1 2.59 0.46 a 4.85 4.85 0 0 1 1.81 1.27 a 5.13 5.13 0 0 1 1.06 2 a 9.14 9.14 0 0 1 0.34 2.52 v 9.41 h -2.54 v -9.15 a 4.85 4.85 0 0 0 -0.85 -3 a 3.08 3.08 0 0 0 -2.63 -1.1 a 5 5 0 0 0 -2.14 0.42 a 3.79 3.79 0 0 0 -1.46 1.2 a 5.49 5.49 0 0 0 -0.85 1.86 a 9.71 9.71 0 0 0 -0.27 2.37 v 7.43 h -2.54 Z" stroke-linecap="round" />
</g>
		<g transform="matrix(1 0 0 1 -0.21 79.04)"  >
<path style="stroke: none; stroke-width: 1; stroke-dasharray: none; stroke-linecap: butt; stroke-dashoffset: 0; stroke-linejoin: miter; stroke-miterlimit: 4; fill: rgb(35,31,32); fill-rule: nonzero; opacity: 1;"  transform=" translate(-289.95, -369.93)" d="M 296.49 373.76 c 0 0.7 0 1.35 0.07 1.95 s 0.06 1.17 0.06 1.67 h -2.41 c 0 -0.42 0 -0.83 0 -1.24 s 0 -0.84 0 -1.27 h -0.07 a 4 4 0 0 1 -0.73 1.07 a 5.14 5.14 0 0 1 -1.12 0.93 a 5.8 5.8 0 0 1 -1.47 0.65 a 6.11 6.11 0 0 1 -1.75 0.25 a 6.77 6.77 0 0 1 -2.59 -0.46 a 4.85 4.85 0 0 1 -1.81 -1.27 a 5.11 5.11 0 0 1 -1.05 -2 a 8.77 8.77 0 0 1 -0.35 -2.52 v -9.41 h 2.54 v 9.15 a 4.85 4.85 0 0 0 0.85 3 a 3.12 3.12 0 0 0 2.64 1.1 a 5 5 0 0 0 2.13 -0.42 a 3.73 3.73 0 0 0 1.46 -1.21 a 5.43 5.43 0 0 0 0.85 -1.85 a 9.79 9.79 0 0 0 0.27 -2.38 v -7.42 h 2.54 Z" stroke-linecap="round" />
</g>
		<g transform="matrix(1 0 0 1 14.35 76.92)"  >
<path style="stroke: none; stroke-width: 1; stroke-dasharray: none; stroke-linecap: butt; stroke-dashoffset: 0; stroke-linejoin: miter; stroke-miterlimit: 4; fill: rgb(35,31,32); fill-rule: nonzero; opacity: 1;"  transform=" translate(-304.5, -367.8)" d="M 309.64 364.29 h -4.49 v 7.62 q 0 0.75 0 1.38 a 2.92 2.92 0 0 0 0.26 1.11 a 1.78 1.78 0 0 0 0.69 0.75 a 2.54 2.54 0 0 0 1.3 0.27 a 5 5 0 0 0 1.14 -0.13 a 4.11 4.11 0 0 0 1.1 -0.39 l 0.1 2.31 a 5.71 5.71 0 0 1 -1.45 0.43 a 10.16 10.16 0 0 1 -1.51 0.13 a 5.47 5.47 0 0 1 -2.18 -0.36 a 3 3 0 0 1 -1.27 -1 a 3.86 3.86 0 0 1 -0.6 -1.61 a 13.86 13.86 0 0 1 -0.15 -2.13 v -8.37 h -3.32 v -2.15 h 3.32 v -4.33 h 2.54 v 4.33 h 4.49 Z" stroke-linecap="round" />
</g>
		<g transform="matrix(1 0 0 1 26.75 78.68)"  >
<path style="stroke: none; stroke-width: 1; stroke-dasharray: none; stroke-linecap: butt; stroke-dashoffset: 0; stroke-linejoin: miter; stroke-miterlimit: 4; fill: rgb(35,31,32); fill-rule: nonzero; opacity: 1;"  transform=" translate(-316.91, -369.56)" d="M 312.77 365.76 c 0 -0.7 0 -1.35 -0.07 -2 s -0.06 -1.16 -0.06 -1.66 H 315 c 0 0.42 0 0.83 0 1.24 s 0 0.84 0 1.27 h 0.06 a 4.29 4.29 0 0 1 0.74 -1.07 a 4.91 4.91 0 0 1 1.12 -0.93 a 6.1 6.1 0 0 1 3.22 -0.9 a 3 3 0 0 1 0.52 0 a 1.89 1.89 0 0 1 0.52 0.13 l -0.16 2.57 a 4.73 4.73 0 0 0 -1.37 -0.2 a 3.88 3.88 0 0 0 -3.4 1.51 A 7.2 7.2 0 0 0 315.3 370 v 7.43 h -2.53 Z" stroke-linecap="round" />
</g>
		<g transform="matrix(1 0 0 1 35.56 74.97)"  >
<path style="stroke: none; stroke-width: 1; stroke-dasharray: none; stroke-linecap: butt; stroke-dashoffset: 0; stroke-linejoin: miter; stroke-miterlimit: 4; fill: rgb(35,31,32); fill-rule: nonzero; opacity: 1;"  transform=" translate(-325.71, -365.85)" d="M 323.86 356.19 a 1.85 1.85 0 0 1 3.18 -1.3 a 1.81 1.81 0 0 1 0.53 1.3 a 1.78 1.78 0 0 1 -1.85 1.85 a 1.78 1.78 0 0 1 -1.86 -1.85 Z m 0.59 5.95 H 327 v 15.24 h -2.54 Z" stroke-linecap="round" />
</g>
		<g transform="matrix(1 0 0 1 48.51 78.87)"  >
<path style="stroke: none; stroke-width: 1; stroke-dasharray: none; stroke-linecap: butt; stroke-dashoffset: 0; stroke-linejoin: miter; stroke-miterlimit: 4; fill: rgb(35,31,32); fill-rule: nonzero; opacity: 1;"  transform=" translate(-338.67, -369.76)" d="M 345.64 374.61 a 7.75 7.75 0 0 1 -3 2.46 a 9.57 9.57 0 0 1 -3.77 0.7 a 7.87 7.87 0 0 1 -3.22 -0.64 a 7.12 7.12 0 0 1 -2.43 -1.71 a 7.47 7.47 0 0 1 -1.53 -2.54 a 8.9 8.9 0 0 1 -0.54 -3.12 a 8.76 8.76 0 0 1 0.59 -3.24 a 7.44 7.44 0 0 1 1.63 -2.54 a 7.36 7.36 0 0 1 2.47 -1.64 a 8.18 8.18 0 0 1 3.12 -0.59 a 7.72 7.72 0 0 1 2.93 0.54 a 6.43 6.43 0 0 1 2.3 1.56 a 7.11 7.11 0 0 1 1.48 2.51 a 10.06 10.06 0 0 1 0.52 3.37 v 0.81 h -12.3 a 5.26 5.26 0 0 0 0.47 1.87 a 5.19 5.19 0 0 0 1.06 1.56 A 4.72 4.72 0 0 0 337 375 a 4.64 4.64 0 0 0 1.92 0.39 a 6.1 6.1 0 0 0 2.8 -0.58 a 6.38 6.38 0 0 0 2.05 -1.73 Z m -2.18 -6.22 a 4.41 4.41 0 0 0 -1.27 -3.12 a 4.58 4.58 0 0 0 -3.32 -1.17 a 4.93 4.93 0 0 0 -3.42 1.17 a 4.88 4.88 0 0 0 -1.56 3.12 Z" stroke-linecap="round" />
</g>
		<g transform="matrix(1 0 0 1 66.52 78.67)"  >
<path style="stroke: none; stroke-width: 1; stroke-dasharray: none; stroke-linecap: butt; stroke-dashoffset: 0; stroke-linejoin: miter; stroke-miterlimit: 4; fill: rgb(35,31,32); fill-rule: nonzero; opacity: 1;"  transform=" translate(-356.67, -369.55)" d="M 350.13 365.76 c 0 -0.7 0 -1.35 -0.07 -2 s -0.06 -1.16 -0.06 -1.66 h 2.41 c 0 0.42 0 0.83 0 1.24 s 0 0.84 0 1.27 h 0.07 a 4 4 0 0 1 0.73 -1.07 a 5.14 5.14 0 0 1 1.12 -0.93 a 6 6 0 0 1 1.47 -0.65 a 5.78 5.78 0 0 1 1.75 -0.25 a 6.59 6.59 0 0 1 2.59 0.46 a 4.85 4.85 0 0 1 1.81 1.27 a 5.13 5.13 0 0 1 1.06 2 a 9.14 9.14 0 0 1 0.34 2.52 v 9.41 h -2.54 v -9.15 a 4.85 4.85 0 0 0 -0.85 -3 a 3.08 3.08 0 0 0 -2.63 -1.1 a 5 5 0 0 0 -2.14 0.42 a 3.79 3.79 0 0 0 -1.46 1.2 a 5.49 5.49 0 0 0 -0.85 1.86 a 9.71 9.71 0 0 0 -0.27 2.37 v 7.43 h -2.54 Z" stroke-linecap="round" />
</g>
		<g transform="matrix(1 0 0 1 81.27 76.92)"  >
<path style="stroke: none; stroke-width: 1; stroke-dasharray: none; stroke-linecap: butt; stroke-dashoffset: 0; stroke-linejoin: miter; stroke-miterlimit: 4; fill: rgb(35,31,32); fill-rule: nonzero; opacity: 1;"  transform=" translate(-371.42, -367.8)" d="M 376.56 364.29 h -4.49 v 7.62 q 0 0.75 0 1.38 a 2.92 2.92 0 0 0 0.26 1.11 a 1.82 1.82 0 0 0 0.68 0.75 a 2.6 2.6 0 0 0 1.3 0.27 a 5 5 0 0 0 1.14 -0.13 a 4.31 4.31 0 0 0 1.11 -0.39 l 0.1 2.31 a 5.84 5.84 0 0 1 -1.45 0.43 a 10.27 10.27 0 0 1 -1.51 0.13 a 5.52 5.52 0 0 1 -2.19 -0.36 a 3 3 0 0 1 -1.26 -1 a 3.74 3.74 0 0 1 -0.61 -1.61 a 15.33 15.33 0 0 1 -0.14 -2.13 v -8.37 h -3.32 v -2.15 h 3.32 v -4.33 h 2.54 v 4.33 h 4.49 Z" stroke-linecap="round" />
</g>
		<g transform="matrix(1 0 0 1 91.64 84.73)"  >
<path style="stroke: none; stroke-width: 1; stroke-dasharray: none; stroke-linecap: butt; stroke-dashoffset: 0; stroke-linejoin: miter; stroke-miterlimit: 4; fill: rgb(35,31,32); fill-rule: nonzero; opacity: 1;"  transform=" translate(-381.79, -375.62)" d="M 381.8 373.67 a 1.87 1.87 0 0 1 1.38 0.56 a 1.9 1.9 0 0 1 0.57 1.39 a 1.83 1.83 0 0 1 -0.6 1.38 a 1.88 1.88 0 0 1 -2.7 0 a 1.81 1.81 0 0 1 -0.61 -1.38 a 1.9 1.9 0 0 1 0.57 -1.39 A 1.88 1.88 0 0 1 381.8 373.67 Z" stroke-linecap="round" />
</g>
		<g transform="matrix(1 0 0 1 102.88 78.88)"  >
<path style="stroke: none; stroke-width: 1; stroke-dasharray: none; stroke-linecap: butt; stroke-dashoffset: 0; stroke-linejoin: miter; stroke-miterlimit: 4; fill: rgb(35,31,32); fill-rule: nonzero; opacity: 1;"  transform=" translate(-393.04, -369.77)" d="M 389.05 373.37 a 6.42 6.42 0 0 0 1.65 1.5 a 4.2 4.2 0 0 0 2.26 0.55 a 5.42 5.42 0 0 0 1.19 -0.13 a 3.58 3.58 0 0 0 1.09 -0.42 a 2.6 2.6 0 0 0 0.78 -0.73 a 1.93 1.93 0 0 0 0.29 -1.06 a 1.75 1.75 0 0 0 -0.27 -1 a 2.53 2.53 0 0 0 -0.74 -0.67 a 4.28 4.28 0 0 0 -1 -0.44 l -1.2 -0.29 c -0.72 -0.15 -1.4 -0.33 -2.05 -0.52 a 6.72 6.72 0 0 1 -1.71 -0.77 a 3.5 3.5 0 0 1 -1.17 -1.22 a 3.64 3.64 0 0 1 -0.44 -1.92 a 3.82 3.82 0 0 1 0.49 -1.95 a 4.14 4.14 0 0 1 1.3 -1.4 a 6.19 6.19 0 0 1 1.82 -0.84 a 7.27 7.27 0 0 1 2.08 -0.3 a 7 7 0 0 1 3 0.65 a 4.68 4.68 0 0 1 2.17 2.12 l -2.12 1.4 a 3.94 3.94 0 0 0 -1.28 -1.32 a 3.55 3.55 0 0 0 -1.94 -0.5 a 4.33 4.33 0 0 0 -1.06 0.13 a 2.94 2.94 0 0 0 -1 0.39 a 2.32 2.32 0 0 0 -0.7 0.66 a 1.66 1.66 0 0 0 -0.27 0.93 a 1.17 1.17 0 0 0 0.31 0.83 a 2.52 2.52 0 0 0 0.84 0.6 a 6.85 6.85 0 0 0 1.24 0.46 a 12.8 12.8 0 0 0 1.45 0.32 a 14.2 14.2 0 0 1 1.92 0.51 a 5.57 5.57 0 0 1 1.59 0.83 a 3.68 3.68 0 0 1 1.08 1.3 a 4.27 4.27 0 0 1 0.39 1.92 a 4.43 4.43 0 0 1 -0.52 2.21 a 4.2 4.2 0 0 1 -1.39 1.48 a 5.9 5.9 0 0 1 -1.95 0.83 a 9.26 9.26 0 0 1 -2.23 0.27 a 8.63 8.63 0 0 1 -3.37 -0.61 a 6.09 6.09 0 0 1 -2.55 -2.23 Z" stroke-linecap="round" />
</g>
		<g transform="matrix(1 0 0 1 119.14 79.03)"  >
<path style="stroke: none; stroke-width: 1; stroke-dasharray: none; stroke-linecap: butt; stroke-dashoffset: 0; stroke-linejoin: miter; stroke-miterlimit: 4; fill: rgb(35,31,32); fill-rule: nonzero; opacity: 1;"  transform=" translate(-409.3, -369.91)" d="M 415.87 373.76 c 0 0.7 0 1.35 0.07 1.95 s 0.06 1.17 0.06 1.67 h -2.41 c 0 -0.42 0 -0.83 0 -1.24 s 0 -0.84 0 -1.27 h -0.07 a 4 4 0 0 1 -0.73 1.07 a 5.14 5.14 0 0 1 -1.12 0.93 a 6 6 0 0 1 -1.47 0.65 a 6.11 6.11 0 0 1 -1.75 0.25 a 6.77 6.77 0 0 1 -2.59 -0.46 A 4.85 4.85 0 0 1 404 376 a 5.13 5.13 0 0 1 -1.06 -2 a 9.14 9.14 0 0 1 -0.34 -2.52 v -9.41 h 2.54 v 9.15 a 4.85 4.85 0 0 0 0.85 3 a 3.11 3.11 0 0 0 2.63 1.1 a 5 5 0 0 0 2.14 -0.42 a 3.73 3.73 0 0 0 1.46 -1.21 a 5.43 5.43 0 0 0 0.85 -1.85 a 9.79 9.79 0 0 0 0.27 -2.38 v -7.42 h 2.54 Z" stroke-linecap="round" />
</g>
		<g transform="matrix(1 0 0 1 138.39 82.39)"  >
<path style="stroke: none; stroke-width: 1; stroke-dasharray: none; stroke-linecap: butt; stroke-dashoffset: 0; stroke-linejoin: miter; stroke-miterlimit: 4; fill: rgb(35,31,32); fill-rule: nonzero; opacity: 1;"  transform=" translate(-428.55, -373.27)" d="M 420.56 362.14 h 2.54 v 2.22 h 0.06 a 7.34 7.34 0 0 1 2.43 -1.92 a 6.69 6.69 0 0 1 3 -0.69 a 8.65 8.65 0 0 1 3.27 0.6 a 7.28 7.28 0 0 1 2.52 1.68 a 7.64 7.64 0 0 1 1.63 2.54 a 8.92 8.92 0 0 1 0 6.38 a 8 8 0 0 1 -1.61 2.54 a 7.27 7.27 0 0 1 -2.43 1.67 a 7.5 7.5 0 0 1 -3 0.61 a 7 7 0 0 1 -3.6 -0.9 a 5.84 5.84 0 0 1 -2.26 -2.2 h -0.06 V 384.8 h -2.54 Z m 2.54 7.62 a 6.48 6.48 0 0 0 0.37 2.23 a 5.12 5.12 0 0 0 2.8 3 a 5.87 5.87 0 0 0 4.46 0 a 5.12 5.12 0 0 0 2.8 -3 a 6.91 6.91 0 0 0 0 -4.46 a 5.12 5.12 0 0 0 -2.8 -3 a 5.87 5.87 0 0 0 -4.46 0 a 5.12 5.12 0 0 0 -2.8 3 A 6.44 6.44 0 0 0 423.1 369.76 Z" stroke-linecap="round" />
</g>
		<g transform="matrix(1 0 0 1 158.31 82.39)"  >
<path style="stroke: none; stroke-width: 1; stroke-dasharray: none; stroke-linecap: butt; stroke-dashoffset: 0; stroke-linejoin: miter; stroke-miterlimit: 4; fill: rgb(35,31,32); fill-rule: nonzero; opacity: 1;"  transform=" translate(-448.47, -373.27)" d="M 440.44 362.14 H 443 v 2.22 h 0.07 a 7.3 7.3 0 0 1 2.42 -1.92 a 6.73 6.73 0 0 1 3 -0.69 a 8.65 8.65 0 0 1 3.27 0.6 a 7.47 7.47 0 0 1 2.52 1.68 a 7.8 7.8 0 0 1 1.63 2.54 a 9.06 9.06 0 0 1 0 6.38 a 8 8 0 0 1 -1.61 2.54 a 7.53 7.53 0 0 1 -5.42 2.28 a 7 7 0 0 1 -3.6 -0.9 a 5.84 5.84 0 0 1 -2.26 -2.2 H 443 V 384.8 h -2.54 Z m 2.54 7.62 a 6.49 6.49 0 0 0 0.38 2.23 a 5.19 5.19 0 0 0 1.09 1.79 a 5 5 0 0 0 1.71 1.2 a 5.32 5.32 0 0 0 2.23 0.44 a 5.38 5.38 0 0 0 2.23 -0.44 a 5 5 0 0 0 1.7 -1.2 a 5.19 5.19 0 0 0 1.09 -1.79 a 6.73 6.73 0 0 0 0 -4.46 a 5.19 5.19 0 0 0 -1.09 -1.79 a 5 5 0 0 0 -1.7 -1.2 a 5.38 5.38 0 0 0 -2.23 -0.44 a 5.32 5.32 0 0 0 -2.23 0.44 a 5 5 0 0 0 -1.71 1.2 a 5.19 5.19 0 0 0 -1.09 1.79 A 6.44 6.44 0 0 0 443 369.76 Z" stroke-linecap="round" />
</g>
		<g transform="matrix(1 0 0 1 177.56 78.87)"  >
<path style="stroke: none; stroke-width: 1; stroke-dasharray: none; stroke-linecap: butt; stroke-dashoffset: 0; stroke-linejoin: miter; stroke-miterlimit: 4; fill: rgb(35,31,32); fill-rule: nonzero; opacity: 1;"  transform=" translate(-467.72, -369.76)" d="M 459.58 369.76 a 8.38 8.38 0 0 1 0.62 -3.26 a 7.86 7.86 0 0 1 1.69 -2.52 a 7.6 7.6 0 0 1 2.57 -1.64 a 9.27 9.27 0 0 1 6.51 0 a 7.5 7.5 0 0 1 2.57 1.64 a 7.89 7.89 0 0 1 1.7 2.52 a 8.38 8.38 0 0 1 0.61 3.26 a 8.29 8.29 0 0 1 -0.61 3.25 a 7.82 7.82 0 0 1 -1.7 2.53 a 7.5 7.5 0 0 1 -2.57 1.64 a 9.27 9.27 0 0 1 -6.51 0 a 7.6 7.6 0 0 1 -2.57 -1.64 A 7.8 7.8 0 0 1 460.2 373 A 8.29 8.29 0 0 1 459.58 369.76 Z m 2.74 0 a 6.48 6.48 0 0 0 0.37 2.23 a 5.12 5.12 0 0 0 2.8 3 a 5.87 5.87 0 0 0 4.46 0 a 5.18 5.18 0 0 0 1.71 -1.2 a 5.35 5.35 0 0 0 1.09 -1.79 a 6.91 6.91 0 0 0 0 -4.46 a 5.35 5.35 0 0 0 -1.09 -1.79 a 5.18 5.18 0 0 0 -1.71 -1.2 a 5.87 5.87 0 0 0 -4.46 0 a 5.12 5.12 0 0 0 -2.8 3 A 6.44 6.44 0 0 0 462.32 369.76 Z" stroke-linecap="round" />
</g>
		<g transform="matrix(1 0 0 1 193.8 78.61)"  >
<path style="stroke: none; stroke-width: 1; stroke-dasharray: none; stroke-linecap: butt; stroke-dashoffset: 0; stroke-linejoin: miter; stroke-miterlimit: 4; fill: rgb(35,31,32); fill-rule: nonzero; opacity: 1;"  transform=" translate(-483.96, -369.5)" d="M 479.79 365.76 c 0 -0.7 0 -1.35 -0.06 -2 s -0.07 -1.16 -0.07 -1.66 h 2.41 c 0 0.42 0 0.83 0 1.24 s 0 0.84 0 1.27 h 0.06 a 4.24 4.24 0 0 1 0.73 -1.07 a 5.2 5.2 0 0 1 1.13 -0.93 a 6.1 6.1 0 0 1 3.22 -0.9 a 3.12 3.12 0 0 1 0.52 0 a 2 2 0 0 1 0.52 0.13 l -0.16 2.57 a 4.78 4.78 0 0 0 -1.37 -0.2 a 3.87 3.87 0 0 0 -3.4 1.51 a 7.12 7.12 0 0 0 -1.06 4.15 v 7.43 h -2.54 Z" stroke-linecap="round" />
</g>
		<g transform="matrix(1 0 0 1 204.29 76.92)"  >
<path style="stroke: none; stroke-width: 1; stroke-dasharray: none; stroke-linecap: butt; stroke-dashoffset: 0; stroke-linejoin: miter; stroke-miterlimit: 4; fill: rgb(35,31,32); fill-rule: nonzero; opacity: 1;"  transform=" translate(-494.44, -367.8)" d="M 499.58 364.29 h -4.49 v 7.62 q 0 0.75 0 1.38 a 2.92 2.92 0 0 0 0.26 1.11 a 1.78 1.78 0 0 0 0.69 0.75 a 2.54 2.54 0 0 0 1.3 0.27 a 5 5 0 0 0 1.14 -0.13 a 4.11 4.11 0 0 0 1.1 -0.39 l 0.1 2.31 a 5.71 5.71 0 0 1 -1.45 0.43 a 10.16 10.16 0 0 1 -1.51 0.13 a 5.47 5.47 0 0 1 -2.18 -0.36 a 3 3 0 0 1 -1.27 -1 a 3.61 3.61 0 0 1 -0.6 -1.61 a 13.86 13.86 0 0 1 -0.15 -2.13 v -8.37 h -3.32 v -2.15 h 3.32 v -4.33 h 2.54 v 4.33 h 4.49 Z" stroke-linecap="round" />
</g>
		<g transform="matrix(1 0 0 1 -289.16 -295.9)" style=""  >
		<text xml:space="preserve" font-family="Times New Roman" font-size="16" font-style="normal" font-weight="normal" style="stroke: none; stroke-width: 1; stroke-dasharray: none; stroke-linecap: butt; stroke-dashoffset: 0; stroke-linejoin: miter; stroke-miterlimit: 4; fill: rgb(0,0,0); fill-rule: nonzero; opacity: 1; white-space: pre;" ></text>
</g>
		<g transform="matrix(1 0 0 1 -289.16 -295.9)" style=""  >
		<text xml:space="preserve" font-family="Times New Roman" font-size="16" font-style="normal" font-weight="normal" style="stroke: none; stroke-width: 1; stroke-dasharray: none; stroke-linecap: butt; stroke-dashoffset: 0; stroke-linejoin: miter; stroke-miterlimit: 4; fill: rgb(0,0,0); fill-rule: nonzero; opacity: 0.27; white-space: pre;" ></text>
</g>
		<g transform="matrix(1 0 0 1 -87.88 -207.88)"  >
<path style="stroke: rgb(35,31,32); stroke-width: 1; stroke-dasharray: none; stroke-linecap: butt; stroke-dashoffset: 0; stroke-linejoin: miter; stroke-miterlimit: 10; fill: rgb(35,31,32); fill-rule: nonzero; opacity: 1;"  transform=" translate(-202.28, -83)" d="M 202.28 83" stroke-linecap="round" />
</g>
		<g transform="matrix(1 0 0 1 87.78 -190.02)"  >
<path style="stroke: rgb(35,31,32); stroke-width: 0.5; stroke-dasharray: none; stroke-linecap: butt; stroke-dashoffset: 0; stroke-linejoin: miter; stroke-miterlimit: 10; fill: rgb(180,195,181); fill-rule: nonzero; opacity: 1;"  transform=" translate(-377.93, -100.86)" d="M 367 88.32 c -0.68 0.33 0.6 3.36 1.72 9.54 c 0.75 4.11 0.62 5.18 1.57 8.45 c 1.29 4.46 2.48 5.72 3.59 6.41 a 7.19 7.19 0 0 0 4.07 0.94 a 8.1 8.1 0 0 0 5.05 -1.73 c 1 -0.87 1.71 -2 2.69 -6 c 0.91 -3.73 1.05 -5.7 1.59 -9 c 1.06 -6.36 2.15 -8.61 1.64 -8.87 s -2.92 2.19 -10.83 15.2 c -1.18 -1.81 -2.12 -3.27 -2.73 -4.23 a 79.59 79.59 0 0 0 -5.24 -7.67 C 368.52 89.39 367.49 88.1 367 88.32 Z" stroke-linecap="round" />
</g>
		<g transform="matrix(1 0 0 1 76.84 -202.81)"  >
<path style="stroke: rgb(35,31,32); stroke-width: 0.5; stroke-dasharray: none; stroke-linecap: butt; stroke-dashoffset: 0; stroke-linejoin: miter; stroke-miterlimit: 10; fill: rgb(255,213,127); fill-rule: nonzero; opacity: 1;"  transform=" translate(-367, -88.07)" d="M 367 88.07" stroke-linecap="round" />
</g>
		<g transform="matrix(1 0 0 1 87.86 -200.8)"  >
<path style="stroke: rgb(35,31,32); stroke-width: 0.5; stroke-dasharray: none; stroke-linecap: butt; stroke-dashoffset: 0; stroke-linejoin: miter; stroke-miterlimit: 10; fill: rgb(180,195,181); fill-rule: nonzero; opacity: 1;"  transform=" translate(-378.02, -90.08)" d="M 371.2 92.78 l 6.9 10.51 l 6.68 -10.51 a 21.49 21.49 0 0 0 0 -3.11 c -0.16 -2.29 -0.48 -7 -3.55 -10.62 c -0.88 -1 -1.86 -2.18 -3.23 -2.18 c -0.34 0 -1.66 0 -3.36 2.32 a 19 19 0 0 0 -3.44 10.24 Z" stroke-linecap="round" />
</g>
		<g transform="matrix(1 0 0 1 87.92 -168.28)"  >
<path style="stroke: rgb(35,31,32); stroke-width: 0.5; stroke-dasharray: none; stroke-linecap: butt; stroke-dashoffset: 0; stroke-linejoin: miter; stroke-miterlimit: 10; fill: rgb(180,195,181); fill-rule: nonzero; opacity: 1;"  transform=" translate(-378.08, -122.6)" d="M 376.71 113.67 h 2.67 v 11.78 a 13.15 13.15 0 0 1 1.14 -3.27 c 2.34 -3.11 5.3 -4.4 8.11 -5.66 s 6.24 -2.83 11.11 -5.15 a 1.16 1.16 0 0 1 0.72 0 a 1.53 1.53 0 0 1 0.93 1.3 a 1.88 1.88 0 0 1 -0.1 0.86 a 6.38 6.38 0 0 1 -1.34 2.24 c -2.6 4.12 -4.48 7.14 -5.51 8.9 a 21.36 21.36 0 0 1 -1.7 2.49 a 18.79 18.79 0 0 1 -1.91 2.09 a 17.28 17.28 0 0 1 -4.36 2.88 a 19.06 19.06 0 0 1 -7.43 1.73 a 18.66 18.66 0 0 1 -7.43 -0.86 a 17.85 17.85 0 0 1 -6.67 -4.11 a 30 30 0 0 1 -2.23 -2.78 c -0.79 -1.11 -0.9 -1.43 -2.16 -3.49 c -1.69 -2.75 -1.71 -2.52 -2.82 -4.44 c -0.54 -1 -0.95 -1.71 -1.87 -3.24 c -0.4 -0.67 -0.74 -1.22 -1 -1.59 a 1.5 1.5 0 0 1 1.23 -2.06 a 1.73 1.73 0 0 1 1.19 0.29 l 5.08 2.46 c 3.74 1.79 5.6 2.68 6.1 2.88 a 18.28 18.28 0 0 1 1.73 0.79 a 15.91 15.91 0 0 1 1.62 1 c 0.4 0.27 0.67 0.48 1.12 0.83 a 16.38 16.38 0 0 1 1.48 1.22 a 13.06 13.06 0 0 1 1.36 1.86 c 0.3 0.51 0.79 2.41 1.08 3.1 Z" stroke-linecap="round" />
</g>
		<g transform="matrix(1 0 0 1 12.6 209.37)"  >
<path style="stroke: none; stroke-width: 1; stroke-dasharray: none; stroke-linecap: butt; stroke-dashoffset: 0; stroke-linejoin: miter; stroke-miterlimit: 4; fill: rgb(35,31,32); fill-rule: nonzero; opacity: 1;"  transform=" translate(-302.76, -500.25)" d="M 262.66 465 h 23.88 l 15.81 22.36 h 0.81 L 319 465 h 23.87 v 70.5 H 319.27 V 498.6 h -0.6 L 303.16 519 h -0.81 L 286.84 498.6 h -0.61 v 36.86 H 262.66 Z" stroke-linecap="round" />
</g>
		<g transform="matrix(1 0 0 1 96.31 209.37)"  >
<path style="stroke: none; stroke-width: 1; stroke-dasharray: none; stroke-linecap: butt; stroke-dashoffset: 0; stroke-linejoin: miter; stroke-miterlimit: 4; fill: rgb(35,31,32); fill-rule: nonzero; opacity: 1;"  transform=" translate(-386.46, -500.25)" d="M 399.14 528.31 H 373.76 l -1.92 7.15 H 347.37 L 367.92 465 H 405 l 20.55 70.5 H 401.05 Z m -5 -18.83 l -6.85 -25.89 h -1.61 l -6.85 25.89 Z" stroke-linecap="round" />
</g>
		<g transform="matrix(1 0 0 1 176.81 209.36)"  >
<path style="stroke: none; stroke-width: 1; stroke-dasharray: none; stroke-linecap: butt; stroke-dashoffset: 0; stroke-linejoin: miter; stroke-miterlimit: 4; fill: rgb(35,31,32); fill-rule: nonzero; opacity: 1;"  transform=" translate(-466.97, -500.24)" d="M 502.88 487.32 c 0 12.39 -11.38 22.16 -24 22.16 H 454.63 v 26 H 431.06 V 465 h 48.86 C 494.22 465 502.88 473.22 502.88 487.32 Z m -23.57 -0.2 c 0 -2.42 -1.61 -3.53 -3.83 -3.53 H 454.63 v 7.25 h 20.85 A 3.62 3.62 0 0 0 479.31 487.12 Z" stroke-linecap="round" />
</g>
		<g transform="matrix(1 0 0 1 249.31 209.33)"  >
<path style="stroke: none; stroke-width: 1; stroke-dasharray: none; stroke-linecap: butt; stroke-dashoffset: 0; stroke-linejoin: miter; stroke-miterlimit: 4; fill: rgb(35,31,32); fill-rule: nonzero; opacity: 1;"  transform=" translate(-539.47, -500.21)" d="M 507.71 516.83 h 36.77 c 3.12 0 4.63 -1.41 4.63 -3.73 s -1.51 -3.62 -4.73 -3.62 H 527.65 c -11.78 0 -21.35 -8.06 -21.35 -22.26 c 0 -16.32 11.18 -22.26 22.46 -22.26 h 41.7 v 18.63 h -36 c -2.72 0 -4.63 1 -4.63 3.53 s 1.91 3.72 4.63 3.72 h 15.72 c 13.49 0 22.46 8 22.46 22.16 c 0 13.4 -10.07 22.46 -23.17 22.46 h -42.1 Z" stroke-linecap="round" />
</g>
		<g transform="matrix(1 0 0 1 -17.99 264)"  >
<path style="stroke: none; stroke-width: 1; stroke-dasharray: none; stroke-linecap: butt; stroke-dashoffset: 0; stroke-linejoin: miter; stroke-miterlimit: 4; fill: rgb(35,31,32); fill-rule: nonzero; opacity: 1;"  transform=" translate(-272.17, -554.88)" d="M 277.39 560.88 h -2 l -3.4 -9.2 h 0 l -3 9.2 h -2 l -3.89 -12 h 2.2 l 2.74 9.2 H 268 l 3.09 -9.2 h 2.1 l 3.14 9.2 h 0.05 l 2.71 -9.2 h 2.15 Z" stroke-linecap="round" />
</g>
		<g transform="matrix(1 0 0 1 0.98 264)"  >
<path style="stroke: none; stroke-width: 1; stroke-dasharray: none; stroke-linecap: butt; stroke-dashoffset: 0; stroke-linejoin: miter; stroke-miterlimit: 4; fill: rgb(35,31,32); fill-rule: nonzero; opacity: 1;"  transform=" translate(-291.14, -554.88)" d="M 296.33 560.88 h -2 l -3.4 -9.2 h 0 l -3 9.2 h -2 l -3.89 -12 h 2.2 l 2.74 9.2 H 287 l 3.09 -9.2 h 2.1 l 3.14 9.2 h 0.05 l 2.71 -9.2 h 2.15 Z" stroke-linecap="round" />
</g>
		<g transform="matrix(1 0 0 1 19.91 264)"  >
<path style="stroke: none; stroke-width: 1; stroke-dasharray: none; stroke-linecap: butt; stroke-dashoffset: 0; stroke-linejoin: miter; stroke-miterlimit: 4; fill: rgb(35,31,32); fill-rule: nonzero; opacity: 1;"  transform=" translate(-310.07, -554.88)" d="M 315.27 560.88 h -2 l -3.4 -9.2 h 0 l -3 9.2 h -2 l -3.89 -12 h 2.2 l 2.74 9.2 h 0.05 l 3.09 -9.2 h 2.1 l 3.14 9.2 h 0 l 2.71 -9.2 h 2.15 Z" stroke-linecap="round" />
</g>
		<g transform="matrix(1 0 0 1 31.48 268.65)"  >
<path style="stroke: none; stroke-width: 1; stroke-dasharray: none; stroke-linecap: butt; stroke-dashoffset: 0; stroke-linejoin: miter; stroke-miterlimit: 4; fill: rgb(35,31,32); fill-rule: nonzero; opacity: 1;"  transform=" translate(-321.63, -559.53)" d="M 321.63 558 a 1.54 1.54 0 0 1 1.54 1.54 a 1.41 1.41 0 0 1 -0.48 1.08 a 1.49 1.49 0 0 1 -1.06 0.45 a 1.51 1.51 0 0 1 -1.06 -0.45 a 1.44 1.44 0 0 1 -0.47 -1.08 a 1.48 1.48 0 0 1 0.45 -1.09 A 1.46 1.46 0 0 1 321.63 558 Z" stroke-linecap="round" />
</g>
		<g transform="matrix(1 0 0 1 45.9 263.95)"  >
<path style="stroke: none; stroke-width: 1; stroke-dasharray: none; stroke-linecap: butt; stroke-dashoffset: 0; stroke-linejoin: miter; stroke-miterlimit: 4; fill: rgb(35,31,32); fill-rule: nonzero; opacity: 1;"  transform=" translate(-336.06, -554.84)" d="M 327.08 551.75 q 0 -0.81 -0.06 -1.53 c 0 -0.48 0 -0.91 0 -1.3 h 1.9 c 0 0.32 0 0.64 0 1 s 0 0.65 0 1 H 329 a 3.29 3.29 0 0 1 0.57 -0.84 a 4.56 4.56 0 0 1 0.88 -0.73 a 5 5 0 0 1 1.15 -0.51 a 5.39 5.39 0 0 1 3 0.05 a 3.94 3.94 0 0 1 1.08 0.59 a 2.92 2.92 0 0 1 0.68 0.74 c 0.16 0.27 0.3 0.5 0.4 0.7 a 5.52 5.52 0 0 1 1.53 -1.67 a 3.88 3.88 0 0 1 2.25 -0.6 a 5.86 5.86 0 0 1 2.15 0.35 a 3.36 3.36 0 0 1 1.4 1 a 3.94 3.94 0 0 1 0.77 1.59 a 8.83 8.83 0 0 1 0.23 2.08 v 7.26 h -2 v -7.16 a 6 6 0 0 0 -0.13 -1.2 a 2.93 2.93 0 0 0 -0.46 -1 a 2.46 2.46 0 0 0 -0.9 -0.74 a 3.14 3.14 0 0 0 -1.43 -0.28 a 2.91 2.91 0 0 0 -1.2 0.26 a 3.12 3.12 0 0 0 -1 0.71 a 3.43 3.43 0 0 0 -0.67 1.11 a 4.2 4.2 0 0 0 -0.24 1.45 v 6.9 h -2 v -6.77 a 5.45 5.45 0 0 0 -0.54 -2.83 a 2 2 0 0 0 -1.76 -0.83 a 3.93 3.93 0 0 0 -1.68 0.33 a 3 3 0 0 0 -1.15 1 a 4.08 4.08 0 0 0 -0.66 1.46 a 7.19 7.19 0 0 0 -0.22 1.86 v 5.83 h -2 Z" stroke-linecap="round" />
</g>
		<g transform="matrix(1 0 0 1 59.83 260.98)"  >
<path style="stroke: none; stroke-width: 1; stroke-dasharray: none; stroke-linecap: butt; stroke-dashoffset: 0; stroke-linejoin: miter; stroke-miterlimit: 4; fill: rgb(35,31,32); fill-rule: nonzero; opacity: 1;"  transform=" translate(-349.99, -551.86)" d="M 348.57 544.24 a 1.42 1.42 0 0 1 0.42 -1 a 1.4 1.4 0 0 1 1 -0.44 a 1.38 1.38 0 0 1 1 0.44 a 1.48 1.48 0 0 1 0 2.07 a 1.46 1.46 0 0 1 -1.05 0.41 a 1.42 1.42 0 0 1 -1 -0.41 A 1.44 1.44 0 0 1 348.57 544.24 Z m 0.46 4.68 h 2 v 12 h -2 Z" stroke-linecap="round" />
</g>
		<g transform="matrix(1 0 0 1 69.51 264.11)"  >
<path style="stroke: none; stroke-width: 1; stroke-dasharray: none; stroke-linecap: butt; stroke-dashoffset: 0; stroke-linejoin: miter; stroke-miterlimit: 4; fill: rgb(35,31,32); fill-rule: nonzero; opacity: 1;"  transform=" translate(-359.66, -555)" d="M 363.5 551.91 a 4.12 4.12 0 0 0 -1.38 -1.11 a 3.86 3.86 0 0 0 -1.64 -0.35 a 4.25 4.25 0 0 0 -1.76 0.35 a 3.45 3.45 0 0 0 -1.27 1 a 4.39 4.39 0 0 0 -0.75 1.42 a 5.7 5.7 0 0 0 -0.26 1.73 a 4.86 4.86 0 0 0 0.3 1.72 a 4.61 4.61 0 0 0 0.81 1.42 a 3.75 3.75 0 0 0 1.27 1 a 3.88 3.88 0 0 0 1.66 0.35 a 3.53 3.53 0 0 0 3 -1.49 l 1.49 1.41 a 5.34 5.34 0 0 1 -2.05 1.46 a 7.05 7.05 0 0 1 -5 0 a 5.45 5.45 0 0 1 -1.95 -1.31 a 5.93 5.93 0 0 1 -1.26 -2 a 7.44 7.44 0 0 1 0 -5 a 5.82 5.82 0 0 1 3.22 -3.31 a 6.61 6.61 0 0 1 2.52 -0.47 a 6.83 6.83 0 0 1 2.52 0.46 a 5.47 5.47 0 0 1 2.08 1.43 Z" stroke-linecap="round" />
</g>
		<g transform="matrix(1 0 0 1 80.41 263.87)"  >
<path style="stroke: none; stroke-width: 1; stroke-dasharray: none; stroke-linecap: butt; stroke-dashoffset: 0; stroke-linejoin: miter; stroke-miterlimit: 4; fill: rgb(35,31,32); fill-rule: nonzero; opacity: 1;"  transform=" translate(-370.57, -554.76)" d="M 367.31 551.75 q 0 -0.81 -0.06 -1.53 c 0 -0.48 -0.05 -0.91 -0.05 -1.3 h 1.89 c 0 0.32 0 0.64 0 1 s 0 0.65 0 1 h 0.05 a 3.29 3.29 0 0 1 0.57 -0.84 a 4.56 4.56 0 0 1 0.88 -0.73 a 5 5 0 0 1 1.15 -0.51 a 4.75 4.75 0 0 1 1.38 -0.19 a 2.73 2.73 0 0 1 0.41 0 a 1.45 1.45 0 0 1 0.41 0.1 l -0.13 2 a 3.74 3.74 0 0 0 -1.07 -0.16 a 3 3 0 0 0 -2.67 1.19 a 5.64 5.64 0 0 0 -0.83 3.26 v 5.83 h -2 Z" stroke-linecap="round" />
</g>
		<g transform="matrix(1 0 0 1 91.36 264.01)"  >
<path style="stroke: none; stroke-width: 1; stroke-dasharray: none; stroke-linecap: butt; stroke-dashoffset: 0; stroke-linejoin: miter; stroke-miterlimit: 4; fill: rgb(35,31,32); fill-rule: nonzero; opacity: 1;"  transform=" translate(-381.52, -554.9)" d="M 375.15 554.9 a 6.42 6.42 0 0 1 0.49 -2.56 a 6.16 6.16 0 0 1 1.33 -2 a 5.93 5.93 0 0 1 2 -1.29 a 6.84 6.84 0 0 1 2.55 -0.46 a 6.93 6.93 0 0 1 2.56 0.46 a 6 6 0 0 1 2 1.29 a 6.33 6.33 0 0 1 1.33 2 a 7 7 0 0 1 0 5.11 a 6.1 6.1 0 0 1 -1.33 2 a 5.9 5.9 0 0 1 -2 1.3 a 7.14 7.14 0 0 1 -2.56 0.46 a 7 7 0 0 1 -2.55 -0.46 a 5.81 5.81 0 0 1 -2 -1.3 a 6 6 0 0 1 -1.33 -2 A 6.37 6.37 0 0 1 375.15 554.9 Z m 2.15 0 a 5.22 5.22 0 0 0 0.29 1.75 a 4.17 4.17 0 0 0 0.86 1.4 a 3.89 3.89 0 0 0 1.34 1 a 4.55 4.55 0 0 0 3.5 0 a 3.89 3.89 0 0 0 1.34 -1 a 4 4 0 0 0 0.86 -1.4 a 5.25 5.25 0 0 0 0 -3.5 a 4.05 4.05 0 0 0 -0.86 -1.41 a 4 4 0 0 0 -1.34 -0.94 a 4.55 4.55 0 0 0 -3.5 0 a 4 4 0 0 0 -1.34 0.94 a 4.21 4.21 0 0 0 -0.86 1.41 A 5.18 5.18 0 0 0 377.3 554.9 Z" stroke-linecap="round" />
</g>
		<g transform="matrix(1 0 0 1 105.94 263.91)"  >
<path style="stroke: none; stroke-width: 1; stroke-dasharray: none; stroke-linecap: butt; stroke-dashoffset: 0; stroke-linejoin: miter; stroke-miterlimit: 4; fill: rgb(35,31,32); fill-rule: nonzero; opacity: 1;"  transform=" translate(-396.1, -554.8)" d="M 391 551.75 q 0 -0.81 -0.06 -1.53 c 0 -0.48 -0.05 -0.91 -0.05 -1.3 h 1.89 c 0 0.32 0 0.64 0 1 s 0 0.65 0 1 h 0.05 a 3.29 3.29 0 0 1 0.57 -0.84 a 4.56 4.56 0 0 1 0.88 -0.73 a 5 5 0 0 1 1.15 -0.51 a 4.75 4.75 0 0 1 1.38 -0.19 a 5.24 5.24 0 0 1 2 0.36 a 3.82 3.82 0 0 1 1.41 1 a 4.08 4.08 0 0 1 0.84 1.55 a 7.35 7.35 0 0 1 0.26 2 v 7.39 h -2 V 553.7 a 3.85 3.85 0 0 0 -0.66 -2.38 a 2.46 2.46 0 0 0 -2.07 -0.87 a 3.93 3.93 0 0 0 -1.68 0.33 a 3 3 0 0 0 -1.15 1 a 4.08 4.08 0 0 0 -0.66 1.46 a 7.19 7.19 0 0 0 -0.22 1.86 v 5.83 h -2 Z" stroke-linecap="round" />
</g>
		<g transform="matrix(1 0 0 1 120.36 264.09)"  >
<path style="stroke: none; stroke-width: 1; stroke-dasharray: none; stroke-linecap: butt; stroke-dashoffset: 0; stroke-linejoin: miter; stroke-miterlimit: 4; fill: rgb(35,31,32); fill-rule: nonzero; opacity: 1;"  transform=" translate(-410.52, -554.98)" d="M 415.67 558 c 0 0.55 0 1.06 0.05 1.54 s 0 0.91 0 1.3 h -1.89 c 0 -0.32 0 -0.65 0 -1 s 0 -0.66 0 -1 h -0.05 a 3.12 3.12 0 0 1 -0.57 0.84 a 3.93 3.93 0 0 1 -0.88 0.73 a 4.28 4.28 0 0 1 -1.15 0.51 a 4.75 4.75 0 0 1 -1.38 0.2 a 5.24 5.24 0 0 1 -2 -0.36 a 3.85 3.85 0 0 1 -1.42 -1 a 4.05 4.05 0 0 1 -0.83 -1.55 a 7.24 7.24 0 0 1 -0.26 -2 v -7.38 h 2 v 7.18 a 3.87 3.87 0 0 0 0.66 2.38 a 2.46 2.46 0 0 0 2.07 0.87 a 3.93 3.93 0 0 0 1.68 -0.34 a 2.93 2.93 0 0 0 1.15 -0.94 a 4.16 4.16 0 0 0 0.66 -1.46 a 7.22 7.22 0 0 0 0.22 -1.87 v -5.82 h 2 Z" stroke-linecap="round" />
</g>
		<g transform="matrix(1 0 0 1 131.77 262.49)"  >
<path style="stroke: none; stroke-width: 1; stroke-dasharray: none; stroke-linecap: butt; stroke-dashoffset: 0; stroke-linejoin: miter; stroke-miterlimit: 4; fill: rgb(35,31,32); fill-rule: nonzero; opacity: 1;"  transform=" translate(-421.93, -553.37)" d="M 426 550.6 h -3.53 v 6 c 0 0.4 0 0.76 0 1.09 a 2.32 2.32 0 0 0 0.2 0.87 a 1.4 1.4 0 0 0 0.54 0.59 a 2 2 0 0 0 1 0.22 a 4.1 4.1 0 0 0 0.9 -0.11 a 4.48 4.48 0 0 0 0.87 -0.3 l 0.07 1.81 a 4.81 4.81 0 0 1 -1.13 0.33 a 7.32 7.32 0 0 1 -1.19 0.11 a 4.3 4.3 0 0 1 -1.72 -0.29 a 2.3 2.3 0 0 1 -1 -0.79 a 3 3 0 0 1 -0.48 -1.26 a 12.25 12.25 0 0 1 -0.11 -1.68 V 550.6 h -2.61 v -1.68 h 2.61 v -3.4 h 2 v 3.4 H 426 Z" stroke-linecap="round" />
</g>
		<g transform="matrix(1 0 0 1 141.56 263.87)"  >
<path style="stroke: none; stroke-width: 1; stroke-dasharray: none; stroke-linecap: butt; stroke-dashoffset: 0; stroke-linejoin: miter; stroke-miterlimit: 4; fill: rgb(35,31,32); fill-rule: nonzero; opacity: 1;"  transform=" translate(-431.71, -554.76)" d="M 428.44 551.75 c 0 -0.54 0 -1 -0.05 -1.53 s -0.05 -0.91 -0.05 -1.3 h 1.89 c 0 0.32 0 0.64 0 1 s 0 0.65 0 1 h 0.06 a 3.29 3.29 0 0 1 0.57 -0.84 a 4.56 4.56 0 0 1 0.88 -0.73 a 5 5 0 0 1 1.15 -0.51 a 4.75 4.75 0 0 1 1.38 -0.19 a 2.73 2.73 0 0 1 0.41 0 a 1.53 1.53 0 0 1 0.41 0.1 l -0.13 2 a 3.79 3.79 0 0 0 -1.07 -0.16 a 3 3 0 0 0 -2.67 1.19 a 5.56 5.56 0 0 0 -0.83 3.26 v 5.83 h -2 Z" stroke-linecap="round" />
</g>
		<g transform="matrix(1 0 0 1 148.42 260.98)"  >
<path style="stroke: none; stroke-width: 1; stroke-dasharray: none; stroke-linecap: butt; stroke-dashoffset: 0; stroke-linejoin: miter; stroke-miterlimit: 4; fill: rgb(35,31,32); fill-rule: nonzero; opacity: 1;"  transform=" translate(-438.57, -551.86)" d="M 437.16 544.24 a 1.42 1.42 0 0 1 0.42 -1 a 1.4 1.4 0 0 1 1 -0.44 a 1.38 1.38 0 0 1 1 0.44 a 1.51 1.51 0 0 1 0 2.07 a 1.46 1.46 0 0 1 -1.05 0.41 a 1.42 1.42 0 0 1 -1.05 -0.41 A 1.44 1.44 0 0 1 437.16 544.24 Z m 0.46 4.68 h 2 v 12 h -2 Z" stroke-linecap="round" />
</g>
		<g transform="matrix(1 0 0 1 158.58 264.01)"  >
<path style="stroke: none; stroke-width: 1; stroke-dasharray: none; stroke-linecap: butt; stroke-dashoffset: 0; stroke-linejoin: miter; stroke-miterlimit: 4; fill: rgb(35,31,32); fill-rule: nonzero; opacity: 1;"  transform=" translate(-448.73, -554.9)" d="M 454.26 558.71 a 6.15 6.15 0 0 1 -2.35 1.93 a 7.57 7.57 0 0 1 -3 0.55 a 6.21 6.21 0 0 1 -2.53 -0.5 a 5.83 5.83 0 0 1 -1.9 -1.34 a 5.93 5.93 0 0 1 -1.2 -2 a 7.25 7.25 0 0 1 0 -5 a 6.13 6.13 0 0 1 1.28 -2 a 5.93 5.93 0 0 1 1.95 -1.29 a 6.33 6.33 0 0 1 2.45 -0.46 a 6.15 6.15 0 0 1 2.3 0.42 a 4.9 4.9 0 0 1 1.8 1.23 a 5.5 5.5 0 0 1 1.16 2 a 7.7 7.7 0 0 1 0.41 2.64 v 0.64 H 445 a 4.34 4.34 0 0 0 1.2 2.7 a 3.9 3.9 0 0 0 1.2 0.83 a 3.77 3.77 0 0 0 1.51 0.31 a 4.74 4.74 0 0 0 2.2 -0.47 a 4.85 4.85 0 0 0 1.61 -1.35 Z m -1.71 -4.89 a 3.45 3.45 0 0 0 -1 -2.45 a 3.6 3.6 0 0 0 -2.61 -0.92 a 3.69 3.69 0 0 0 -3.91 3.37 Z" stroke-linecap="round" />
</g>
		<g transform="matrix(1 0 0 1 172.75 263.91)"  >
<path style="stroke: none; stroke-width: 1; stroke-dasharray: none; stroke-linecap: butt; stroke-dashoffset: 0; stroke-linejoin: miter; stroke-miterlimit: 4; fill: rgb(35,31,32); fill-rule: nonzero; opacity: 1;"  transform=" translate(-462.91, -554.8)" d="M 457.79 551.75 q 0 -0.81 -0.06 -1.53 c 0 -0.48 -0.05 -0.91 -0.05 -1.3 h 1.9 c 0 0.32 0 0.64 0 1 s 0 0.65 0 1 h 0.05 a 3.29 3.29 0 0 1 0.57 -0.84 a 4.56 4.56 0 0 1 0.88 -0.73 a 5 5 0 0 1 1.15 -0.51 a 4.77 4.77 0 0 1 1.39 -0.19 a 5.22 5.22 0 0 1 2 0.36 a 3.94 3.94 0 0 1 1.42 1 a 4.2 4.2 0 0 1 0.83 1.55 a 7.35 7.35 0 0 1 0.26 2 v 7.39 h -2 V 553.7 a 3.85 3.85 0 0 0 -0.66 -2.38 a 2.46 2.46 0 0 0 -2.07 -0.87 a 3.93 3.93 0 0 0 -1.68 0.33 a 3 3 0 0 0 -1.15 1 a 4.08 4.08 0 0 0 -0.66 1.46 a 7.19 7.19 0 0 0 -0.22 1.86 v 5.83 h -2 Z" stroke-linecap="round" />
</g>
		<g transform="matrix(1 0 0 1 184.3 262.49)"  >
<path style="stroke: none; stroke-width: 1; stroke-dasharray: none; stroke-linecap: butt; stroke-dashoffset: 0; stroke-linejoin: miter; stroke-miterlimit: 4; fill: rgb(35,31,32); fill-rule: nonzero; opacity: 1;"  transform=" translate(-474.46, -553.37)" d="M 478.54 550.6 H 475 v 6 c 0 0.4 0 0.76 0 1.09 a 2.32 2.32 0 0 0 0.2 0.87 a 1.4 1.4 0 0 0 0.54 0.59 a 2 2 0 0 0 1 0.22 a 4.1 4.1 0 0 0 0.9 -0.11 a 4.48 4.48 0 0 0 0.87 -0.3 l 0.07 1.81 a 4.75 4.75 0 0 1 -1.14 0.33 a 7.1 7.1 0 0 1 -1.18 0.11 a 4.3 4.3 0 0 1 -1.72 -0.29 a 2.3 2.3 0 0 1 -1 -0.79 a 3 3 0 0 1 -0.48 -1.26 a 12.25 12.25 0 0 1 -0.11 -1.68 V 550.6 h -2.61 v -1.68 H 473 v -3.4 h 2 v 3.4 h 3.53 Z" stroke-linecap="round" />
</g>
		<g transform="matrix(1 0 0 1 192.5 268.65)"  >
<path style="stroke: none; stroke-width: 1; stroke-dasharray: none; stroke-linecap: butt; stroke-dashoffset: 0; stroke-linejoin: miter; stroke-miterlimit: 4; fill: rgb(35,31,32); fill-rule: nonzero; opacity: 1;"  transform=" translate(-482.65, -559.53)" d="M 482.66 558 a 1.54 1.54 0 0 1 1.53 1.54 a 1.44 1.44 0 0 1 -0.47 1.08 a 1.49 1.49 0 0 1 -2.13 0 a 1.44 1.44 0 0 1 -0.47 -1.08 a 1.54 1.54 0 0 1 1.54 -1.54 Z" stroke-linecap="round" />
</g>
		<g transform="matrix(1 0 0 1 201.35 264.02)"  >
<path style="stroke: none; stroke-width: 1; stroke-dasharray: none; stroke-linecap: butt; stroke-dashoffset: 0; stroke-linejoin: miter; stroke-miterlimit: 4; fill: rgb(35,31,32); fill-rule: nonzero; opacity: 1;"  transform=" translate(-491.5, -554.91)" d="M 488.36 557.74 a 5 5 0 0 0 1.29 1.17 a 3.29 3.29 0 0 0 1.77 0.44 a 4.38 4.38 0 0 0 0.94 -0.11 a 2.89 2.89 0 0 0 0.85 -0.33 a 1.89 1.89 0 0 0 0.62 -0.57 a 1.5 1.5 0 0 0 0.22 -0.84 a 1.39 1.39 0 0 0 -0.21 -0.79 a 2 2 0 0 0 -0.58 -0.52 a 3.22 3.22 0 0 0 -0.82 -0.35 l -0.94 -0.23 c -0.56 -0.12 -1.1 -0.25 -1.61 -0.4 a 5.34 5.34 0 0 1 -1.34 -0.61 a 2.7 2.7 0 0 1 -0.92 -1 a 3.33 3.33 0 0 1 0 -3 a 3.25 3.25 0 0 1 1 -1.1 a 4.8 4.8 0 0 1 1.43 -0.66 a 5.94 5.94 0 0 1 1.63 -0.23 a 5.51 5.51 0 0 1 2.37 0.51 a 3.73 3.73 0 0 1 1.7 1.66 l -1.66 1.1 a 3.21 3.21 0 0 0 -1 -1 a 2.76 2.76 0 0 0 -1.52 -0.4 a 3.37 3.37 0 0 0 -0.83 0.1 a 2.48 2.48 0 0 0 -0.76 0.31 a 2 2 0 0 0 -0.55 0.52 a 1.32 1.32 0 0 0 -0.21 0.73 a 0.93 0.93 0 0 0 0.24 0.65 a 2.17 2.17 0 0 0 0.66 0.48 a 6.4 6.4 0 0 0 1 0.35 a 10.5 10.5 0 0 0 1.14 0.26 a 10.12 10.12 0 0 1 1.51 0.4 a 4.35 4.35 0 0 1 1.25 0.65 a 2.91 2.91 0 0 1 0.85 1 a 3.48 3.48 0 0 1 -1.19 4.41 a 4.93 4.93 0 0 1 -1.54 0.65 a 7.29 7.29 0 0 1 -1.75 0.21 a 6.62 6.62 0 0 1 -2.64 -0.48 a 4.81 4.81 0 0 1 -2 -1.75 Z" stroke-linecap="round" />
</g>
		<g transform="matrix(1 0 0 1 214.1 264.09)"  >
<path style="stroke: none; stroke-width: 1; stroke-dasharray: none; stroke-linecap: butt; stroke-dashoffset: 0; stroke-linejoin: miter; stroke-miterlimit: 4; fill: rgb(35,31,32); fill-rule: nonzero; opacity: 1;"  transform=" translate(-504.26, -554.98)" d="M 509.42 558 c 0 0.55 0 1.06 0.05 1.54 s 0 0.91 0 1.3 h -1.89 c 0 -0.32 0 -0.65 0 -1 s 0 -0.66 0 -1 h -0.05 a 3.42 3.42 0 0 1 -0.58 0.84 a 3.93 3.93 0 0 1 -0.88 0.73 a 4.28 4.28 0 0 1 -1.15 0.51 a 4.75 4.75 0 0 1 -1.38 0.2 a 5.19 5.19 0 0 1 -2 -0.36 a 3.69 3.69 0 0 1 -1.42 -1 a 3.92 3.92 0 0 1 -0.83 -1.55 a 6.87 6.87 0 0 1 -0.27 -2 v -7.38 h 2 v 7.18 a 3.8 3.8 0 0 0 0.67 2.38 a 2.43 2.43 0 0 0 2.07 0.87 a 3.92 3.92 0 0 0 1.67 -0.34 a 2.93 2.93 0 0 0 1.15 -0.94 a 4.36 4.36 0 0 0 0.67 -1.46 a 7.7 7.7 0 0 0 0.21 -1.87 v -5.82 h 2 Z" stroke-linecap="round" />
</g>
		<g transform="matrix(1 0 0 1 229.25 266.8)"  >
<path style="stroke: none; stroke-width: 1; stroke-dasharray: none; stroke-linecap: butt; stroke-dashoffset: 0; stroke-linejoin: miter; stroke-miterlimit: 4; fill: rgb(35,31,32); fill-rule: nonzero; opacity: 1;"  transform=" translate(-519.4, -557.69)" d="M 513.1 548.92 h 2 v 1.74 h 0 a 5.76 5.76 0 0 1 1.91 -1.51 a 5.28 5.28 0 0 1 2.39 -0.54 a 6.82 6.82 0 0 1 2.56 0.47 a 5.87 5.87 0 0 1 2 1.32 a 6.05 6.05 0 0 1 1.27 2 a 6.67 6.67 0 0 1 0.46 2.51 a 6.58 6.58 0 0 1 -0.46 2.5 a 6.07 6.07 0 0 1 -1.26 2 a 5.66 5.66 0 0 1 -1.91 1.31 a 5.78 5.78 0 0 1 -2.35 0.48 a 5.52 5.52 0 0 1 -2.82 -0.71 a 4.61 4.61 0 0 1 -1.78 -1.72 h 0 v 8 h -2 Z m 2 6 a 5.22 5.22 0 0 0 0.29 1.75 a 4.17 4.17 0 0 0 0.86 1.4 a 4 4 0 0 0 1.34 1 a 4.55 4.55 0 0 0 3.5 0 a 4 4 0 0 0 1.35 -1 a 4 4 0 0 0 0.85 -1.4 a 5.25 5.25 0 0 0 0 -3.5 a 4 4 0 0 0 -0.85 -1.41 a 4.15 4.15 0 0 0 -1.35 -0.94 a 4.55 4.55 0 0 0 -3.5 0 a 4.11 4.11 0 0 0 -1.34 0.94 a 4.21 4.21 0 0 0 -0.86 1.41 A 5.18 5.18 0 0 0 515.09 554.9 Z" stroke-linecap="round" />
</g>
		<g transform="matrix(1 0 0 1 244.86 266.8)"  >
<path style="stroke: none; stroke-width: 1; stroke-dasharray: none; stroke-linecap: butt; stroke-dashoffset: 0; stroke-linejoin: miter; stroke-miterlimit: 4; fill: rgb(35,31,32); fill-rule: nonzero; opacity: 1;"  transform=" translate(-535.01, -557.69)" d="M 528.71 548.92 h 2 v 1.74 h 0 a 5.72 5.72 0 0 1 1.9 -1.51 a 5.31 5.31 0 0 1 2.39 -0.54 a 6.84 6.84 0 0 1 2.57 0.47 a 5.73 5.73 0 0 1 2 1.32 a 6.08 6.08 0 0 1 1.28 2 a 6.67 6.67 0 0 1 0.46 2.51 a 6.58 6.58 0 0 1 -0.46 2.5 a 6.42 6.42 0 0 1 -1.26 2 a 5.94 5.94 0 0 1 -4.26 1.79 a 5.49 5.49 0 0 1 -2.82 -0.71 a 4.55 4.55 0 0 1 -1.78 -1.72 h 0 v 8 h -2 Z m 2 6 a 5.22 5.22 0 0 0 0.29 1.75 a 4 4 0 0 0 0.86 1.4 a 3.89 3.89 0 0 0 1.34 1 a 4.55 4.55 0 0 0 3.5 0 a 3.89 3.89 0 0 0 1.34 -1 a 4 4 0 0 0 0.86 -1.4 a 5.43 5.43 0 0 0 0 -3.5 a 4.05 4.05 0 0 0 -0.86 -1.41 a 4 4 0 0 0 -1.34 -0.94 a 4.55 4.55 0 0 0 -3.5 0 a 4 4 0 0 0 -1.34 0.94 a 4.05 4.05 0 0 0 -0.86 1.41 A 5.18 5.18 0 0 0 530.71 554.9 Z" stroke-linecap="round" />
</g>
		<g transform="matrix(1 0 0 1 259.95 264.02)"  >
<path style="stroke: none; stroke-width: 1; stroke-dasharray: none; stroke-linecap: butt; stroke-dashoffset: 0; stroke-linejoin: miter; stroke-miterlimit: 4; fill: rgb(35,31,32); fill-rule: nonzero; opacity: 1;"  transform=" translate(-550.11, -554.9)" d="M 543.74 554.9 a 6.6 6.6 0 0 1 0.49 -2.56 a 6.16 6.16 0 0 1 1.33 -2 a 5.93 5.93 0 0 1 2 -1.29 a 7.33 7.33 0 0 1 5.11 0 a 6 6 0 0 1 2 1.29 a 6.33 6.33 0 0 1 1.33 2 a 7 7 0 0 1 0 5.11 a 6.1 6.1 0 0 1 -1.33 2 a 5.9 5.9 0 0 1 -2 1.3 a 7.33 7.33 0 0 1 -5.11 0 a 5.81 5.81 0 0 1 -2 -1.3 a 6 6 0 0 1 -1.33 -2 A 6.55 6.55 0 0 1 543.74 554.9 Z m 2.15 0 a 5.22 5.22 0 0 0 0.29 1.75 a 4.17 4.17 0 0 0 0.86 1.4 a 4 4 0 0 0 1.34 1 a 4.55 4.55 0 0 0 3.5 0 a 4 4 0 0 0 1.35 -1 a 4 4 0 0 0 0.85 -1.4 a 5.25 5.25 0 0 0 0 -3.5 a 4 4 0 0 0 -0.85 -1.41 a 4.15 4.15 0 0 0 -1.35 -0.94 a 4.55 4.55 0 0 0 -3.5 0 a 4.11 4.11 0 0 0 -1.34 0.94 a 4.21 4.21 0 0 0 -0.86 1.41 A 5.18 5.18 0 0 0 545.89 554.9 Z" stroke-linecap="round" />
</g>
		<g transform="matrix(1 0 0 1 272.75 263.87)"  >
<path style="stroke: none; stroke-width: 1; stroke-dasharray: none; stroke-linecap: butt; stroke-dashoffset: 0; stroke-linejoin: miter; stroke-miterlimit: 4; fill: rgb(35,31,32); fill-rule: nonzero; opacity: 1;"  transform=" translate(-562.91, -554.76)" d="M 559.62 551.75 q 0 -0.81 -0.06 -1.53 c 0 -0.48 0 -0.91 0 -1.3 h 1.9 c 0 0.32 0 0.64 0 1 s 0 0.65 0 1 h 0 a 3.29 3.29 0 0 1 0.57 -0.84 a 4.56 4.56 0 0 1 0.88 -0.73 a 5 5 0 0 1 1.15 -0.51 a 4.77 4.77 0 0 1 1.39 -0.19 a 2.69 2.69 0 0 1 0.4 0 a 1.45 1.45 0 0 1 0.41 0.1 l -0.13 2 a 3.74 3.74 0 0 0 -1.07 -0.16 a 3 3 0 0 0 -2.67 1.19 a 5.64 5.64 0 0 0 -0.83 3.26 v 5.83 h -2 Z" stroke-linecap="round" />
</g>
		<g transform="matrix(1 0 0 1 280.96 262.49)"  >
<path style="stroke: none; stroke-width: 1; stroke-dasharray: none; stroke-linecap: butt; stroke-dashoffset: 0; stroke-linejoin: miter; stroke-miterlimit: 4; fill: rgb(35,31,32); fill-rule: nonzero; opacity: 1;"  transform=" translate(-571.11, -553.37)" d="M 575.16 550.6 h -3.53 v 6 c 0 0.4 0 0.76 0 1.09 a 2.32 2.32 0 0 0 0.21 0.87 a 1.4 1.4 0 0 0 0.54 0.59 a 2 2 0 0 0 1 0.22 a 3.94 3.94 0 0 0 0.89 -0.11 a 4.06 4.06 0 0 0 0.87 -0.3 l 0.08 1.81 a 4.75 4.75 0 0 1 -1.14 0.33 a 7.22 7.22 0 0 1 -1.19 0.11 a 4.28 4.28 0 0 1 -1.71 -0.29 a 2.27 2.27 0 0 1 -1 -0.79 a 3 3 0 0 1 -0.47 -1.26 a 10.85 10.85 0 0 1 -0.11 -1.68 V 550.6 H 567 v -1.68 h 2.61 v -3.4 h 2 v 3.4 h 3.53 Z" stroke-linecap="round" />
</g>
		<g transform="matrix(1 0 0 1 -197.67 182.96)"  >
<path style="stroke: rgb(35,31,32); stroke-width: 0.5; stroke-dasharray: none; stroke-linecap: butt; stroke-dashoffset: 0; stroke-linejoin: miter; stroke-miterlimit: 10; fill: rgb(180,195,181); fill-rule: nonzero; opacity: 1;"  transform=" translate(-92.49, -473.85)" d="M 85.08 483.08 a 21.89 21.89 0 0 0 2.61 -0.71 a 18.9 18.9 0 0 0 6.23 -3.31 a 17 17 0 0 0 5.42 -8.92 a 17.72 17.72 0 0 0 0.52 -5.53 a 18.86 18.86 0 0 0 -4.66 1.93 a 19.39 19.39 0 0 0 -5.33 4.66 a 20.59 20.59 0 0 0 -3.05 5.36 a 24 24 0 0 0 -1.54 5.49 Z" stroke-linecap="round" />
</g>
		<g transform="matrix(1 0 0 1 -211.65 183.84)"  >
<path style="stroke: rgb(35,31,32); stroke-width: 0.5; stroke-dasharray: none; stroke-linecap: butt; stroke-dashoffset: 0; stroke-linejoin: miter; stroke-miterlimit: 10; fill: rgb(180,195,181); fill-rule: nonzero; opacity: 1;"  transform=" translate(-78.51, -474.73)" d="M 83.63 483 a 16.35 16.35 0 0 1 -8.23 -7.46 a 17.77 17.77 0 0 1 -1.8 -5.66 a 21 21 0 0 1 -0.29 -3.43 a 18.1 18.1 0 0 1 3.28 1.69 a 15.41 15.41 0 0 1 3.89 3.41 a 14.76 14.76 0 0 1 2.79 5.62 a 15.24 15.24 0 0 1 0.42 4.57 Z" stroke-linecap="round" />
</g>
		<g transform="matrix(1 0 0 1 -205.76 198.17)"  >
<path style="stroke: rgb(35,31,32); stroke-width: 0.5; stroke-dasharray: none; stroke-linecap: butt; stroke-dashoffset: 0; stroke-linejoin: miter; stroke-miterlimit: 10; fill: rgb(35,31,32); fill-rule: nonzero; opacity: 1;"  transform=" translate(-84.4, -489.05)" d="M 83.76 483.43 a 0.88 0.88 0 0 1 0.22 -0.19 a 1 1 0 0 1 0.18 -0.05 a 0.66 0.66 0 0 1 0.31 0 a 0.6 0.6 0 0 1 0.43 0.53 a 0.68 0.68 0 0 1 0 0.34 a 1.73 1.73 0 0 1 -0.15 0.39 l -0.17 0.45 a 6 6 0 0 0 -0.26 1.13 a 11.09 11.09 0 0 0 -0.11 1.17 a 12.55 12.55 0 0 0 0.15 2.93 a 13.84 13.84 0 0 0 1.07 3.22 c 0.16 0.36 0.3 0.66 0.4 0.87 a 0.3 0.3 0 0 1 0.06 0.17 a 0.39 0.39 0 0 1 -0.07 0.25 a 0.58 0.58 0 0 1 -0.22 0.18 a 1 1 0 0 1 -0.31 0.09 a 0.5 0.5 0 0 1 -0.24 0 a 0.35 0.35 0 0 1 -0.17 -0.13 a 4.67 4.67 0 0 1 -0.58 -0.84 c -0.28 -0.62 -0.4 -1 -0.4 -1 c -0.37 -1.11 -0.56 -1.67 -0.61 -1.87 a 12.91 12.91 0 0 1 -0.34 -2.21 a 12.74 12.74 0 0 1 0 -2.27 a 13.21 13.21 0 0 1 0.45 -2.25 l 0.16 -0.48 A 1.26 1.26 0 0 1 83.76 483.43 Z" stroke-linecap="round" />
</g>
		<g transform="matrix(1 0 0 1 -210.28 185.71)"  >
<path style="stroke: rgb(35,31,32); stroke-width: 0.5; stroke-dasharray: none; stroke-linecap: butt; stroke-dashoffset: 0; stroke-linejoin: miter; stroke-miterlimit: 10; fill: none; fill-rule: nonzero; opacity: 1;"  transform=" translate(-79.88, -476.59)" d="M 83.54 482.84 a 22.5 22.5 0 0 0 -7.31 -12.49" stroke-linecap="round" />
</g>
		<g transform="matrix(1 0 0 1 -200.06 185.56)"  >
<path style="stroke: rgb(35,31,32); stroke-width: 0.5; stroke-dasharray: none; stroke-linecap: butt; stroke-dashoffset: 0; stroke-linejoin: miter; stroke-miterlimit: 10; fill: none; fill-rule: nonzero; opacity: 1;"  transform=" translate(-90.1, -476.44)" d="M 85.2 483 c 0.55 -1.12 1.17 -2.27 1.89 -3.45 A 44.93 44.93 0 0 1 95 469.89" stroke-linecap="round" />
</g>
		<g transform="matrix(1 0 0 1 -161.06 220.48)"  >
<path style="stroke: rgb(35,31,32); stroke-width: 1; stroke-dasharray: none; stroke-linecap: butt; stroke-dashoffset: 0; stroke-linejoin: miter; stroke-miterlimit: 10; fill: rgb(35,31,32); fill-rule: nonzero; opacity: 1;"  transform=" translate(-129.1, -511.36)" d="M 251.45 552.45 c -1.6 -2.88 -3.42 -6.61 -5.71 -11.64 l -37.25 -74.26 l -0.76 -1.18 c -0.16 -0.13 -0.33 -0.26 -0.51 -0.38 a 6.78 6.78 0 0 0 -3.66 -1.1 l -13.67 -0.24 a 3.91 3.91 0 0 1 -0.59 0.26 l -0.11 0.1 a 1.33 1.33 0 0 0 -0.09 0.62 l 0 6.12 l 0 0.19 a 0.81 0.81 0 0 0 0 0.19 a 1 1 0 0 0 0.55 0.6 a 1.17 1.17 0 0 0 0.6 0.12 h 12 l 40 80.19 H 15.73 L 55.84 472 l 3.75 -0.06 c 0.23 0 6.54 0 7 0 c 1.72 0 1.81 0.07 1.85 -0.31 c 0.08 -0.73 0.3 -1.71 0.42 -3.63 s 0.09 -1.72 0.12 -2.69 c 0 -0.6 0.47 -1.31 -2.19 -1.36 c 0 0 -1.2 -0.09 -6.77 -0.18 l -5.77 -0.1 a 6.7 6.7 0 0 0 -1 0 a 5.27 5.27 0 0 0 -1.56 0.3 a 3.47 3.47 0 0 0 -1.7 1.72 L 6.15 553.09 l -0.4 1.08 a 3.09 3.09 0 0 0 -0.18 0.79 a 3.94 3.94 0 0 0 1.23 3.29 a 3.56 3.56 0 0 0 2 0.81 H 250.32 a 2.09 2.09 0 0 0 0.74 -0.13 a 2.59 2.59 0 0 0 1.38 -1.49 C 253.24 555.68 251.59 552.7 251.45 552.45 Z" stroke-linecap="round" />
</g>
		<g transform="matrix(1 0 0 1 -227.21 222.85)"  >
<line style="stroke: rgb(35,31,32); stroke-width: 0.75; stroke-dasharray: none; stroke-linecap: butt; stroke-dashoffset: 0; stroke-linejoin: miter; stroke-miterlimit: 10; fill: none; fill-rule: nonzero; opacity: 0.75;"  x1="-12.335" y1="35.19999999999999" x2="12.335" y2="-35.19999999999999" />
</g>
		<g transform="matrix(1 0 0 1 -200.25 222.85)"  >
<line style="stroke: rgb(35,31,32); stroke-width: 0.75; stroke-dasharray: none; stroke-linecap: butt; stroke-dashoffset: 0; stroke-linejoin: miter; stroke-miterlimit: 10; fill: none; fill-rule: nonzero; opacity: 0.75;"  x1="-7.690000000000005" y1="35.19999999999999" x2="7.690000000000005" y2="-35.19999999999999" />
</g>
		<g transform="matrix(1 0 0 1 -174.16 223.04)"  >
<line style="stroke: rgb(35,31,32); stroke-width: 0.75; stroke-dasharray: none; stroke-linecap: butt; stroke-dashoffset: 0; stroke-linejoin: miter; stroke-miterlimit: 10; fill: none; fill-rule: nonzero; opacity: 0.75;"  x1="-3.519999999999996" y1="35.389999999999986" x2="3.519999999999996" y2="-35.389999999999986" />
</g>
		<g transform="matrix(1 0 0 1 -92.74 222.85)"  >
<line style="stroke: rgb(35,31,32); stroke-width: 0.75; stroke-dasharray: none; stroke-linecap: butt; stroke-dashoffset: 0; stroke-linejoin: miter; stroke-miterlimit: 10; fill: none; fill-rule: nonzero; opacity: 0.75;"  x1="12.334999999999994" y1="35.19999999999999" x2="-12.334999999999994" y2="-35.19999999999999" />
</g>
		<g transform="matrix(1 0 0 1 -121.41 222.85)"  >
<line style="stroke: rgb(35,31,32); stroke-width: 0.75; stroke-dasharray: none; stroke-linecap: butt; stroke-dashoffset: 0; stroke-linejoin: miter; stroke-miterlimit: 10; fill: none; fill-rule: nonzero; opacity: 0.75;"  x1="7.310000000000002" y1="35.19999999999999" x2="-7.310000000000002" y2="-35.19999999999999" />
</g>
		<g transform="matrix(1 0 0 1 -148.9 223.04)"  >
<line style="stroke: rgb(35,31,32); stroke-width: 0.75; stroke-dasharray: none; stroke-linecap: butt; stroke-dashoffset: 0; stroke-linejoin: miter; stroke-miterlimit: 10; fill: none; fill-rule: nonzero; opacity: 0.75;"  x1="3.5249999999999915" y1="35.389999999999986" x2="-3.5249999999999915" y2="-35.389999999999986" />
</g>
		<g transform="matrix(1 0 0 1 -160.24 239.36)"  >
<line style="stroke: rgb(35,31,32); stroke-width: 0.75; stroke-dasharray: none; stroke-linecap: butt; stroke-dashoffset: 0; stroke-linejoin: miter; stroke-miterlimit: 10; fill: none; fill-rule: nonzero; opacity: 1;"  x1="-95.02" y1="-0.9599999999999795" x2="95.02" y2="0.9599999999999795" />
</g>
		<g transform="matrix(1 0 0 1 -161.23 224)"  >
<line style="stroke: rgb(35,31,32); stroke-width: 0.75; stroke-dasharray: none; stroke-linecap: butt; stroke-dashoffset: 0; stroke-linejoin: miter; stroke-miterlimit: 10; fill: none; fill-rule: nonzero; opacity: 1;"  x1="-87.39" y1="-0.8799999999999955" x2="87.39" y2="0.8799999999999955" />
</g>
		<g transform="matrix(1 0 0 1 -160.5 209.42)"  >
<line style="stroke: rgb(35,31,32); stroke-width: 0.75; stroke-dasharray: none; stroke-linecap: butt; stroke-dashoffset: 0; stroke-linejoin: miter; stroke-miterlimit: 10; fill: none; fill-rule: nonzero; opacity: 1;"  x1="-81.25500000000001" y1="-0.8149999999999977" x2="81.25500000000001" y2="0.8149999999999977" />
</g>
		<g transform="matrix(1 0 0 1 -160.47 197.03)"  >
<line style="stroke: rgb(35,31,32); stroke-width: 0.75; stroke-dasharray: none; stroke-linecap: butt; stroke-dashoffset: 0; stroke-linejoin: miter; stroke-miterlimit: 10; fill: none; fill-rule: nonzero; opacity: 1;"  x1="-75.055" y1="-0.7549999999999955" x2="75.055" y2="0.7549999999999955" />
</g>
		<g transform="matrix(1 0 0 1 -160.28 150.73)"  >
<path style="stroke: rgb(35,31,32); stroke-width: 1; stroke-dasharray: none; stroke-linecap: butt; stroke-dashoffset: 0; stroke-linejoin: miter; stroke-miterlimit: 10; fill: rgb(0,104,56); fill-rule: nonzero; opacity: 1;"  transform=" translate(-129.88, -441.62)" d="M 128 433.93 a 17.42 17.42 0 0 0 -1.27 1.68 a 21.8 21.8 0 0 0 -2.23 4.32 a 17.68 17.68 0 0 0 -1 3.05 a 14.73 14.73 0 0 0 -0.27 5 a 16.07 16.07 0 0 0 1.64 5 a 28.77 28.77 0 0 0 3.64 5.42 a 1.72 1.72 0 0 0 0.51 0.44 a 1.88 1.88 0 0 0 1.62 0.14 a 1.71 1.71 0 0 0 0.78 -0.79 c 1.11 -2 1.84 -1.95 3.23 -4.84 a 16.69 16.69 0 0 0 1.92 -6.07 a 15.53 15.53 0 0 0 -0.48 -5.35 a 16.32 16.32 0 0 0 -1.17 -3.05 a 20.56 20.56 0 0 0 -2.16 -3.6 a 4.84 4.84 0 0 1 -0.82 -1.48 a 7.07 7.07 0 0 1 -0.21 -0.82 a 13.07 13.07 0 0 1 -0.2 -1.48 c -0.08 -0.93 -0.18 -1.72 -0.28 -2.43 a 29 29 0 0 1 -0.48 -3.12 a 5.55 5.55 0 0 0 -0.13 -1.2 a 0.74 0.74 0 0 0 -0.21 -0.48 a 0.6 0.6 0 0 0 -0.76 0 a 0.58 0.58 0 0 0 -0.1 0.44 a 9.22 9.22 0 0 1 -0.2 1.17 s -0.18 1 -0.52 2.95 c -0.24 1.41 -0.36 2.09 -0.48 2.74 s -0.19 1.11 -0.27 1.58 Z" stroke-linecap="round" />
</g>
		<g transform="matrix(1 0 0 1 -172.21 169.23)"  >
<path style="stroke: rgb(35,31,32); stroke-width: 1; stroke-dasharray: none; stroke-linecap: butt; stroke-dashoffset: 0; stroke-linejoin: miter; stroke-miterlimit: 10; fill: rgb(0,104,56); fill-rule: nonzero; opacity: 1;"  transform=" translate(-117.94, -460.11)" d="M 111.79 454.69 a 19.31 19.31 0 0 0 -0.14 2.1 a 21.85 21.85 0 0 0 0.52 4.83 a 17.16 17.16 0 0 0 0.82 3.12 a 14.87 14.87 0 0 0 2.52 4.33 a 16 16 0 0 0 4.11 3.25 a 28.75 28.75 0 0 0 6 2.53 a 2 2 0 0 0 0.68 0.09 a 1.89 1.89 0 0 0 1.42 -0.78 a 1.67 1.67 0 0 0 0.22 -1.09 c -0.17 -2.27 0.46 -2.64 0 -5.81 a 16.44 16.44 0 0 0 -1.73 -6.13 a 15.43 15.43 0 0 0 -3.35 -4.2 a 16.37 16.37 0 0 0 -2.65 -1.91 a 20.7 20.7 0 0 0 -3.79 -1.82 a 4.8 4.8 0 0 1 -1.49 -0.78 c -0.24 -0.19 -0.43 -0.38 -0.63 -0.57 a 12.42 12.42 0 0 1 -1 -1.12 c -0.58 -0.74 -1.1 -1.34 -1.57 -1.89 a 26.27 26.27 0 0 1 -2.12 -2.34 a 6.16 6.16 0 0 0 -0.77 -0.93 a 0.76 0.76 0 0 0 -0.44 -0.28 a 0.6 0.6 0 0 0 -0.63 0.41 c 0 0.16 0.07 0.28 0.16 0.43 a 9.67 9.67 0 0 1 0.47 1.09 l 1.19 2.74 c 0.57 1.32 0.85 2 1.11 2.56 l 0.64 1.47 Z" stroke-linecap="round" />
</g>
		<g transform="matrix(1 0 0 1 -172.22 189.73)"  >
<path style="stroke: rgb(35,31,32); stroke-width: 1; stroke-dasharray: none; stroke-linecap: butt; stroke-dashoffset: 0; stroke-linejoin: miter; stroke-miterlimit: 10; fill: rgb(0,104,56); fill-rule: nonzero; opacity: 1;"  transform=" translate(-117.94, -480.61)" d="M 111.79 475.19 a 19.31 19.31 0 0 0 -0.14 2.1 a 21.85 21.85 0 0 0 0.52 4.83 a 17.16 17.16 0 0 0 0.82 3.12 a 14.87 14.87 0 0 0 2.52 4.33 a 16 16 0 0 0 4.11 3.25 a 28.75 28.75 0 0 0 6 2.53 a 2 2 0 0 0 0.68 0.09 a 1.89 1.89 0 0 0 1.42 -0.78 a 1.66 1.66 0 0 0 0.22 -1.09 c -0.17 -2.26 0.46 -2.64 0 -5.81 a 16.44 16.44 0 0 0 -1.73 -6.13 a 15.58 15.58 0 0 0 -3.35 -4.2 a 16.37 16.37 0 0 0 -2.65 -1.91 a 20.7 20.7 0 0 0 -3.79 -1.82 a 4.58 4.58 0 0 1 -1.49 -0.78 c -0.24 -0.19 -0.43 -0.38 -0.63 -0.57 a 11.13 11.13 0 0 1 -1 -1.12 c -0.58 -0.74 -1.1 -1.34 -1.57 -1.88 a 27.23 27.23 0 0 1 -2.12 -2.35 a 5.75 5.75 0 0 0 -0.77 -0.92 a 0.73 0.73 0 0 0 -0.44 -0.29 a 0.6 0.6 0 0 0 -0.63 0.41 a 0.61 0.61 0 0 0 0.16 0.43 a 10.53 10.53 0 0 1 0.47 1.09 l 1.19 2.75 l 1.11 2.55 l 0.64 1.47 Z" stroke-linecap="round" />
</g>
		<g transform="matrix(1 0 0 1 -172.21 210.6)"  >
<path style="stroke: rgb(35,31,32); stroke-width: 1; stroke-dasharray: none; stroke-linecap: butt; stroke-dashoffset: 0; stroke-linejoin: miter; stroke-miterlimit: 10; fill: rgb(0,104,56); fill-rule: nonzero; opacity: 1;"  transform=" translate(-117.94, -501.48)" d="M 111.79 496.06 a 19.31 19.31 0 0 0 -0.14 2.1 a 21.85 21.85 0 0 0 0.52 4.83 a 17.16 17.16 0 0 0 0.82 3.12 a 14.87 14.87 0 0 0 2.52 4.33 a 16 16 0 0 0 4.11 3.25 a 28.75 28.75 0 0 0 6 2.53 a 2 2 0 0 0 0.68 0.09 a 1.89 1.89 0 0 0 1.42 -0.78 a 1.67 1.67 0 0 0 0.22 -1.09 c -0.17 -2.27 0.46 -2.64 0 -5.81 a 16.44 16.44 0 0 0 -1.73 -6.13 a 15.43 15.43 0 0 0 -3.35 -4.2 a 16.37 16.37 0 0 0 -2.65 -1.91 a 20.7 20.7 0 0 0 -3.79 -1.82 a 4.8 4.8 0 0 1 -1.49 -0.78 c -0.24 -0.19 -0.43 -0.38 -0.63 -0.57 a 12.42 12.42 0 0 1 -1 -1.12 c -0.58 -0.74 -1.1 -1.34 -1.57 -1.89 a 26.27 26.27 0 0 1 -2.12 -2.34 a 6.16 6.16 0 0 0 -0.77 -0.93 a 0.76 0.76 0 0 0 -0.44 -0.28 a 0.6 0.6 0 0 0 -0.63 0.41 c 0 0.16 0.07 0.28 0.16 0.43 a 9.67 9.67 0 0 1 0.47 1.09 s 0.4 0.92 1.19 2.74 c 0.57 1.32 0.85 1.95 1.11 2.56 l 0.64 1.47 Z" stroke-linecap="round" />
</g>
		<g transform="matrix(1 0 0 1 -148.67 169.25)"  >
<path style="stroke: rgb(35,31,32); stroke-width: 1; stroke-dasharray: none; stroke-linecap: butt; stroke-dashoffset: 0; stroke-linejoin: miter; stroke-miterlimit: 10; fill: rgb(0,104,56); fill-rule: nonzero; opacity: 1;"  transform=" translate(-141.48, -460.13)" d="M 144.42 452.51 a 19 19 0 0 0 -2 0.73 a 21.3 21.3 0 0 0 -4.22 2.42 a 18.47 18.47 0 0 0 -2.52 2 a 15.07 15.07 0 0 0 -2.95 4.06 a 16.19 16.19 0 0 0 -1.32 5.07 a 29 29 0 0 0 0.12 6.53 a 1.69 1.69 0 0 0 0.19 0.65 a 1.86 1.86 0 0 0 1.28 1 a 1.78 1.78 0 0 0 1.09 -0.23 c 2 -1.08 2.6 -0.64 5.33 -2.32 a 16.56 16.56 0 0 0 4.91 -4.05 a 15.61 15.61 0 0 0 2.5 -4.76 a 16.82 16.82 0 0 0 0.68 -3.2 a 21.23 21.23 0 0 0 0.14 -4.19 a 4.65 4.65 0 0 1 0.11 -1.69 a 6.26 6.26 0 0 1 0.27 -0.8 a 9.72 9.72 0 0 1 0.63 -1.35 c 0.44 -0.83 0.78 -1.55 1.09 -2.2 a 25.2 25.2 0 0 1 1.29 -2.88 a 6.1 6.1 0 0 0 0.54 -1.08 a 0.7 0.7 0 0 0 0.08 -0.52 a 0.61 0.61 0 0 0 -0.63 -0.41 c -0.16 0 -0.23 0.18 -0.33 0.32 a 11 11 0 0 1 -0.8 0.87 l -2 2.2 l -1.89 2 l -1.09 1.18 Z" stroke-linecap="round" />
</g>
		<g transform="matrix(1 0 0 1 -148.52 189.73)"  >
<path style="stroke: rgb(35,31,32); stroke-width: 1; stroke-dasharray: none; stroke-linecap: butt; stroke-dashoffset: 0; stroke-linejoin: miter; stroke-miterlimit: 10; fill: rgb(0,104,56); fill-rule: nonzero; opacity: 1;"  transform=" translate(-141.63, -480.62)" d="M 144.57 473 a 20.06 20.06 0 0 0 -2 0.72 a 22.35 22.35 0 0 0 -4.22 2.42 a 19.32 19.32 0 0 0 -2.52 2 a 14.91 14.91 0 0 0 -2.95 4.06 a 16.19 16.19 0 0 0 -1.32 5.07 a 28.93 28.93 0 0 0 0.12 6.52 a 1.73 1.73 0 0 0 0.19 0.66 a 1.86 1.86 0 0 0 1.27 1 a 1.71 1.71 0 0 0 1.1 -0.24 c 2 -1.07 2.6 -0.64 5.33 -2.31 a 16.46 16.46 0 0 0 4.91 -4.06 a 15.65 15.65 0 0 0 2.5 -4.75 a 18.76 18.76 0 0 0 0.68 -3.2 a 22.1 22.1 0 0 0 0.14 -4.2 a 4.53 4.53 0 0 1 0.1 -1.68 a 7.46 7.46 0 0 1 0.28 -0.8 a 9.72 9.72 0 0 1 0.63 -1.35 c 0.44 -0.83 0.78 -1.55 1.09 -2.2 a 24.29 24.29 0 0 1 1.29 -2.88 a 5.92 5.92 0 0 0 0.53 -1.08 a 0.71 0.71 0 0 0 0.09 -0.52 a 0.61 0.61 0 0 0 -0.63 -0.41 c -0.16 0 -0.23 0.18 -0.33 0.32 a 9.48 9.48 0 0 1 -0.81 0.87 s -0.68 0.74 -2 2.2 l -1.89 2 l -1.09 1.18 Z" stroke-linecap="round" />
</g>
		<g transform="matrix(1 0 0 1 -148.51 210.62)"  >
<path style="stroke: rgb(35,31,32); stroke-width: 1; stroke-dasharray: none; stroke-linecap: butt; stroke-dashoffset: 0; stroke-linejoin: miter; stroke-miterlimit: 10; fill: rgb(0,104,56); fill-rule: nonzero; opacity: 1;"  transform=" translate(-141.64, -501.5)" d="M 144.57 493.87 a 20.06 20.06 0 0 0 -2 0.72 a 22.35 22.35 0 0 0 -4.22 2.42 a 17.78 17.78 0 0 0 -2.52 2 a 14.76 14.76 0 0 0 -2.95 4.06 a 16.19 16.19 0 0 0 -1.32 5.07 a 28.93 28.93 0 0 0 0.12 6.52 a 1.73 1.73 0 0 0 0.19 0.66 a 1.86 1.86 0 0 0 1.27 1 a 1.78 1.78 0 0 0 1.1 -0.24 c 2 -1.07 2.6 -0.64 5.33 -2.31 a 16.46 16.46 0 0 0 4.91 -4.06 A 15.65 15.65 0 0 0 147 505 a 18.76 18.76 0 0 0 0.68 -3.2 a 22.1 22.1 0 0 0 0.14 -4.2 a 4.53 4.53 0 0 1 0.1 -1.68 a 7.66 7.66 0 0 1 0.28 -0.81 a 11.07 11.07 0 0 1 0.63 -1.35 c 0.44 -0.82 0.78 -1.54 1.09 -2.19 a 23.44 23.44 0 0 1 1.29 -2.88 a 5.77 5.77 0 0 0 0.53 -1.09 a 0.68 0.68 0 0 0 0.09 -0.51 a 0.6 0.6 0 0 0 -0.63 -0.41 c -0.16 0 -0.23 0.17 -0.33 0.32 a 9.48 9.48 0 0 1 -0.81 0.87 L 148 490 l -1.89 2.05 l -1.09 1.18 Z" stroke-linecap="round" />
</g>
		<g transform="matrix(1 0 0 1 -160.33 237.63)"  >
<path style="stroke: rgb(35,31,32); stroke-width: 1; stroke-dasharray: none; stroke-linecap: butt; stroke-dashoffset: 0; stroke-linejoin: miter; stroke-miterlimit: 10; fill: rgb(0,104,56); fill-rule: nonzero; opacity: 1;"  transform=" translate(-129.83, -528.51)" d="M 125.56 536 a 4.2 4.2 0 0 0 0.09 0.66 a 3.76 3.76 0 0 0 1.17 1.89 a 4.29 4.29 0 0 0 1 0.63 a 4.8 4.8 0 0 0 3.66 0.18 a 4.29 4.29 0 0 0 1.11 -0.63 a 3.9 3.9 0 0 0 1.5 -2.58 a 2.85 2.85 0 0 0 0 -0.51 V 521.11 a 2.77 2.77 0 0 0 0 -0.45 a 3.91 3.91 0 0 0 -1.65 -2.3 a 3.78 3.78 0 0 0 -1.05 -0.69 a 4.06 4.06 0 0 0 -3 0 a 4.44 4.44 0 0 0 -1.32 0.75 a 4.66 4.66 0 0 0 -1.47 2.3 V 536 Z" stroke-linecap="round" />
</g>
		<g transform="matrix(1 0 0 1 -289.16 -295.9)" style=""  >
		<text xml:space="preserve" font-family="Times New Roman" font-size="16" font-style="normal" font-weight="normal" style="stroke: none; stroke-width: 1; stroke-dasharray: none; stroke-linecap: butt; stroke-dashoffset: 0; stroke-linejoin: miter; stroke-miterlimit: 4; fill: rgb(0,0,0); fill-rule: nonzero; opacity: 0.27; white-space: pre;" ></text>
</g>
		<g transform="matrix(1 0 0 1 -215.16 172.84)"  >
<path style="stroke: rgb(35,31,32); stroke-width: 1; stroke-dasharray: none; stroke-linecap: butt; stroke-dashoffset: 0; stroke-linejoin: miter; stroke-miterlimit: 10; fill: rgb(35,31,32); fill-rule: nonzero; opacity: 1;"  transform=" translate(-75, -463.72)" d="M 75 463.72" stroke-linecap="round" />
</g>
		<g transform="matrix(1 0 0 1 -111.98 183.38)"  >
<path style="stroke: rgb(35,31,32); stroke-width: 0.5; stroke-dasharray: none; stroke-linecap: butt; stroke-dashoffset: 0; stroke-linejoin: miter; stroke-miterlimit: 10; fill: rgb(180,195,181); fill-rule: nonzero; opacity: 1;"  transform=" translate(-178.18, -474.27)" d="M 171.74 466.85 c -0.4 0.19 0.36 2 1 5.61 a 40.76 40.76 0 0 0 0.92 5 c 0.76 2.62 1.46 3.35 2.11 3.76 a 4.2 4.2 0 0 0 2.39 0.55 a 4.76 4.76 0 0 0 3 -1 c 0.6 -0.51 1 -1.19 1.58 -3.53 s 0.61 -3.35 0.93 -5.26 c 0.62 -3.74 1.27 -5.06 1 -5.21 s -1.71 1.28 -6.36 8.92 l -1.6 -2.48 a 46 46 0 0 0 -3.08 -4.51 C 172.63 467.48 172 466.72 171.74 466.85 Z" stroke-linecap="round" />
</g>
		<g transform="matrix(1 0 0 1 -118.42 175.81)"  >
<path style="stroke: rgb(35,31,32); stroke-width: 0.5; stroke-dasharray: none; stroke-linecap: butt; stroke-dashoffset: 0; stroke-linejoin: miter; stroke-miterlimit: 10; fill: rgb(255,213,127); fill-rule: nonzero; opacity: 1;"  transform=" translate(-171.74, -466.7)" d="M 171.74 466.7" stroke-linecap="round" />
</g>
		<g transform="matrix(1 0 0 1 -112 177)"  >
<path style="stroke: rgb(35,31,32); stroke-width: 0.5; stroke-dasharray: none; stroke-linecap: butt; stroke-dashoffset: 0; stroke-linejoin: miter; stroke-miterlimit: 10; fill: rgb(180,195,181); fill-rule: nonzero; opacity: 1;"  transform=" translate(-178.16, -467.89)" d="M 174.21 469.47 l 4 6.17 l 3.93 -6.17 a 14 14 0 0 0 0 -1.83 a 10.57 10.57 0 0 0 -2.09 -6.23 c -0.51 -0.61 -1.09 -1.28 -1.9 -1.28 c -0.2 0 -1 0 -2 1.36 a 11.06 11.06 0 0 0 -2 6 Z" stroke-linecap="round" />
</g>
		<g transform="matrix(1 0 0 1 -111.92 196.11)"  >
<path style="stroke: rgb(35,31,32); stroke-width: 0.5; stroke-dasharray: none; stroke-linecap: butt; stroke-dashoffset: 0; stroke-linejoin: miter; stroke-miterlimit: 10; fill: rgb(180,195,181); fill-rule: nonzero; opacity: 1;"  transform=" translate(-178.24, -487)" d="M 177.44 481.74 H 179 v 6.91 a 7.56 7.56 0 0 1 0.67 -1.91 a 10.85 10.85 0 0 1 4.76 -3.33 c 1.62 -0.72 3.67 -1.66 6.52 -3 a 0.88 0.88 0 0 1 0.43 0 a 0.94 0.94 0 0 1 0.55 0.77 a 1.15 1.15 0 0 1 -0.06 0.5 a 3.8 3.8 0 0 1 -0.79 1.32 c -1.53 2.42 -2.63 4.2 -3.24 5.23 a 13.3 13.3 0 0 1 -1 1.46 a 12.17 12.17 0 0 1 -1.12 1.23 a 10.8 10.8 0 0 1 -2.57 1.69 a 11.31 11.31 0 0 1 -4.36 1 a 11.18 11.18 0 0 1 -4.36 -0.51 a 10.49 10.49 0 0 1 -3.92 -2.42 a 15.86 15.86 0 0 1 -1.31 -1.63 c -0.46 -0.65 -0.52 -0.84 -1.27 -2.05 c -1 -1.61 -1 -1.48 -1.65 -2.6 c -0.32 -0.56 -0.56 -1 -1.1 -1.91 l -0.57 -0.93 a 0.91 0.91 0 0 1 0 -0.72 a 1 1 0 0 1 0.7 -0.49 a 1.06 1.06 0 0 1 0.7 0.17 l 3 1.44 c 2.19 1.05 3.29 1.58 3.58 1.69 c 0.13 0.06 0.52 0.21 1 0.47 s 0.78 0.46 1 0.57 s 0.39 0.29 0.65 0.49 a 8.74 8.74 0 0 1 0.87 0.72 a 7.57 7.57 0 0 1 0.81 1.09 c 0.17 0.3 0.46 1.42 0.63 1.82 Z" stroke-linecap="round" />
</g>
</g>
</g>
</svg>