<svg id="Layer_1" data-name="Layer 1" xmlns="http://www.w3.org/2000/svg" viewBox="0 0 570.21 551.65"><defs><style>.cls-1{fill:#b4c3b5;}.cls-1,.cls-10,.cls-2,.cls-3,.cls-4,.cls-5,.cls-6,.cls-7{stroke:#231f20;stroke-miterlimit:10;}.cls-1,.cls-10,.cls-2,.cls-3{stroke-width:0.5px;}.cls-2,.cls-4,.cls-8{fill:#231f20;}.cls-3,.cls-5,.cls-6{fill:none;}.cls-5,.cls-6{stroke-width:0.75px;}.cls-5{opacity:0.75;}.cls-7{fill:#006838;}.cls-9{opacity:0.27;}.cls-10{fill:#ffd57f;}</style></defs><path class="cls-1" d="M219.43,116a36,36,0,0,0,4.43-1.21,32.18,32.18,0,0,0,10.61-5.63,29,29,0,0,0,9.25-15.21,30.61,30.61,0,0,0,.87-9.4,31.65,31.65,0,0,0-7.93,3.28,33,33,0,0,0-9.08,7.93,35.62,35.62,0,0,0-5.2,9.13,42,42,0,0,0-2.62,9.36Z" transform="translate(-5.05 -15.06)"/><path class="cls-1" d="M217,115.81a27.93,27.93,0,0,1-14-12.71,29.94,29.94,0,0,1-3.07-9.63,36.18,36.18,0,0,1-.49-5.85A31.07,31.07,0,0,1,205,90.49a26.59,26.59,0,0,1,6.63,5.82,25.35,25.35,0,0,1,5.45,17.34Z" transform="translate(-5.05 -15.06)"/><path class="cls-2" d="M217.18,116.56a1,1,0,0,1,.37-.33.94.94,0,0,1,.31-.09,1.08,1.08,0,0,1,.53,0,1,1,0,0,1,.49.33,1.1,1.1,0,0,1,.24.57,1.44,1.44,0,0,1-.06.58,5.12,5.12,0,0,1-.26.67s-.06.14-.29.77a8.89,8.89,0,0,0-.44,1.92,14.94,14.94,0,0,0-.2,2,21.48,21.48,0,0,0,.25,5,23.6,23.6,0,0,0,1.84,5.49c.26.62.5,1.13.68,1.48a.74.74,0,0,1,.1.3.75.75,0,0,1-.13.43.91.91,0,0,1-.37.3,1.33,1.33,0,0,1-.52.15.88.88,0,0,1-.42,0,.78.78,0,0,1-.28-.22,7.83,7.83,0,0,1-1-1.44,16.42,16.42,0,0,1-.68-1.65c-.64-1.9-1-2.85-1-3.19a22,22,0,0,1-.59-3.76,20.82,20.82,0,0,1,.08-3.86,20.47,20.47,0,0,1,.77-3.84c.1-.33.2-.61.27-.81A1.79,1.79,0,0,1,217.18,116.56Z" transform="translate(-5.05 -15.06)"/><path class="cls-3" d="M216.8,115.55a38.29,38.29,0,0,0-12.44-21.27" transform="translate(-5.05 -15.06)"/><path class="cls-3" d="M219.63,115.73c.94-1.9,2-3.87,3.22-5.87A75.36,75.36,0,0,1,236.29,93.5" transform="translate(-5.05 -15.06)"/><path class="cls-4" d="M502.75,234.1c-2.72-4.9-5.82-11.27-9.71-19.83L429.59,87.8l-1.3-2a8.35,8.35,0,0,0-.86-.64,11.54,11.54,0,0,0-6.24-1.87l-23.28-.41a7.17,7.17,0,0,1-1,.45l-.18.17a2.3,2.3,0,0,0-.15,1.05l0,10.43.05.31a1.39,1.39,0,0,0,0,.32,1.76,1.76,0,0,0,.94,1,2,2,0,0,0,1,.2h20.48L487.26,233.4H101.33L169.62,97l6.4-.09c.39.06,11.14.07,11.83.06,2.92,0,3.08.11,3.15-.52.13-1.25.51-2.92.72-6.19.22-3.47.15-2.94.21-4.57,0-1,.79-2.24-3.73-2.32,0,0-2-.17-11.54-.32l-9.83-.16a12,12,0,0,0-1.71,0,9,9,0,0,0-2.67.5,5.93,5.93,0,0,0-2.89,2.94L85,235.18,84.32,237a7,7,0,0,0-.31,1.35,6.73,6.73,0,0,0,2.11,5.6,6.13,6.13,0,0,0,3.4,1.39l409.71,0h1.61a3.45,3.45,0,0,0,1.24-.23,4.45,4.45,0,0,0,2.36-2.54C505.8,239.6,503,234.52,502.75,234.1Z" transform="translate(-5.05 -15.06)"/><line class="cls-5" x1="155.67" y1="213.05" x2="197.68" y2="93.16"/><line class="cls-5" x1="209.48" y1="213.05" x2="235.68" y2="93.16"/><line class="cls-5" x1="261.04" y1="213.71" x2="273.03" y2="93.16"/><line class="cls-5" x1="426.69" y1="213.05" x2="384.68" y2="93.16"/><line class="cls-5" x1="369.31" y1="213.05" x2="344.42" y2="93.16"/><line class="cls-5" x1="316.03" y1="213.71" x2="304.04" y2="93.16"/><line class="cls-6" x1="128.91" y1="179.59" x2="452.56" y2="182.85"/><line class="cls-6" x1="140.22" y1="153.57" x2="437.87" y2="156.56"/><line class="cls-6" x1="151.9" y1="128.83" x2="428.66" y2="131.62"/><line class="cls-6" x1="162.52" y1="107.84" x2="418.15" y2="110.41"/><path class="cls-7" d="M292.48,32.25a33.82,33.82,0,0,0-2.16,2.87,37.07,37.07,0,0,0-3.8,7.36,30.9,30.9,0,0,0-1.75,5.2,25.21,25.21,0,0,0-.47,8.52c.4,3.14,1.33,5.2,2.81,8.47a48.48,48.48,0,0,0,6.19,9.23,2.77,2.77,0,0,0,.87.76,3.2,3.2,0,0,0,2.75.24,3,3,0,0,0,1.34-1.35c1.88-3.38,3.13-3.31,5.49-8.23A28.36,28.36,0,0,0,307,55a26.7,26.7,0,0,0-.82-9.12,29.15,29.15,0,0,0-2-5.19,35.41,35.41,0,0,0-3.68-6.14,7.91,7.91,0,0,1-1.4-2.51,11.45,11.45,0,0,1-.35-1.4,19.67,19.67,0,0,1-.35-2.51c-.13-1.6-.31-2.94-.47-4.15-.5-3.81-.89-4-.82-5.32a10,10,0,0,0-.23-2,1.24,1.24,0,0,0-.35-.82,1,1,0,0,0-1.29,0,1.06,1.06,0,0,0-.17.76,17.29,17.29,0,0,1-.35,2s-.3,1.68-.88,5c-.42,2.4-.62,3.56-.82,4.67-.14.84-.32,1.89-.46,2.69Z" transform="translate(-5.05 -15.06)"/><path class="cls-7" d="M264.9,67.6a34.89,34.89,0,0,0-.23,3.58,37.54,37.54,0,0,0,.88,8.24,30.87,30.87,0,0,0,1.4,5.3,25.3,25.3,0,0,0,4.3,7.38c2.06,2.4,4,3.61,7,5.53a48.35,48.35,0,0,0,10.25,4.3,3.07,3.07,0,0,0,1.15.16,3.16,3.16,0,0,0,2.42-1.32,3,3,0,0,0,.38-1.86c-.29-3.86.79-4.49.06-9.9a28.32,28.32,0,0,0-3-10.43,26.36,26.36,0,0,0-5.7-7.16,28.43,28.43,0,0,0-4.51-3.25,36.08,36.08,0,0,0-6.45-3.1,7.88,7.88,0,0,1-2.55-1.33,12.78,12.78,0,0,1-1.07-1,20.09,20.09,0,0,1-1.67-1.91c-1-1.26-1.87-2.28-2.67-3.21-2.51-2.9-3-2.88-3.61-4A9.89,9.89,0,0,0,260,52.09a1.22,1.22,0,0,0-.74-.49,1,1,0,0,0-1.08.7c-.05.27.12.48.28.73a15.82,15.82,0,0,1,.79,1.85s.69,1.57,2,4.68c1,2.23,1.44,3.32,1.88,4.35.34.79.77,1.76,1.09,2.51Z" transform="translate(-5.05 -15.06)"/><path class="cls-7" d="M264.9,102.52a34.69,34.69,0,0,0-.23,3.58,37.36,37.36,0,0,0,.88,8.23,31,31,0,0,0,1.4,5.31,25.3,25.3,0,0,0,4.3,7.38c2.06,2.4,4,3.61,7,5.53a49,49,0,0,0,10.25,4.3,2.92,2.92,0,0,0,1.15.15,3.18,3.18,0,0,0,2.42-1.31,3,3,0,0,0,.38-1.86c-.29-3.86.79-4.5.06-9.9a28.37,28.37,0,0,0-3-10.44,26.52,26.52,0,0,0-5.7-7.16,29.79,29.79,0,0,0-4.51-3.25,36.78,36.78,0,0,0-6.45-3.1,8,8,0,0,1-2.55-1.32,12.84,12.84,0,0,1-1.07-1,20.42,20.42,0,0,1-1.67-1.9c-1-1.26-1.87-2.28-2.67-3.21-2.51-2.9-3-2.88-3.61-4A10.3,10.3,0,0,0,260,87a1.27,1.27,0,0,0-.74-.49,1,1,0,0,0-1.08.71c-.05.26.12.48.28.73a14.49,14.49,0,0,1,.79,1.85s.69,1.57,2,4.68c1,2.23,1.44,3.32,1.88,4.35.34.78.77,1.75,1.09,2.5Z" transform="translate(-5.05 -15.06)"/><path class="cls-7" d="M264.9,138.06a34.66,34.66,0,0,0-.23,3.57,37.39,37.39,0,0,0,.88,8.24,31,31,0,0,0,1.4,5.31,25.46,25.46,0,0,0,4.3,7.38c2.06,2.39,4,3.61,7,5.53a49,49,0,0,0,10.25,4.3,2.92,2.92,0,0,0,1.15.15,3.18,3.18,0,0,0,2.42-1.31,3,3,0,0,0,.38-1.87c-.29-3.86.79-4.49.06-9.89a28.37,28.37,0,0,0-3-10.44,26.52,26.52,0,0,0-5.7-7.16,29.1,29.1,0,0,0-4.51-3.25,36.78,36.78,0,0,0-6.45-3.1,8,8,0,0,1-2.55-1.32,12.84,12.84,0,0,1-1.07-1,18.88,18.88,0,0,1-1.67-1.91c-1-1.26-1.87-2.28-2.67-3.2-2.51-2.9-3-2.88-3.61-4a10.3,10.3,0,0,0-1.32-1.58,1.22,1.22,0,0,0-.74-.49,1,1,0,0,0-1.08.71c-.05.26.12.48.28.73a14.49,14.49,0,0,1,.79,1.85s.69,1.57,2,4.68c1,2.23,1.44,3.31,1.88,4.35.34.78.77,1.75,1.09,2.5Z" transform="translate(-5.05 -15.06)"/><path class="cls-7" d="M320.47,63.9a34.73,34.73,0,0,0-3.36,1.23,37.49,37.49,0,0,0-7.19,4.13,30.47,30.47,0,0,0-4.29,3.41,25.12,25.12,0,0,0-5,6.91c-1.37,2.85-1.71,5.09-2.25,8.64a48.84,48.84,0,0,0,.2,11.11,3,3,0,0,0,.32,1.11,3.17,3.17,0,0,0,2.18,1.69,3,3,0,0,0,1.86-.4c3.41-1.83,4.43-1.09,9.08-3.94a28.28,28.28,0,0,0,8.36-6.91,26.24,26.24,0,0,0,4.26-8.09,29.88,29.88,0,0,0,1.15-5.45,35.74,35.74,0,0,0,.24-7.15,8.1,8.1,0,0,1,.18-2.87,12.21,12.21,0,0,1,.47-1.37,20.77,20.77,0,0,1,1.07-2.3c.76-1.41,1.33-2.63,1.86-3.73,1.64-3.47,1.44-3.88,2.2-4.91a10.05,10.05,0,0,0,.91-1.85,1.2,1.2,0,0,0,.15-.87,1,1,0,0,0-1.08-.7c-.26.06-.39.3-.56.54a15.9,15.9,0,0,1-1.37,1.48l-3.46,3.74-3.23,3.48-1.85,2Z" transform="translate(-5.05 -15.06)"/><path class="cls-7" d="M320.73,98.79a35.29,35.29,0,0,0-3.37,1.24,36.88,36.88,0,0,0-7.18,4.12,31.32,31.32,0,0,0-4.3,3.41,25.12,25.12,0,0,0-5,6.91c-1.37,2.85-1.7,5.09-2.24,8.64a49.1,49.1,0,0,0,.19,11.11,3,3,0,0,0,.32,1.11,3.21,3.21,0,0,0,2.18,1.69,3,3,0,0,0,1.86-.4c3.41-1.82,4.43-1.09,9.08-3.94a28.16,28.16,0,0,0,8.36-6.91,26.24,26.24,0,0,0,4.26-8.09,28.88,28.88,0,0,0,1.15-5.45,35.74,35.74,0,0,0,.24-7.15,8.18,8.18,0,0,1,.19-2.87,11,11,0,0,1,.47-1.37A20.89,20.89,0,0,1,328,98.55c.76-1.41,1.34-2.63,1.86-3.74,1.65-3.47,1.44-3.88,2.2-4.91a9.87,9.87,0,0,0,.91-1.84,1.19,1.19,0,0,0,.15-.88,1,1,0,0,0-1.08-.7c-.26.06-.39.3-.55.54a17.52,17.52,0,0,1-1.38,1.48l-3.46,3.75-3.22,3.48-1.85,2Z" transform="translate(-5.05 -15.06)"/><path class="cls-7" d="M320.73,134.33a34.74,34.74,0,0,0-3.37,1.23,37.34,37.34,0,0,0-7.18,4.13,30.58,30.58,0,0,0-4.3,3.41,25.12,25.12,0,0,0-5,6.91c-1.37,2.85-1.7,5.09-2.24,8.64a49.1,49.1,0,0,0,.19,11.11,3,3,0,0,0,.32,1.11,3.21,3.21,0,0,0,2.18,1.69,3,3,0,0,0,1.86-.4c3.41-1.83,4.43-1.09,9.08-3.94a28.16,28.16,0,0,0,8.36-6.91,26.24,26.24,0,0,0,4.26-8.09,29,29,0,0,0,1.15-5.45,35.74,35.74,0,0,0,.24-7.15,8.18,8.18,0,0,1,.19-2.87,10.48,10.48,0,0,1,.47-1.37,21.37,21.37,0,0,1,1.06-2.3c.76-1.41,1.34-2.62,1.86-3.73,1.65-3.47,1.44-3.88,2.2-4.91a9.72,9.72,0,0,0,.91-1.85,1.16,1.16,0,0,0,.15-.87A1,1,0,0,0,332,122c-.26.06-.39.3-.55.54a17.52,17.52,0,0,1-1.38,1.48l-3.46,3.74-3.22,3.49-1.85,2Z" transform="translate(-5.05 -15.06)"/><path class="cls-7" d="M288.37,206.05a5.76,5.76,0,0,0,.15,1.12,6.3,6.3,0,0,0,2,3.22,6.74,6.74,0,0,0,1.69,1.07,8.22,8.22,0,0,0,6.23.31,7.34,7.34,0,0,0,1.89-1.07,6.65,6.65,0,0,0,2.55-4.39,5,5,0,0,0,0-.87V180.73a4.9,4.9,0,0,0-.05-.77c-.31-1.93-1.88-3.19-2.81-3.93a6.75,6.75,0,0,0-1.79-1.17,7,7,0,0,0-5.1,0,7.53,7.53,0,0,0-4.75,5.21v25.93Z" transform="translate(-5.05 -15.06)"/><path class="cls-8" d="M101.67,255.24h30.4l20.13,28.47h1l20.13-28.47h30.4V345h-30V298.07H173l-19.75,26h-1l-19.75-26h-.77V345h-30Z" transform="translate(-5.05 -15.06)"/><path class="cls-8" d="M275.45,335.91H243.13l-2.44,9.1H209.53l26.16-89.77h47.2L309.05,345H277.89Zm-6.41-24-8.72-33h-2.06l-8.72,33Z" transform="translate(-5.05 -15.06)"/><path class="cls-8" d="M407.54,283.71c0,15.77-14.49,28.21-30.52,28.21H346.11V345h-30V255.24h62.2C396.51,255.24,407.54,265.75,407.54,283.71Zm-30-.26c0-3.08-2-4.49-4.87-4.49H346.11v9.24h26.55A4.62,4.62,0,0,0,377.53,283.45Z" transform="translate(-5.05 -15.06)"/><path class="cls-8" d="M413.7,321.29h46.81c4,0,5.9-1.8,5.9-4.75s-1.92-4.62-6-4.62H439.09c-15,0-27.19-10.26-27.19-28.34,0-20.78,14.24-28.34,28.6-28.34h53.1V279H447.81c-3.46,0-5.9,1.29-5.9,4.49s2.44,4.75,5.9,4.75h20c17.19,0,28.6,10.13,28.6,28.21,0,17.06-12.82,28.6-29.5,28.6H413.31Z" transform="translate(-5.05 -15.06)"/><path class="cls-8" d="M120.42,377.38h-2.51l-4.33-11.72h-.06l-3.84,11.72h-2.61l-4.94-15.24h2.8l3.48,11.72h.06l3.94-11.72h2.67l4,11.72h.07l3.45-11.72h2.73Z" transform="translate(-5.05 -15.06)"/><path class="cls-8" d="M144.54,377.38H142l-4.33-11.72h-.06l-3.85,11.72h-2.6l-5-15.24H129l3.49,11.72h.06l3.94-11.72h2.67l4,11.72h.07l3.45-11.72h2.73Z" transform="translate(-5.05 -15.06)"/><path class="cls-8" d="M168.65,377.38h-2.5l-4.33-11.72h-.07l-3.84,11.72h-2.6l-4.95-15.24h2.8l3.48,11.72h.07l3.94-11.72h2.66l4,11.72h.06l3.45-11.72h2.74Z" transform="translate(-5.05 -15.06)"/><path class="cls-8" d="M176.76,373.67a1.87,1.87,0,0,1,1.38.56,1.9,1.9,0,0,1,.57,1.39,1.83,1.83,0,0,1-.6,1.38,2,2,0,0,1-1.35.57,1.91,1.91,0,0,1-1.35-.57,1.81,1.81,0,0,1-.61-1.38,1.9,1.9,0,0,1,.57-1.39A1.88,1.88,0,0,1,176.76,373.67Z" transform="translate(-5.05 -15.06)"/><path class="cls-8" d="M183.69,365.76c0-.7,0-1.35-.07-2s-.06-1.16-.06-1.66H186c0,.42,0,.83,0,1.24s0,.84,0,1.27h.07a4,4,0,0,1,.73-1.07,5.14,5.14,0,0,1,1.12-.93,6,6,0,0,1,1.47-.65,5.78,5.78,0,0,1,1.75-.25,6.1,6.1,0,0,1,2.07.31,5.28,5.28,0,0,1,1.38.75,3.8,3.8,0,0,1,.87.94c.2.34.37.64.5.9a7.09,7.09,0,0,1,1.95-2.13,5,5,0,0,1,2.87-.77,7.51,7.51,0,0,1,2.73.44,4.39,4.39,0,0,1,1.79,1.27,5,5,0,0,1,1,2,11.38,11.38,0,0,1,.29,2.65v9.25h-2.54v-9.12a7.1,7.1,0,0,0-.16-1.53,3.41,3.41,0,0,0-.59-1.33,3.06,3.06,0,0,0-1.14-.95,4.16,4.16,0,0,0-1.82-.35,3.78,3.78,0,0,0-1.53.32,3.87,3.87,0,0,0-1.25.91,4.37,4.37,0,0,0-.85,1.42,5.38,5.38,0,0,0-.31,1.84v8.79h-2.53v-8.63a6.94,6.94,0,0,0-.69-3.6,2.46,2.46,0,0,0-2.24-1,5,5,0,0,0-2.14.42,3.79,3.79,0,0,0-1.46,1.2,5.49,5.49,0,0,0-.85,1.86,9.71,9.71,0,0,0-.27,2.37v7.43h-2.54Z" transform="translate(-5.05 -15.06)"/><path class="cls-8" d="M211.06,356.19a1.78,1.78,0,0,1,.54-1.3,1.74,1.74,0,0,1,1.31-.56,1.76,1.76,0,0,1,1.32.56,1.87,1.87,0,1,1-3.17,1.3Zm.59,5.95h2.53v15.24h-2.53Z" transform="translate(-5.05 -15.06)"/><path class="cls-8" d="M230.07,366a5.17,5.17,0,0,0-1.76-1.41,4.79,4.79,0,0,0-2.08-.44,5.32,5.32,0,0,0-2.25.44,4.28,4.28,0,0,0-1.61,1.22,5.56,5.56,0,0,0-1,1.8,7.18,7.18,0,0,0-.33,2.2,6.4,6.4,0,0,0,.38,2.2,5.74,5.74,0,0,0,1,1.8,4.62,4.62,0,0,0,1.61,1.22,4.85,4.85,0,0,0,2.12.44,4.49,4.49,0,0,0,3.87-1.89l1.89,1.79a6.61,6.61,0,0,1-2.61,1.86,8.92,8.92,0,0,1-6.38,0,7,7,0,0,1-2.49-1.66,7.7,7.7,0,0,1-1.59-2.54,9.3,9.3,0,0,1,0-6.41,7.59,7.59,0,0,1,1.61-2.54,7.35,7.35,0,0,1,2.49-1.68,8.31,8.31,0,0,1,3.21-.6,8.82,8.82,0,0,1,3.2.59,7,7,0,0,1,2.65,1.82Z" transform="translate(-5.05 -15.06)"/><path class="cls-8" d="M234.92,365.76c0-.7,0-1.35-.07-2s-.06-1.16-.06-1.66h2.4c0,.42,0,.83,0,1.24s0,.84,0,1.27h.06a4.29,4.29,0,0,1,.74-1.07,4.91,4.91,0,0,1,1.12-.93,6.1,6.1,0,0,1,3.22-.9,3,3,0,0,1,.52,0,1.89,1.89,0,0,1,.52.13l-.16,2.57a4.73,4.73,0,0,0-1.37-.2,3.88,3.88,0,0,0-3.4,1.51,7.2,7.2,0,0,0-1.06,4.15v7.43h-2.53Z" transform="translate(-5.05 -15.06)"/><path class="cls-8" d="M244.91,369.76a8.2,8.2,0,0,1,.62-3.26,7.7,7.7,0,0,1,1.69-2.52,7.5,7.5,0,0,1,2.57-1.64,9.27,9.27,0,0,1,6.51,0,7.6,7.6,0,0,1,2.57,1.64,7.7,7.7,0,0,1,1.69,2.52,8.38,8.38,0,0,1,.62,3.26,8.29,8.29,0,0,1-.62,3.25,7.41,7.41,0,0,1-4.26,4.17,9.27,9.27,0,0,1-6.51,0,7.5,7.5,0,0,1-2.57-1.64,7.64,7.64,0,0,1-1.69-2.53A8.12,8.12,0,0,1,244.91,369.76Zm2.73,0A6.49,6.49,0,0,0,248,372a5.14,5.14,0,0,0,2.79,3,5.38,5.38,0,0,0,2.23.44,5.32,5.32,0,0,0,2.23-.44,5.12,5.12,0,0,0,2.8-3,6.73,6.73,0,0,0,0-4.46,5.12,5.12,0,0,0-2.8-3,5.32,5.32,0,0,0-2.23-.44,5.38,5.38,0,0,0-2.23.44,5.14,5.14,0,0,0-2.79,3A6.44,6.44,0,0,0,247.64,369.76Z" transform="translate(-5.05 -15.06)"/><path class="cls-8" d="M265.12,365.76c0-.7,0-1.35-.07-2s-.06-1.16-.06-1.66h2.41c0,.42,0,.83,0,1.24s0,.84,0,1.27h.07a4,4,0,0,1,.73-1.07,5.14,5.14,0,0,1,1.12-.93,6,6,0,0,1,1.47-.65,5.78,5.78,0,0,1,1.75-.25,6.59,6.59,0,0,1,2.59.46,4.85,4.85,0,0,1,1.81,1.27,5.13,5.13,0,0,1,1.06,2,9.14,9.14,0,0,1,.34,2.52v9.41h-2.54v-9.15a4.85,4.85,0,0,0-.85-3,3.08,3.08,0,0,0-2.63-1.1,5,5,0,0,0-2.14.42,3.79,3.79,0,0,0-1.46,1.2,5.49,5.49,0,0,0-.85,1.86,9.71,9.71,0,0,0-.27,2.37v7.43h-2.54Z" transform="translate(-5.05 -15.06)"/><path class="cls-8" d="M296.49,373.76c0,.7,0,1.35.07,1.95s.06,1.17.06,1.67h-2.41c0-.42,0-.83,0-1.24s0-.84,0-1.27h-.07a4,4,0,0,1-.73,1.07,5.14,5.14,0,0,1-1.12.93,5.8,5.8,0,0,1-1.47.65,6.11,6.11,0,0,1-1.75.25,6.77,6.77,0,0,1-2.59-.46,4.85,4.85,0,0,1-1.81-1.27,5.11,5.11,0,0,1-1.05-2,8.77,8.77,0,0,1-.35-2.52v-9.41h2.54v9.15a4.85,4.85,0,0,0,.85,3,3.12,3.12,0,0,0,2.64,1.1,5,5,0,0,0,2.13-.42,3.73,3.73,0,0,0,1.46-1.21,5.43,5.43,0,0,0,.85-1.85,9.79,9.79,0,0,0,.27-2.38v-7.42h2.54Z" transform="translate(-5.05 -15.06)"/><path class="cls-8" d="M309.64,364.29h-4.49v7.62q0,.75,0,1.38a2.92,2.92,0,0,0,.26,1.11,1.78,1.78,0,0,0,.69.75,2.54,2.54,0,0,0,1.3.27,5,5,0,0,0,1.14-.13,4.11,4.11,0,0,0,1.1-.39l.1,2.31a5.71,5.71,0,0,1-1.45.43,10.16,10.16,0,0,1-1.51.13,5.47,5.47,0,0,1-2.18-.36,3,3,0,0,1-1.27-1,3.86,3.86,0,0,1-.6-1.61,13.86,13.86,0,0,1-.15-2.13v-8.37h-3.32v-2.15h3.32v-4.33h2.54v4.33h4.49Z" transform="translate(-5.05 -15.06)"/><path class="cls-8" d="M312.77,365.76c0-.7,0-1.35-.07-2s-.06-1.16-.06-1.66H315c0,.42,0,.83,0,1.24s0,.84,0,1.27h.06a4.29,4.29,0,0,1,.74-1.07,4.91,4.91,0,0,1,1.12-.93,6.1,6.1,0,0,1,3.22-.9,3,3,0,0,1,.52,0,1.89,1.89,0,0,1,.52.13l-.16,2.57a4.73,4.73,0,0,0-1.37-.2,3.88,3.88,0,0,0-3.4,1.51A7.2,7.2,0,0,0,315.3,370v7.43h-2.53Z" transform="translate(-5.05 -15.06)"/><path class="cls-8" d="M323.86,356.19a1.85,1.85,0,0,1,3.18-1.3,1.81,1.81,0,0,1,.53,1.3,1.78,1.78,0,0,1-1.85,1.85,1.78,1.78,0,0,1-1.86-1.85Zm.59,5.95H327v15.24h-2.54Z" transform="translate(-5.05 -15.06)"/><path class="cls-8" d="M345.64,374.61a7.75,7.75,0,0,1-3,2.46,9.57,9.57,0,0,1-3.77.7,7.87,7.87,0,0,1-3.22-.64,7.12,7.12,0,0,1-2.43-1.71,7.47,7.47,0,0,1-1.53-2.54,8.9,8.9,0,0,1-.54-3.12,8.76,8.76,0,0,1,.59-3.24,7.44,7.44,0,0,1,1.63-2.54,7.36,7.36,0,0,1,2.47-1.64,8.18,8.18,0,0,1,3.12-.59,7.72,7.72,0,0,1,2.93.54,6.43,6.43,0,0,1,2.3,1.56,7.11,7.11,0,0,1,1.48,2.51,10.06,10.06,0,0,1,.52,3.37v.81h-12.3a5.26,5.26,0,0,0,.47,1.87,5.19,5.19,0,0,0,1.06,1.56A4.72,4.72,0,0,0,337,375a4.64,4.64,0,0,0,1.92.39,6.1,6.1,0,0,0,2.8-.58,6.38,6.38,0,0,0,2.05-1.73Zm-2.18-6.22a4.41,4.41,0,0,0-1.27-3.12,4.58,4.58,0,0,0-3.32-1.17,4.93,4.93,0,0,0-3.42,1.17,4.88,4.88,0,0,0-1.56,3.12Z" transform="translate(-5.05 -15.06)"/><path class="cls-8" d="M350.13,365.76c0-.7,0-1.35-.07-2s-.06-1.16-.06-1.66h2.41c0,.42,0,.83,0,1.24s0,.84,0,1.27h.07a4,4,0,0,1,.73-1.07,5.14,5.14,0,0,1,1.12-.93,6,6,0,0,1,1.47-.65,5.78,5.78,0,0,1,1.75-.25,6.59,6.59,0,0,1,2.59.46,4.85,4.85,0,0,1,1.81,1.27,5.13,5.13,0,0,1,1.06,2,9.14,9.14,0,0,1,.34,2.52v9.41h-2.54v-9.15a4.85,4.85,0,0,0-.85-3,3.08,3.08,0,0,0-2.63-1.1,5,5,0,0,0-2.14.42,3.79,3.79,0,0,0-1.46,1.2,5.49,5.49,0,0,0-.85,1.86,9.71,9.71,0,0,0-.27,2.37v7.43h-2.54Z" transform="translate(-5.05 -15.06)"/><path class="cls-8" d="M376.56,364.29h-4.49v7.62q0,.75,0,1.38a2.92,2.92,0,0,0,.26,1.11,1.82,1.82,0,0,0,.68.75,2.6,2.6,0,0,0,1.3.27,5,5,0,0,0,1.14-.13,4.31,4.31,0,0,0,1.11-.39l.1,2.31a5.84,5.84,0,0,1-1.45.43,10.27,10.27,0,0,1-1.51.13,5.52,5.52,0,0,1-2.19-.36,3,3,0,0,1-1.26-1,3.74,3.74,0,0,1-.61-1.61,15.33,15.33,0,0,1-.14-2.13v-8.37h-3.32v-2.15h3.32v-4.33h2.54v4.33h4.49Z" transform="translate(-5.05 -15.06)"/><path class="cls-8" d="M381.8,373.67a1.87,1.87,0,0,1,1.38.56,1.9,1.9,0,0,1,.57,1.39,1.83,1.83,0,0,1-.6,1.38,1.88,1.88,0,0,1-2.7,0,1.81,1.81,0,0,1-.61-1.38,1.9,1.9,0,0,1,.57-1.39A1.88,1.88,0,0,1,381.8,373.67Z" transform="translate(-5.05 -15.06)"/><path class="cls-8" d="M389.05,373.37a6.42,6.42,0,0,0,1.65,1.5,4.2,4.2,0,0,0,2.26.55,5.42,5.42,0,0,0,1.19-.13,3.58,3.58,0,0,0,1.09-.42,2.6,2.6,0,0,0,.78-.73,1.93,1.93,0,0,0,.29-1.06,1.75,1.75,0,0,0-.27-1,2.53,2.53,0,0,0-.74-.67,4.28,4.28,0,0,0-1-.44l-1.2-.29c-.72-.15-1.4-.33-2.05-.52a6.72,6.72,0,0,1-1.71-.77,3.5,3.5,0,0,1-1.17-1.22,3.64,3.64,0,0,1-.44-1.92,3.82,3.82,0,0,1,.49-1.95,4.14,4.14,0,0,1,1.3-1.4,6.19,6.19,0,0,1,1.82-.84,7.27,7.27,0,0,1,2.08-.3,7,7,0,0,1,3,.65,4.68,4.68,0,0,1,2.17,2.12l-2.12,1.4a3.94,3.94,0,0,0-1.28-1.32,3.55,3.55,0,0,0-1.94-.5,4.33,4.33,0,0,0-1.06.13,2.94,2.94,0,0,0-1,.39,2.32,2.32,0,0,0-.7.66,1.66,1.66,0,0,0-.27.93,1.17,1.17,0,0,0,.31.83,2.52,2.52,0,0,0,.84.6,6.85,6.85,0,0,0,1.24.46,12.8,12.8,0,0,0,1.45.32,14.2,14.2,0,0,1,1.92.51,5.57,5.57,0,0,1,1.59.83,3.68,3.68,0,0,1,1.08,1.3,4.27,4.27,0,0,1,.39,1.92,4.43,4.43,0,0,1-.52,2.21,4.2,4.2,0,0,1-1.39,1.48,5.9,5.9,0,0,1-1.95.83,9.26,9.26,0,0,1-2.23.27,8.63,8.63,0,0,1-3.37-.61,6.09,6.09,0,0,1-2.55-2.23Z" transform="translate(-5.05 -15.06)"/><path class="cls-8" d="M415.87,373.76c0,.7,0,1.35.07,1.95s.06,1.17.06,1.67h-2.41c0-.42,0-.83,0-1.24s0-.84,0-1.27h-.07a4,4,0,0,1-.73,1.07,5.14,5.14,0,0,1-1.12.93,6,6,0,0,1-1.47.65,6.11,6.11,0,0,1-1.75.25,6.77,6.77,0,0,1-2.59-.46A4.85,4.85,0,0,1,404,376a5.13,5.13,0,0,1-1.06-2,9.14,9.14,0,0,1-.34-2.52v-9.41h2.54v9.15a4.85,4.85,0,0,0,.85,3,3.11,3.11,0,0,0,2.63,1.1,5,5,0,0,0,2.14-.42,3.73,3.73,0,0,0,1.46-1.21,5.43,5.43,0,0,0,.85-1.85,9.79,9.79,0,0,0,.27-2.38v-7.42h2.54Z" transform="translate(-5.05 -15.06)"/><path class="cls-8" d="M420.56,362.14h2.54v2.22h.06a7.34,7.34,0,0,1,2.43-1.92,6.69,6.69,0,0,1,3-.69,8.65,8.65,0,0,1,3.27.6,7.28,7.28,0,0,1,2.52,1.68,7.64,7.64,0,0,1,1.63,2.54,8.92,8.92,0,0,1,0,6.38,8,8,0,0,1-1.61,2.54,7.27,7.27,0,0,1-2.43,1.67,7.5,7.5,0,0,1-3,.61,7,7,0,0,1-3.6-.9,5.84,5.84,0,0,1-2.26-2.2h-.06V384.8h-2.54Zm2.54,7.62a6.48,6.48,0,0,0,.37,2.23,5.12,5.12,0,0,0,2.8,3,5.87,5.87,0,0,0,4.46,0,5.12,5.12,0,0,0,2.8-3,6.91,6.91,0,0,0,0-4.46,5.12,5.12,0,0,0-2.8-3,5.87,5.87,0,0,0-4.46,0,5.12,5.12,0,0,0-2.8,3A6.44,6.44,0,0,0,423.1,369.76Z" transform="translate(-5.05 -15.06)"/><path class="cls-8" d="M440.44,362.14H443v2.22h.07a7.3,7.3,0,0,1,2.42-1.92,6.73,6.73,0,0,1,3-.69,8.65,8.65,0,0,1,3.27.6,7.47,7.47,0,0,1,2.52,1.68,7.8,7.8,0,0,1,1.63,2.54,9.06,9.06,0,0,1,0,6.38,8,8,0,0,1-1.61,2.54,7.53,7.53,0,0,1-5.42,2.28,7,7,0,0,1-3.6-.9,5.84,5.84,0,0,1-2.26-2.2H443V384.8h-2.54Zm2.54,7.62a6.49,6.49,0,0,0,.38,2.23,5.19,5.19,0,0,0,1.09,1.79,5,5,0,0,0,1.71,1.2,5.32,5.32,0,0,0,2.23.44,5.38,5.38,0,0,0,2.23-.44,5,5,0,0,0,1.7-1.2,5.19,5.19,0,0,0,1.09-1.79,6.73,6.73,0,0,0,0-4.46,5.19,5.19,0,0,0-1.09-1.79,5,5,0,0,0-1.7-1.2,5.38,5.38,0,0,0-2.23-.44,5.32,5.32,0,0,0-2.23.44,5,5,0,0,0-1.71,1.2,5.19,5.19,0,0,0-1.09,1.79A6.44,6.44,0,0,0,443,369.76Z" transform="translate(-5.05 -15.06)"/><path class="cls-8" d="M459.58,369.76a8.38,8.38,0,0,1,.62-3.26,7.86,7.86,0,0,1,1.69-2.52,7.6,7.6,0,0,1,2.57-1.64,9.27,9.27,0,0,1,6.51,0,7.5,7.5,0,0,1,2.57,1.64,7.89,7.89,0,0,1,1.7,2.52,8.38,8.38,0,0,1,.61,3.26,8.29,8.29,0,0,1-.61,3.25,7.82,7.82,0,0,1-1.7,2.53,7.5,7.5,0,0,1-2.57,1.64,9.27,9.27,0,0,1-6.51,0,7.6,7.6,0,0,1-2.57-1.64A7.8,7.8,0,0,1,460.2,373,8.29,8.29,0,0,1,459.58,369.76Zm2.74,0a6.48,6.48,0,0,0,.37,2.23,5.12,5.12,0,0,0,2.8,3,5.87,5.87,0,0,0,4.46,0,5.18,5.18,0,0,0,1.71-1.2,5.35,5.35,0,0,0,1.09-1.79,6.91,6.91,0,0,0,0-4.46,5.35,5.35,0,0,0-1.09-1.79,5.18,5.18,0,0,0-1.71-1.2,5.87,5.87,0,0,0-4.46,0,5.12,5.12,0,0,0-2.8,3A6.44,6.44,0,0,0,462.32,369.76Z" transform="translate(-5.05 -15.06)"/><path class="cls-8" d="M479.79,365.76c0-.7,0-1.35-.06-2s-.07-1.16-.07-1.66h2.41c0,.42,0,.83,0,1.24s0,.84,0,1.27h.06a4.24,4.24,0,0,1,.73-1.07,5.2,5.2,0,0,1,1.13-.93,6.1,6.1,0,0,1,3.22-.9,3.12,3.12,0,0,1,.52,0,2,2,0,0,1,.52.13l-.16,2.57a4.78,4.78,0,0,0-1.37-.2,3.87,3.87,0,0,0-3.4,1.51,7.12,7.12,0,0,0-1.06,4.15v7.43h-2.54Z" transform="translate(-5.05 -15.06)"/><path class="cls-8" d="M499.58,364.29h-4.49v7.62q0,.75,0,1.38a2.92,2.92,0,0,0,.26,1.11,1.78,1.78,0,0,0,.69.75,2.54,2.54,0,0,0,1.3.27,5,5,0,0,0,1.14-.13,4.11,4.11,0,0,0,1.1-.39l.1,2.31a5.71,5.71,0,0,1-1.45.43,10.16,10.16,0,0,1-1.51.13,5.47,5.47,0,0,1-2.18-.36,3,3,0,0,1-1.27-1,3.61,3.61,0,0,1-.6-1.61,13.86,13.86,0,0,1-.15-2.13v-8.37h-3.32v-2.15h3.32v-4.33h2.54v4.33h4.49Z" transform="translate(-5.05 -15.06)"/><text x="-5.05" y="-15.06"/><text class="cls-9" x="-5.05" y="-15.06"/><path class="cls-4" d="M202.28,83" transform="translate(-5.05 -15.06)"/><path class="cls-1" d="M367,88.32c-.68.33.6,3.36,1.72,9.54.75,4.11.62,5.18,1.57,8.45,1.29,4.46,2.48,5.72,3.59,6.41a7.19,7.19,0,0,0,4.07.94,8.1,8.1,0,0,0,5.05-1.73c1-.87,1.71-2,2.69-6,.91-3.73,1.05-5.7,1.59-9,1.06-6.36,2.15-8.61,1.64-8.87s-2.92,2.19-10.83,15.2c-1.18-1.81-2.12-3.27-2.73-4.23a79.59,79.59,0,0,0-5.24-7.67C368.52,89.39,367.49,88.1,367,88.32Z" transform="translate(-5.05 -15.06)"/><path class="cls-10" d="M367,88.07" transform="translate(-5.05 -15.06)"/><path class="cls-1" d="M371.2,92.78l6.9,10.51,6.68-10.51a21.49,21.49,0,0,0,0-3.11c-.16-2.29-.48-7-3.55-10.62-.88-1-1.86-2.18-3.23-2.18-.34,0-1.66,0-3.36,2.32a19,19,0,0,0-3.44,10.24Z" transform="translate(-5.05 -15.06)"/><path class="cls-1" d="M376.71,113.67h2.67v11.78a13.15,13.15,0,0,1,1.14-3.27c2.34-3.11,5.3-4.4,8.11-5.66s6.24-2.83,11.11-5.15a1.16,1.16,0,0,1,.72,0,1.53,1.53,0,0,1,.93,1.3,1.88,1.88,0,0,1-.1.86,6.38,6.38,0,0,1-1.34,2.24c-2.6,4.12-4.48,7.14-5.51,8.9a21.36,21.36,0,0,1-1.7,2.49,18.79,18.79,0,0,1-1.91,2.09,17.28,17.28,0,0,1-4.36,2.88,19.06,19.06,0,0,1-7.43,1.73,18.66,18.66,0,0,1-7.43-.86,17.85,17.85,0,0,1-6.67-4.11,30,30,0,0,1-2.23-2.78c-.79-1.11-.9-1.43-2.16-3.49-1.69-2.75-1.71-2.52-2.82-4.44-.54-1-.95-1.71-1.87-3.24-.4-.67-.74-1.22-1-1.59a1.5,1.5,0,0,1,1.23-2.06,1.73,1.73,0,0,1,1.19.29l5.08,2.46c3.74,1.79,5.6,2.68,6.1,2.88a18.28,18.28,0,0,1,1.73.79,15.91,15.91,0,0,1,1.62,1c.4.27.67.48,1.12.83a16.38,16.38,0,0,1,1.48,1.22,13.06,13.06,0,0,1,1.36,1.86c.3.51.79,2.41,1.08,3.1Z" transform="translate(-5.05 -15.06)"/><path class="cls-8" d="M262.66,465h23.88l15.81,22.36h.81L319,465h23.87v70.5H319.27V498.6h-.6L303.16,519h-.81L286.84,498.6h-.61v36.86H262.66Z" transform="translate(-5.05 -15.06)"/><path class="cls-8" d="M399.14,528.31H373.76l-1.92,7.15H347.37L367.92,465H405l20.55,70.5H401.05Zm-5-18.83-6.85-25.89h-1.61l-6.85,25.89Z" transform="translate(-5.05 -15.06)"/><path class="cls-8" d="M502.88,487.32c0,12.39-11.38,22.16-24,22.16H454.63v26H431.06V465h48.86C494.22,465,502.88,473.22,502.88,487.32Zm-23.57-.2c0-2.42-1.61-3.53-3.83-3.53H454.63v7.25h20.85A3.62,3.62,0,0,0,479.31,487.12Z" transform="translate(-5.05 -15.06)"/><path class="cls-8" d="M507.71,516.83h36.77c3.12,0,4.63-1.41,4.63-3.73s-1.51-3.62-4.73-3.62H527.65c-11.78,0-21.35-8.06-21.35-22.26,0-16.32,11.18-22.26,22.46-22.26h41.7v18.63h-36c-2.72,0-4.63,1-4.63,3.53s1.91,3.72,4.63,3.72h15.72c13.49,0,22.46,8,22.46,22.16,0,13.4-10.07,22.46-23.17,22.46h-42.1Z" transform="translate(-5.05 -15.06)"/><path class="cls-8" d="M277.39,560.88h-2l-3.4-9.2h0l-3,9.2h-2l-3.89-12h2.2l2.74,9.2H268l3.09-9.2h2.1l3.14,9.2h.05l2.71-9.2h2.15Z" transform="translate(-5.05 -15.06)"/><path class="cls-8" d="M296.33,560.88h-2l-3.4-9.2h0l-3,9.2h-2l-3.89-12h2.2l2.74,9.2H287l3.09-9.2h2.1l3.14,9.2h.05l2.71-9.2h2.15Z" transform="translate(-5.05 -15.06)"/><path class="cls-8" d="M315.27,560.88h-2l-3.4-9.2h0l-3,9.2h-2l-3.89-12h2.2l2.74,9.2h.05l3.09-9.2h2.1l3.14,9.2h0l2.71-9.2h2.15Z" transform="translate(-5.05 -15.06)"/><path class="cls-8" d="M321.63,558a1.54,1.54,0,0,1,1.54,1.54,1.41,1.41,0,0,1-.48,1.08,1.49,1.49,0,0,1-1.06.45,1.51,1.51,0,0,1-1.06-.45,1.44,1.44,0,0,1-.47-1.08,1.48,1.48,0,0,1,.45-1.09A1.46,1.46,0,0,1,321.63,558Z" transform="translate(-5.05 -15.06)"/><path class="cls-8" d="M327.08,551.75q0-.81-.06-1.53c0-.48,0-.91,0-1.3h1.9c0,.32,0,.64,0,1s0,.65,0,1H329a3.29,3.29,0,0,1,.57-.84,4.56,4.56,0,0,1,.88-.73,5,5,0,0,1,1.15-.51,5.39,5.39,0,0,1,3,.05,3.94,3.94,0,0,1,1.08.59,2.92,2.92,0,0,1,.68.74c.16.27.3.5.4.7a5.52,5.52,0,0,1,1.53-1.67,3.88,3.88,0,0,1,2.25-.6,5.86,5.86,0,0,1,2.15.35,3.36,3.36,0,0,1,1.4,1,3.94,3.94,0,0,1,.77,1.59,8.83,8.83,0,0,1,.23,2.08v7.26h-2v-7.16a6,6,0,0,0-.13-1.2,2.93,2.93,0,0,0-.46-1,2.46,2.46,0,0,0-.9-.74,3.14,3.14,0,0,0-1.43-.28,2.91,2.91,0,0,0-1.2.26,3.12,3.12,0,0,0-1,.71,3.43,3.43,0,0,0-.67,1.11,4.2,4.2,0,0,0-.24,1.45v6.9h-2v-6.77a5.45,5.45,0,0,0-.54-2.83,2,2,0,0,0-1.76-.83,3.93,3.93,0,0,0-1.68.33,3,3,0,0,0-1.15,1,4.08,4.08,0,0,0-.66,1.46,7.19,7.19,0,0,0-.22,1.86v5.83h-2Z" transform="translate(-5.05 -15.06)"/><path class="cls-8" d="M348.57,544.24a1.42,1.42,0,0,1,.42-1,1.4,1.4,0,0,1,1-.44,1.38,1.38,0,0,1,1,.44,1.48,1.48,0,0,1,0,2.07,1.46,1.46,0,0,1-1.05.41,1.42,1.42,0,0,1-1-.41A1.44,1.44,0,0,1,348.57,544.24Zm.46,4.68h2v12h-2Z" transform="translate(-5.05 -15.06)"/><path class="cls-8" d="M363.5,551.91a4.12,4.12,0,0,0-1.38-1.11,3.86,3.86,0,0,0-1.64-.35,4.25,4.25,0,0,0-1.76.35,3.45,3.45,0,0,0-1.27,1,4.39,4.39,0,0,0-.75,1.42,5.7,5.7,0,0,0-.26,1.73,4.86,4.86,0,0,0,.3,1.72,4.61,4.61,0,0,0,.81,1.42,3.75,3.75,0,0,0,1.27,1,3.88,3.88,0,0,0,1.66.35,3.53,3.53,0,0,0,3-1.49l1.49,1.41a5.34,5.34,0,0,1-2.05,1.46,7.05,7.05,0,0,1-5,0,5.45,5.45,0,0,1-1.95-1.31,5.93,5.93,0,0,1-1.26-2,7.44,7.44,0,0,1,0-5,5.82,5.82,0,0,1,3.22-3.31,6.61,6.61,0,0,1,2.52-.47,6.83,6.83,0,0,1,2.52.46,5.47,5.47,0,0,1,2.08,1.43Z" transform="translate(-5.05 -15.06)"/><path class="cls-8" d="M367.31,551.75q0-.81-.06-1.53c0-.48-.05-.91-.05-1.3h1.89c0,.32,0,.64,0,1s0,.65,0,1h.05a3.29,3.29,0,0,1,.57-.84,4.56,4.56,0,0,1,.88-.73,5,5,0,0,1,1.15-.51,4.75,4.75,0,0,1,1.38-.19,2.73,2.73,0,0,1,.41,0,1.45,1.45,0,0,1,.41.1l-.13,2a3.74,3.74,0,0,0-1.07-.16,3,3,0,0,0-2.67,1.19,5.64,5.64,0,0,0-.83,3.26v5.83h-2Z" transform="translate(-5.05 -15.06)"/><path class="cls-8" d="M375.15,554.9a6.42,6.42,0,0,1,.49-2.56,6.16,6.16,0,0,1,1.33-2,5.93,5.93,0,0,1,2-1.29,6.84,6.84,0,0,1,2.55-.46,6.93,6.93,0,0,1,2.56.46,6,6,0,0,1,2,1.29,6.33,6.33,0,0,1,1.33,2,7,7,0,0,1,0,5.11,6.1,6.1,0,0,1-1.33,2,5.9,5.9,0,0,1-2,1.3,7.14,7.14,0,0,1-2.56.46,7,7,0,0,1-2.55-.46,5.81,5.81,0,0,1-2-1.3,6,6,0,0,1-1.33-2A6.37,6.37,0,0,1,375.15,554.9Zm2.15,0a5.22,5.22,0,0,0,.29,1.75,4.17,4.17,0,0,0,.86,1.4,3.89,3.89,0,0,0,1.34,1,4.55,4.55,0,0,0,3.5,0,3.89,3.89,0,0,0,1.34-1,4,4,0,0,0,.86-1.4,5.25,5.25,0,0,0,0-3.5,4.05,4.05,0,0,0-.86-1.41,4,4,0,0,0-1.34-.94,4.55,4.55,0,0,0-3.5,0,4,4,0,0,0-1.34.94,4.21,4.21,0,0,0-.86,1.41A5.18,5.18,0,0,0,377.3,554.9Z" transform="translate(-5.05 -15.06)"/><path class="cls-8" d="M391,551.75q0-.81-.06-1.53c0-.48-.05-.91-.05-1.3h1.89c0,.32,0,.64,0,1s0,.65,0,1h.05a3.29,3.29,0,0,1,.57-.84,4.56,4.56,0,0,1,.88-.73,5,5,0,0,1,1.15-.51,4.75,4.75,0,0,1,1.38-.19,5.24,5.24,0,0,1,2,.36,3.82,3.82,0,0,1,1.41,1,4.08,4.08,0,0,1,.84,1.55,7.35,7.35,0,0,1,.26,2v7.39h-2V553.7a3.85,3.85,0,0,0-.66-2.38,2.46,2.46,0,0,0-2.07-.87,3.93,3.93,0,0,0-1.68.33,3,3,0,0,0-1.15,1,4.08,4.08,0,0,0-.66,1.46,7.19,7.19,0,0,0-.22,1.86v5.83h-2Z" transform="translate(-5.05 -15.06)"/><path class="cls-8" d="M415.67,558c0,.55,0,1.06.05,1.54s0,.91,0,1.3h-1.89c0-.32,0-.65,0-1s0-.66,0-1h-.05a3.12,3.12,0,0,1-.57.84,3.93,3.93,0,0,1-.88.73,4.28,4.28,0,0,1-1.15.51,4.75,4.75,0,0,1-1.38.2,5.24,5.24,0,0,1-2-.36,3.85,3.85,0,0,1-1.42-1,4.05,4.05,0,0,1-.83-1.55,7.24,7.24,0,0,1-.26-2v-7.38h2v7.18a3.87,3.87,0,0,0,.66,2.38,2.46,2.46,0,0,0,2.07.87,3.93,3.93,0,0,0,1.68-.34,2.93,2.93,0,0,0,1.15-.94,4.16,4.16,0,0,0,.66-1.46,7.22,7.22,0,0,0,.22-1.87v-5.82h2Z" transform="translate(-5.05 -15.06)"/><path class="cls-8" d="M426,550.6h-3.53v6c0,.4,0,.76,0,1.09a2.32,2.32,0,0,0,.2.87,1.4,1.4,0,0,0,.54.59,2,2,0,0,0,1,.22,4.1,4.1,0,0,0,.9-.11,4.48,4.48,0,0,0,.87-.3l.07,1.81a4.81,4.81,0,0,1-1.13.33,7.32,7.32,0,0,1-1.19.11,4.3,4.3,0,0,1-1.72-.29,2.3,2.3,0,0,1-1-.79,3,3,0,0,1-.48-1.26,12.25,12.25,0,0,1-.11-1.68V550.6h-2.61v-1.68h2.61v-3.4h2v3.4H426Z" transform="translate(-5.05 -15.06)"/><path class="cls-8" d="M428.44,551.75c0-.54,0-1-.05-1.53s-.05-.91-.05-1.3h1.89c0,.32,0,.64,0,1s0,.65,0,1h.06a3.29,3.29,0,0,1,.57-.84,4.56,4.56,0,0,1,.88-.73,5,5,0,0,1,1.15-.51,4.75,4.75,0,0,1,1.38-.19,2.73,2.73,0,0,1,.41,0,1.53,1.53,0,0,1,.41.1l-.13,2a3.79,3.79,0,0,0-1.07-.16,3,3,0,0,0-2.67,1.19,5.56,5.56,0,0,0-.83,3.26v5.83h-2Z" transform="translate(-5.05 -15.06)"/><path class="cls-8" d="M437.16,544.24a1.42,1.42,0,0,1,.42-1,1.4,1.4,0,0,1,1-.44,1.38,1.38,0,0,1,1,.44,1.51,1.51,0,0,1,0,2.07,1.46,1.46,0,0,1-1.05.41,1.42,1.42,0,0,1-1.05-.41A1.44,1.44,0,0,1,437.16,544.24Zm.46,4.68h2v12h-2Z" transform="translate(-5.05 -15.06)"/><path class="cls-8" d="M454.26,558.71a6.15,6.15,0,0,1-2.35,1.93,7.57,7.57,0,0,1-3,.55,6.21,6.21,0,0,1-2.53-.5,5.83,5.83,0,0,1-1.9-1.34,5.93,5.93,0,0,1-1.2-2,7.25,7.25,0,0,1,0-5,6.13,6.13,0,0,1,1.28-2,5.93,5.93,0,0,1,1.95-1.29,6.33,6.33,0,0,1,2.45-.46,6.15,6.15,0,0,1,2.3.42,4.9,4.9,0,0,1,1.8,1.23,5.5,5.5,0,0,1,1.16,2,7.7,7.7,0,0,1,.41,2.64v.64H445a4.34,4.34,0,0,0,1.2,2.7,3.9,3.9,0,0,0,1.2.83,3.77,3.77,0,0,0,1.51.31,4.74,4.74,0,0,0,2.2-.47,4.85,4.85,0,0,0,1.61-1.35Zm-1.71-4.89a3.45,3.45,0,0,0-1-2.45,3.6,3.6,0,0,0-2.61-.92,3.69,3.69,0,0,0-3.91,3.37Z" transform="translate(-5.05 -15.06)"/><path class="cls-8" d="M457.79,551.75q0-.81-.06-1.53c0-.48-.05-.91-.05-1.3h1.9c0,.32,0,.64,0,1s0,.65,0,1h.05a3.29,3.29,0,0,1,.57-.84,4.56,4.56,0,0,1,.88-.73,5,5,0,0,1,1.15-.51,4.77,4.77,0,0,1,1.39-.19,5.22,5.22,0,0,1,2,.36,3.94,3.94,0,0,1,1.42,1,4.2,4.2,0,0,1,.83,1.55,7.35,7.35,0,0,1,.26,2v7.39h-2V553.7a3.85,3.85,0,0,0-.66-2.38,2.46,2.46,0,0,0-2.07-.87,3.93,3.93,0,0,0-1.68.33,3,3,0,0,0-1.15,1,4.08,4.08,0,0,0-.66,1.46,7.19,7.19,0,0,0-.22,1.86v5.83h-2Z" transform="translate(-5.05 -15.06)"/><path class="cls-8" d="M478.54,550.6H475v6c0,.4,0,.76,0,1.09a2.32,2.32,0,0,0,.2.87,1.4,1.4,0,0,0,.54.59,2,2,0,0,0,1,.22,4.1,4.1,0,0,0,.9-.11,4.48,4.48,0,0,0,.87-.3l.07,1.81a4.75,4.75,0,0,1-1.14.33,7.1,7.1,0,0,1-1.18.11,4.3,4.3,0,0,1-1.72-.29,2.3,2.3,0,0,1-1-.79,3,3,0,0,1-.48-1.26,12.25,12.25,0,0,1-.11-1.68V550.6h-2.61v-1.68H473v-3.4h2v3.4h3.53Z" transform="translate(-5.05 -15.06)"/><path class="cls-8" d="M482.66,558a1.54,1.54,0,0,1,1.53,1.54,1.44,1.44,0,0,1-.47,1.08,1.49,1.49,0,0,1-2.13,0,1.44,1.44,0,0,1-.47-1.08,1.54,1.54,0,0,1,1.54-1.54Z" transform="translate(-5.05 -15.06)"/><path class="cls-8" d="M488.36,557.74a5,5,0,0,0,1.29,1.17,3.29,3.29,0,0,0,1.77.44,4.38,4.38,0,0,0,.94-.11,2.89,2.89,0,0,0,.85-.33,1.89,1.89,0,0,0,.62-.57,1.5,1.5,0,0,0,.22-.84,1.39,1.39,0,0,0-.21-.79,2,2,0,0,0-.58-.52,3.22,3.22,0,0,0-.82-.35l-.94-.23c-.56-.12-1.1-.25-1.61-.4a5.34,5.34,0,0,1-1.34-.61,2.7,2.7,0,0,1-.92-1,3.33,3.33,0,0,1,0-3,3.25,3.25,0,0,1,1-1.1,4.8,4.8,0,0,1,1.43-.66,5.94,5.94,0,0,1,1.63-.23,5.51,5.51,0,0,1,2.37.51,3.73,3.73,0,0,1,1.7,1.66l-1.66,1.1a3.21,3.21,0,0,0-1-1,2.76,2.76,0,0,0-1.52-.4,3.37,3.37,0,0,0-.83.1,2.48,2.48,0,0,0-.76.31,2,2,0,0,0-.55.52,1.32,1.32,0,0,0-.21.73.93.93,0,0,0,.24.65,2.17,2.17,0,0,0,.66.48,6.4,6.4,0,0,0,1,.35,10.5,10.5,0,0,0,1.14.26,10.12,10.12,0,0,1,1.51.4,4.35,4.35,0,0,1,1.25.65,2.91,2.91,0,0,1,.85,1,3.48,3.48,0,0,1-1.19,4.41,4.93,4.93,0,0,1-1.54.65,7.29,7.29,0,0,1-1.75.21,6.62,6.62,0,0,1-2.64-.48,4.81,4.81,0,0,1-2-1.75Z" transform="translate(-5.05 -15.06)"/><path class="cls-8" d="M509.42,558c0,.55,0,1.06.05,1.54s0,.91,0,1.3h-1.89c0-.32,0-.65,0-1s0-.66,0-1h-.05a3.42,3.42,0,0,1-.58.84,3.93,3.93,0,0,1-.88.73,4.28,4.28,0,0,1-1.15.51,4.75,4.75,0,0,1-1.38.2,5.19,5.19,0,0,1-2-.36,3.69,3.69,0,0,1-1.42-1,3.92,3.92,0,0,1-.83-1.55,6.87,6.87,0,0,1-.27-2v-7.38h2v7.18a3.8,3.8,0,0,0,.67,2.38,2.43,2.43,0,0,0,2.07.87,3.92,3.92,0,0,0,1.67-.34,2.93,2.93,0,0,0,1.15-.94,4.36,4.36,0,0,0,.67-1.46,7.7,7.7,0,0,0,.21-1.87v-5.82h2Z" transform="translate(-5.05 -15.06)"/><path class="cls-8" d="M513.1,548.92h2v1.74h0a5.76,5.76,0,0,1,1.91-1.51,5.28,5.28,0,0,1,2.39-.54,6.82,6.82,0,0,1,2.56.47,5.87,5.87,0,0,1,2,1.32,6.05,6.05,0,0,1,1.27,2,6.67,6.67,0,0,1,.46,2.51,6.58,6.58,0,0,1-.46,2.5,6.07,6.07,0,0,1-1.26,2,5.66,5.66,0,0,1-1.91,1.31,5.78,5.78,0,0,1-2.35.48,5.52,5.52,0,0,1-2.82-.71,4.61,4.61,0,0,1-1.78-1.72h0v8h-2Zm2,6a5.22,5.22,0,0,0,.29,1.75,4.17,4.17,0,0,0,.86,1.4,4,4,0,0,0,1.34,1,4.55,4.55,0,0,0,3.5,0,4,4,0,0,0,1.35-1,4,4,0,0,0,.85-1.4,5.25,5.25,0,0,0,0-3.5,4,4,0,0,0-.85-1.41,4.15,4.15,0,0,0-1.35-.94,4.55,4.55,0,0,0-3.5,0,4.11,4.11,0,0,0-1.34.94,4.21,4.21,0,0,0-.86,1.41A5.18,5.18,0,0,0,515.09,554.9Z" transform="translate(-5.05 -15.06)"/><path class="cls-8" d="M528.71,548.92h2v1.74h0a5.72,5.72,0,0,1,1.9-1.51,5.31,5.31,0,0,1,2.39-.54,6.84,6.84,0,0,1,2.57.47,5.73,5.73,0,0,1,2,1.32,6.08,6.08,0,0,1,1.28,2,6.67,6.67,0,0,1,.46,2.51,6.58,6.58,0,0,1-.46,2.5,6.42,6.42,0,0,1-1.26,2,5.94,5.94,0,0,1-4.26,1.79,5.49,5.49,0,0,1-2.82-.71,4.55,4.55,0,0,1-1.78-1.72h0v8h-2Zm2,6a5.22,5.22,0,0,0,.29,1.75,4,4,0,0,0,.86,1.4,3.89,3.89,0,0,0,1.34,1,4.55,4.55,0,0,0,3.5,0,3.89,3.89,0,0,0,1.34-1,4,4,0,0,0,.86-1.4,5.43,5.43,0,0,0,0-3.5,4.05,4.05,0,0,0-.86-1.41,4,4,0,0,0-1.34-.94,4.55,4.55,0,0,0-3.5,0,4,4,0,0,0-1.34.94,4.05,4.05,0,0,0-.86,1.41A5.18,5.18,0,0,0,530.71,554.9Z" transform="translate(-5.05 -15.06)"/><path class="cls-8" d="M543.74,554.9a6.6,6.6,0,0,1,.49-2.56,6.16,6.16,0,0,1,1.33-2,5.93,5.93,0,0,1,2-1.29,7.33,7.33,0,0,1,5.11,0,6,6,0,0,1,2,1.29,6.33,6.33,0,0,1,1.33,2,7,7,0,0,1,0,5.11,6.1,6.1,0,0,1-1.33,2,5.9,5.9,0,0,1-2,1.3,7.33,7.33,0,0,1-5.11,0,5.81,5.81,0,0,1-2-1.3,6,6,0,0,1-1.33-2A6.55,6.55,0,0,1,543.74,554.9Zm2.15,0a5.22,5.22,0,0,0,.29,1.75,4.17,4.17,0,0,0,.86,1.4,4,4,0,0,0,1.34,1,4.55,4.55,0,0,0,3.5,0,4,4,0,0,0,1.35-1,4,4,0,0,0,.85-1.4,5.25,5.25,0,0,0,0-3.5,4,4,0,0,0-.85-1.41,4.15,4.15,0,0,0-1.35-.94,4.55,4.55,0,0,0-3.5,0,4.11,4.11,0,0,0-1.34.94,4.21,4.21,0,0,0-.86,1.41A5.18,5.18,0,0,0,545.89,554.9Z" transform="translate(-5.05 -15.06)"/><path class="cls-8" d="M559.62,551.75q0-.81-.06-1.53c0-.48,0-.91,0-1.3h1.9c0,.32,0,.64,0,1s0,.65,0,1h0a3.29,3.29,0,0,1,.57-.84,4.56,4.56,0,0,1,.88-.73,5,5,0,0,1,1.15-.51,4.77,4.77,0,0,1,1.39-.19,2.69,2.69,0,0,1,.4,0,1.45,1.45,0,0,1,.41.1l-.13,2a3.74,3.74,0,0,0-1.07-.16,3,3,0,0,0-2.67,1.19,5.64,5.64,0,0,0-.83,3.26v5.83h-2Z" transform="translate(-5.05 -15.06)"/><path class="cls-8" d="M575.16,550.6h-3.53v6c0,.4,0,.76,0,1.09a2.32,2.32,0,0,0,.21.87,1.4,1.4,0,0,0,.54.59,2,2,0,0,0,1,.22,3.94,3.94,0,0,0,.89-.11,4.06,4.06,0,0,0,.87-.3l.08,1.81a4.75,4.75,0,0,1-1.14.33,7.22,7.22,0,0,1-1.19.11,4.28,4.28,0,0,1-1.71-.29,2.27,2.27,0,0,1-1-.79,3,3,0,0,1-.47-1.26,10.85,10.85,0,0,1-.11-1.68V550.6H567v-1.68h2.61v-3.4h2v3.4h3.53Z" transform="translate(-5.05 -15.06)"/><path class="cls-1" d="M85.08,483.08a21.89,21.89,0,0,0,2.61-.71,18.9,18.9,0,0,0,6.23-3.31,17,17,0,0,0,5.42-8.92,17.72,17.72,0,0,0,.52-5.53,18.86,18.86,0,0,0-4.66,1.93,19.39,19.39,0,0,0-5.33,4.66,20.59,20.59,0,0,0-3.05,5.36,24,24,0,0,0-1.54,5.49Z" transform="translate(-5.05 -15.06)"/><path class="cls-1" d="M83.63,483a16.35,16.35,0,0,1-8.23-7.46,17.77,17.77,0,0,1-1.8-5.66,21,21,0,0,1-.29-3.43,18.1,18.1,0,0,1,3.28,1.69,15.41,15.41,0,0,1,3.89,3.41,14.76,14.76,0,0,1,2.79,5.62,15.24,15.24,0,0,1,.42,4.57Z" transform="translate(-5.05 -15.06)"/><path class="cls-2" d="M83.76,483.43a.88.88,0,0,1,.22-.19,1,1,0,0,1,.18-.05.66.66,0,0,1,.31,0,.6.6,0,0,1,.43.53.68.68,0,0,1,0,.34,1.73,1.73,0,0,1-.15.39l-.17.45a6,6,0,0,0-.26,1.13,11.09,11.09,0,0,0-.11,1.17,12.55,12.55,0,0,0,.15,2.93,13.84,13.84,0,0,0,1.07,3.22c.16.36.3.66.4.87a.3.3,0,0,1,.06.17.39.39,0,0,1-.07.25.58.58,0,0,1-.22.18,1,1,0,0,1-.31.09.5.5,0,0,1-.24,0,.35.35,0,0,1-.17-.13,4.67,4.67,0,0,1-.58-.84c-.28-.62-.4-1-.4-1-.37-1.11-.56-1.67-.61-1.87a12.91,12.91,0,0,1-.34-2.21,12.74,12.74,0,0,1,0-2.27,13.21,13.21,0,0,1,.45-2.25l.16-.48A1.26,1.26,0,0,1,83.76,483.43Z" transform="translate(-5.05 -15.06)"/><path class="cls-3" d="M83.54,482.84a22.5,22.5,0,0,0-7.31-12.49" transform="translate(-5.05 -15.06)"/><path class="cls-3" d="M85.2,483c.55-1.12,1.17-2.27,1.89-3.45A44.93,44.93,0,0,1,95,469.89" transform="translate(-5.05 -15.06)"/><path class="cls-4" d="M251.45,552.45c-1.6-2.88-3.42-6.61-5.71-11.64l-37.25-74.26-.76-1.18c-.16-.13-.33-.26-.51-.38a6.78,6.78,0,0,0-3.66-1.1l-13.67-.24a3.91,3.91,0,0,1-.59.26l-.11.1a1.33,1.33,0,0,0-.09.62l0,6.12,0,.19a.81.81,0,0,0,0,.19,1,1,0,0,0,.55.6,1.17,1.17,0,0,0,.6.12h12l40,80.19H15.73L55.84,472l3.75-.06c.23,0,6.54,0,7,0,1.72,0,1.81.07,1.85-.31.08-.73.3-1.71.42-3.63s.09-1.72.12-2.69c0-.6.47-1.31-2.19-1.36,0,0-1.2-.09-6.77-.18l-5.77-.1a6.7,6.7,0,0,0-1,0,5.27,5.27,0,0,0-1.56.3,3.47,3.47,0,0,0-1.7,1.72L6.15,553.09l-.4,1.08a3.09,3.09,0,0,0-.18.79,3.94,3.94,0,0,0,1.23,3.29,3.56,3.56,0,0,0,2,.81H250.32a2.09,2.09,0,0,0,.74-.13,2.59,2.59,0,0,0,1.38-1.49C253.24,555.68,251.59,552.7,251.45,552.45Z" transform="translate(-5.05 -15.06)"/><line class="cls-5" x1="45.56" y1="533.88" x2="70.23" y2="463.48"/><line class="cls-5" x1="77.16" y1="533.88" x2="92.54" y2="463.48"/><line class="cls-5" x1="107.43" y1="534.26" x2="114.47" y2="463.48"/><line class="cls-5" x1="204.7" y1="533.88" x2="180.03" y2="463.48"/><line class="cls-5" x1="171.01" y1="533.88" x2="156.39" y2="463.48"/><line class="cls-5" x1="139.73" y1="534.26" x2="132.68" y2="463.48"/><line class="cls-6" x1="29.85" y1="514.23" x2="219.89" y2="516.15"/><line class="cls-6" x1="36.49" y1="498.95" x2="211.27" y2="500.71"/><line class="cls-6" x1="43.35" y1="484.43" x2="205.86" y2="486.06"/><line class="cls-6" x1="49.58" y1="472.1" x2="199.69" y2="473.61"/><path class="cls-7" d="M128,433.93a17.42,17.42,0,0,0-1.27,1.68,21.8,21.8,0,0,0-2.23,4.32,17.68,17.68,0,0,0-1,3.05,14.73,14.73,0,0,0-.27,5,16.07,16.07,0,0,0,1.64,5,28.77,28.77,0,0,0,3.64,5.42,1.72,1.72,0,0,0,.51.44,1.88,1.88,0,0,0,1.62.14,1.71,1.71,0,0,0,.78-.79c1.11-2,1.84-1.95,3.23-4.84a16.69,16.69,0,0,0,1.92-6.07,15.53,15.53,0,0,0-.48-5.35,16.32,16.32,0,0,0-1.17-3.05,20.56,20.56,0,0,0-2.16-3.6,4.84,4.84,0,0,1-.82-1.48,7.07,7.07,0,0,1-.21-.82,13.07,13.07,0,0,1-.2-1.48c-.08-.93-.18-1.72-.28-2.43a29,29,0,0,1-.48-3.12,5.55,5.55,0,0,0-.13-1.2.74.74,0,0,0-.21-.48.6.6,0,0,0-.76,0,.58.58,0,0,0-.1.44,9.22,9.22,0,0,1-.2,1.17s-.18,1-.52,2.95c-.24,1.41-.36,2.09-.48,2.74s-.19,1.11-.27,1.58Z" transform="translate(-5.05 -15.06)"/><path class="cls-7" d="M111.79,454.69a19.31,19.31,0,0,0-.14,2.1,21.85,21.85,0,0,0,.52,4.83,17.16,17.16,0,0,0,.82,3.12,14.87,14.87,0,0,0,2.52,4.33,16,16,0,0,0,4.11,3.25,28.75,28.75,0,0,0,6,2.53,2,2,0,0,0,.68.09,1.89,1.89,0,0,0,1.42-.78,1.67,1.67,0,0,0,.22-1.09c-.17-2.27.46-2.64,0-5.81a16.44,16.44,0,0,0-1.73-6.13,15.43,15.43,0,0,0-3.35-4.2,16.37,16.37,0,0,0-2.65-1.91,20.7,20.7,0,0,0-3.79-1.82,4.8,4.8,0,0,1-1.49-.78c-.24-.19-.43-.38-.63-.57a12.42,12.42,0,0,1-1-1.12c-.58-.74-1.1-1.34-1.57-1.89a26.27,26.27,0,0,1-2.12-2.34,6.16,6.16,0,0,0-.77-.93.76.76,0,0,0-.44-.28.6.6,0,0,0-.63.41c0,.16.07.28.16.43a9.67,9.67,0,0,1,.47,1.09l1.19,2.74c.57,1.32.85,2,1.11,2.56l.64,1.47Z" transform="translate(-5.05 -15.06)"/><path class="cls-7" d="M111.79,475.19a19.31,19.31,0,0,0-.14,2.1,21.85,21.85,0,0,0,.52,4.83,17.16,17.16,0,0,0,.82,3.12,14.87,14.87,0,0,0,2.52,4.33,16,16,0,0,0,4.11,3.25,28.75,28.75,0,0,0,6,2.53,2,2,0,0,0,.68.09,1.89,1.89,0,0,0,1.42-.78,1.66,1.66,0,0,0,.22-1.09c-.17-2.26.46-2.64,0-5.81a16.44,16.44,0,0,0-1.73-6.13,15.58,15.58,0,0,0-3.35-4.2,16.37,16.37,0,0,0-2.65-1.91,20.7,20.7,0,0,0-3.79-1.82,4.58,4.58,0,0,1-1.49-.78c-.24-.19-.43-.38-.63-.57a11.13,11.13,0,0,1-1-1.12c-.58-.74-1.1-1.34-1.57-1.88a27.23,27.23,0,0,1-2.12-2.35,5.75,5.75,0,0,0-.77-.92.73.73,0,0,0-.44-.29.6.6,0,0,0-.63.41.61.61,0,0,0,.16.43,10.53,10.53,0,0,1,.47,1.09l1.19,2.75,1.11,2.55.64,1.47Z" transform="translate(-5.05 -15.06)"/><path class="cls-7" d="M111.79,496.06a19.31,19.31,0,0,0-.14,2.1,21.85,21.85,0,0,0,.52,4.83,17.16,17.16,0,0,0,.82,3.12,14.87,14.87,0,0,0,2.52,4.33,16,16,0,0,0,4.11,3.25,28.75,28.75,0,0,0,6,2.53,2,2,0,0,0,.68.09,1.89,1.89,0,0,0,1.42-.78,1.67,1.67,0,0,0,.22-1.09c-.17-2.27.46-2.64,0-5.81a16.44,16.44,0,0,0-1.73-6.13,15.43,15.43,0,0,0-3.35-4.2,16.37,16.37,0,0,0-2.65-1.91,20.7,20.7,0,0,0-3.79-1.82,4.8,4.8,0,0,1-1.49-.78c-.24-.19-.43-.38-.63-.57a12.42,12.42,0,0,1-1-1.12c-.58-.74-1.1-1.34-1.57-1.89a26.27,26.27,0,0,1-2.12-2.34,6.16,6.16,0,0,0-.77-.93.76.76,0,0,0-.44-.28.6.6,0,0,0-.63.41c0,.16.07.28.16.43a9.67,9.67,0,0,1,.47,1.09s.4.92,1.19,2.74c.57,1.32.85,1.95,1.11,2.56l.64,1.47Z" transform="translate(-5.05 -15.06)"/><path class="cls-7" d="M144.42,452.51a19,19,0,0,0-2,.73,21.3,21.3,0,0,0-4.22,2.42,18.47,18.47,0,0,0-2.52,2,15.07,15.07,0,0,0-2.95,4.06,16.19,16.19,0,0,0-1.32,5.07,29,29,0,0,0,.12,6.53,1.69,1.69,0,0,0,.19.65,1.86,1.86,0,0,0,1.28,1,1.78,1.78,0,0,0,1.09-.23c2-1.08,2.6-.64,5.33-2.32a16.56,16.56,0,0,0,4.91-4.05,15.61,15.61,0,0,0,2.5-4.76,16.82,16.82,0,0,0,.68-3.2,21.23,21.23,0,0,0,.14-4.19,4.65,4.65,0,0,1,.11-1.69,6.26,6.26,0,0,1,.27-.8,9.72,9.72,0,0,1,.63-1.35c.44-.83.78-1.55,1.09-2.2a25.2,25.2,0,0,1,1.29-2.88,6.1,6.1,0,0,0,.54-1.08.7.7,0,0,0,.08-.52.61.61,0,0,0-.63-.41c-.16,0-.23.18-.33.32a11,11,0,0,1-.8.87l-2,2.2-1.89,2-1.09,1.18Z" transform="translate(-5.05 -15.06)"/><path class="cls-7" d="M144.57,473a20.06,20.06,0,0,0-2,.72,22.35,22.35,0,0,0-4.22,2.42,19.32,19.32,0,0,0-2.52,2,14.91,14.91,0,0,0-2.95,4.06,16.19,16.19,0,0,0-1.32,5.07,28.93,28.93,0,0,0,.12,6.52,1.73,1.73,0,0,0,.19.66,1.86,1.86,0,0,0,1.27,1,1.71,1.71,0,0,0,1.1-.24c2-1.07,2.6-.64,5.33-2.31a16.46,16.46,0,0,0,4.91-4.06,15.65,15.65,0,0,0,2.5-4.75,18.76,18.76,0,0,0,.68-3.2,22.1,22.1,0,0,0,.14-4.2,4.53,4.53,0,0,1,.1-1.68,7.46,7.46,0,0,1,.28-.8,9.72,9.72,0,0,1,.63-1.35c.44-.83.78-1.55,1.09-2.2a24.29,24.29,0,0,1,1.29-2.88,5.92,5.92,0,0,0,.53-1.08.71.71,0,0,0,.09-.52.61.61,0,0,0-.63-.41c-.16,0-.23.18-.33.32a9.48,9.48,0,0,1-.81.87s-.68.74-2,2.2l-1.89,2-1.09,1.18Z" transform="translate(-5.05 -15.06)"/><path class="cls-7" d="M144.57,493.87a20.06,20.06,0,0,0-2,.72,22.35,22.35,0,0,0-4.22,2.42,17.78,17.78,0,0,0-2.52,2,14.76,14.76,0,0,0-2.95,4.06,16.19,16.19,0,0,0-1.32,5.07,28.93,28.93,0,0,0,.12,6.52,1.73,1.73,0,0,0,.19.66,1.86,1.86,0,0,0,1.27,1,1.78,1.78,0,0,0,1.1-.24c2-1.07,2.6-.64,5.33-2.31a16.46,16.46,0,0,0,4.91-4.06A15.65,15.65,0,0,0,147,505a18.76,18.76,0,0,0,.68-3.2,22.1,22.1,0,0,0,.14-4.2,4.53,4.53,0,0,1,.1-1.68,7.66,7.66,0,0,1,.28-.81,11.07,11.07,0,0,1,.63-1.35c.44-.82.78-1.54,1.09-2.19a23.44,23.44,0,0,1,1.29-2.88,5.77,5.77,0,0,0,.53-1.09.68.68,0,0,0,.09-.51.6.6,0,0,0-.63-.41c-.16,0-.23.17-.33.32a9.48,9.48,0,0,1-.81.87L148,490l-1.89,2.05-1.09,1.18Z" transform="translate(-5.05 -15.06)"/><path class="cls-7" d="M125.56,536a4.2,4.2,0,0,0,.09.66,3.76,3.76,0,0,0,1.17,1.89,4.29,4.29,0,0,0,1,.63,4.8,4.8,0,0,0,3.66.18,4.29,4.29,0,0,0,1.11-.63,3.9,3.9,0,0,0,1.5-2.58,2.85,2.85,0,0,0,0-.51V521.11a2.77,2.77,0,0,0,0-.45,3.91,3.91,0,0,0-1.65-2.3,3.78,3.78,0,0,0-1.05-.69,4.06,4.06,0,0,0-3,0,4.44,4.44,0,0,0-1.32.75,4.66,4.66,0,0,0-1.47,2.3V536Z" transform="translate(-5.05 -15.06)"/><text class="cls-9" x="-5.05" y="-15.06"/><path class="cls-4" d="M75,463.72" transform="translate(-5.05 -15.06)"/><path class="cls-1" d="M171.74,466.85c-.4.19.36,2,1,5.61a40.76,40.76,0,0,0,.92,5c.76,2.62,1.46,3.35,2.11,3.76a4.2,4.2,0,0,0,2.39.55,4.76,4.76,0,0,0,3-1c.6-.51,1-1.19,1.58-3.53s.61-3.35.93-5.26c.62-3.74,1.27-5.06,1-5.21s-1.71,1.28-6.36,8.92l-1.6-2.48a46,46,0,0,0-3.08-4.51C172.63,467.48,172,466.72,171.74,466.85Z" transform="translate(-5.05 -15.06)"/><path class="cls-10" d="M171.74,466.7" transform="translate(-5.05 -15.06)"/><path class="cls-1" d="M174.21,469.47l4,6.17,3.93-6.17a14,14,0,0,0,0-1.83,10.57,10.57,0,0,0-2.09-6.23c-.51-.61-1.09-1.28-1.9-1.28-.2,0-1,0-2,1.36a11.06,11.06,0,0,0-2,6Z" transform="translate(-5.05 -15.06)"/><path class="cls-1" d="M177.44,481.74H179v6.91a7.56,7.56,0,0,1,.67-1.91,10.85,10.85,0,0,1,4.76-3.33c1.62-.72,3.67-1.66,6.52-3a.88.88,0,0,1,.43,0,.94.94,0,0,1,.55.77,1.15,1.15,0,0,1-.06.5,3.8,3.8,0,0,1-.79,1.32c-1.53,2.42-2.63,4.2-3.24,5.23a13.3,13.3,0,0,1-1,1.46,12.17,12.17,0,0,1-1.12,1.23,10.8,10.8,0,0,1-2.57,1.69,11.31,11.31,0,0,1-4.36,1,11.18,11.18,0,0,1-4.36-.51,10.49,10.49,0,0,1-3.92-2.42,15.86,15.86,0,0,1-1.31-1.63c-.46-.65-.52-.84-1.27-2.05-1-1.61-1-1.48-1.65-2.6-.32-.56-.56-1-1.1-1.91l-.57-.93a.91.91,0,0,1,0-.72,1,1,0,0,1,.7-.49,1.06,1.06,0,0,1,.7.17l3,1.44c2.19,1.05,3.29,1.58,3.58,1.69.13.06.52.21,1,.47s.78.46,1,.57.39.29.65.49a8.74,8.74,0,0,1,.87.72,7.57,7.57,0,0,1,.81,1.09c.17.3.46,1.42.63,1.82Z" transform="translate(-5.05 -15.06)"/></svg>